<svg xmlns="http://www.w3.org/2000/svg" width="512" height="300" viewBox="0 0 512 300"><g clip-rule="evenodd" fill="#fff" fill-rule="evenodd"><path d="M318.89 105.55c0 1.692-.007 3.385.001 5.077.005.95.064 1.007 1.011 1.008 3.141.004 6.282.001 9.423.002.527 0 1.048.01 1.562.193.814.288 1.234.867 1.34 1.704.033.264.031.533.031.8.002 2.732.002 5.464 0 8.195 0 .208.001.416-.014.623-.074 1.026-.653 1.723-1.647 1.92-.399.078-.817.085-1.226.086-2.994.007-5.988.004-8.982.004-.235 0-.471-.012-.704.01-.53.05-.735.25-.787.77-.024.236-.01.475-.01.713 0 3.088-.052 6.177.021 9.263.036 1.49-1.031 2.65-2.557 2.622-2.7-.05-5.4-.008-8.1-.017-1.745-.006-2.604-.864-2.611-2.627-.012-3.088-.003-6.176-.004-9.264 0-.237.01-.476-.007-.712-.043-.57-.18-.705-.765-.752-.204-.016-.41-.006-.616-.006h-9.07c-2.098-.01-2.861-.783-2.864-2.907-.002-2.524 0-5.048 0-7.572 0-.207-.006-.416.007-.623.092-1.504.911-2.35 2.401-2.41 1.055-.042 2.113-.013 3.17-.013 2.23-.001 4.461.002 6.692-.001 1.021-.002 1.05-.025 1.05-1.037.005-3.206.003-6.413.001-9.62 0-.416.017-.825.13-1.233.27-.971.794-1.467 1.77-1.595.32-.042.645-.042.967-.042 2.495-.003 4.99-.002 7.485-.001.235 0 .47-.004.705.009 1.38.074 2.163.857 2.186 2.266.03 1.722.007 3.444.007 5.166h.003zM199.56 112.183h16.99c.236 0 .47-.008.705.003 1.318.063 2.198.933 2.232 2.257.029 1.127.008 2.256.008 3.384 0 1.751-.044 3.504.013 5.254.059 1.805-1.03 2.617-2.51 2.621-.293 0-.586.01-.88.01l-33.452-.001c-.38 0-.765.001-1.142-.042-1.152-.133-1.958-.964-1.968-2.132-.026-3.027-.03-6.055.002-9.083.015-1.445.952-2.268 2.484-2.27 5.84-.004 11.68-.001 17.519-.001zM126.003 224.897v-15.768c0-.238-.009-.476.004-.713.032-.608.078-.668.665-.682a57.97 57.97 0 0 1 2.377-.004c.687.013.73.057.734.788.01 1.9.003 3.8.004 5.701 0 .238.006.475.011.713.006.291.158.43.443.43.176.001.352.006.528.006h9.335c.176 0 .352-.005.528-.007.292-.004.423-.167.43-.448.006-.237.01-.475.01-.712.001-1.871-.004-3.742.003-5.613.003-.83.026-.847.838-.854.764-.006 1.527.01 2.29-.009.44-.01.661.162.65.62-.005.266.01.534.01.801 0 10.542-.001 21.083.002 31.625 0 1.487-.038 1.301-1.297 1.31-.616.004-1.233-.01-1.85.001-.43.008-.67-.151-.646-.621.012-.237 0-.475 0-.713v-20.044c0-.208.002-.416 0-.624-.012-.877-.012-.89-.894-.892-3.17-.005-6.34-.005-9.51 0-.866.002-.878.015-.878.905-.004 6.92-.003 13.838-.003 20.757 0 1.23-.002 1.23-1.183 1.231-.558 0-1.115.002-1.673-.001-.895-.005-.912-.022-.925-.97-.005-.297-.003-.594-.003-.89v-15.323zM263.597 238.192h8.277c.234 0 .47.006.704.01.253.005.386.159.389.391.011 1.01.01 2.018.005 3.028-.002.28-.161.435-.443.444-.264.008-.528.014-.792.014h-12.503c-.147 0-.294-.001-.44.001-.87.013-.88.013-.883.906-.007 1.87-.006 3.741 0 5.612.002.99.01.995.972.996 4.344.004 8.688.005 13.032.007 1.07 0 1.072 0 1.072 1.067v13.004c0 .178.006.357-.003.535-.032.604-.079.664-.665.68-.616.017-1.233.005-1.849.005h-15.233c-1.078 0-1.08-.003-1.082-1.064-.002-.683-.01-1.366.003-2.048.015-.698.058-.731.771-.752.176-.006.352-.001.529-.001h12.503c.235 0 .47-.01.705-.002.366.012.54-.151.533-.53-.007-.445.008-.89.007-1.335 0-1.574 0-3.147-.006-4.721-.004-.95-.009-.955-1.003-.955-4.226-.002-8.453 0-12.68-.002-1.501 0-1.36.115-1.361-1.405-.004-4.186-.002-8.373-.002-12.559 0-.178-.003-.356.002-.534.021-.776.024-.788.81-.79 2.877-.005 5.754-.002 8.63-.002zM250.33 251.616v11.936c0 .148.003.297 0 .445-.019.871-.028.892-.903.892-5.665.004-11.33.004-16.994 0-.897 0-.923-.026-.923-.97-.003-8.253-.001-16.507 0-24.761 0-.178.001-.357.017-.534.026-.279.183-.426.463-.427.939-.002 1.878-.005 2.817-.004.28.001.44.154.454.434.016.326.02.653.02.98.001 6.769 0 13.538.002 20.307 0 1.11.003 1.112 1.109 1.112 3.052.002 6.105.001 9.157 0 .205 0 .41-.004.616-.012.286-.01.422-.166.423-.453.001-.267.007-.534.007-.801l.004-20.487c0-1.073 0-1.076 1.044-1.083.675-.004 1.35-.013 2.025.007.59.017.628.07.659.682.011.237.004.475.004.712v12.025zM218.375 234.413c-2.848 0-5.695.003-8.543-.001-.916-.002-.924-.01-.924-.95-.003-5.702-.002-11.404-.001-17.106 0-.178.004-.356.008-.534.007-.288.15-.44.437-.44.94-.003 1.879 0 2.818-.006.325-.001.49.161.505.48.013.267.013.535.013.802.001 4.128-.01 8.256.006 12.384.008 1.8-.12 1.523 1.492 1.55a31.74 31.74 0 0 0 1.585-.004c.641-.021.69-.062.697-.735.015-1.514.006-3.03.007-4.544 0-.594.01-1.188 0-1.781-.007-.37.145-.553.516-.552.88.003 1.762.006 2.642-.002.408-.003.576.18.57.594-.013.95-.002 1.9-.002 2.85.001 1.159-.008 2.317.006 3.475.008.6.08.678.657.693.821.02 1.644-.006 2.466.008.449.007.647-.185.627-.639-.014-.296.007-.593.007-.89l.001-12.385c0-.208-.006-.416.005-.623.033-.626.06-.667.656-.679a70.375 70.375 0 0 1 2.466-.001c.623.01.653.048.686.643.012.208.006.416.006.624v16.572c0 .178.007.357-.004.534-.033.587-.078.65-.685.657-1.321.016-2.642.006-3.963.006h-4.757zM299.323 224.81v-15.764c0-.208-.007-.416.003-.623.029-.605.078-.674.659-.687a57.82 57.82 0 0 1 2.465-.003c.563.01.634.095.661.69.017.384.012.771.012 1.157v27.433c0 1.317-.026 1.172 1.125 1.172 4.256.002 8.512 0 12.767.001.235 0 .47.006.705.007.286.001.44.152.443.435.008.98.008 1.96.006 2.939 0 .317-.154.5-.482.503-.206.002-.411.01-.617.01h-16.64c-.177 0-.353-.007-.529-.005-.408.004-.583-.21-.575-.609.005-.237-.003-.475-.003-.712V224.81zM340.774 221.149c0 1.573-.016 3.147.007 4.72.01.603-.15 1.076-.585 1.51a782.218 782.218 0 0 0-6.355 6.42c-.377.384-.786.589-1.323.577a59.317 59.317 0 0 0-2.378 0c-.503.01-.893-.174-1.248-.536-2.151-2.191-4.31-4.374-6.477-6.549-.36-.36-.518-.761-.517-1.269.01-3.266.001-6.532.008-9.798.001-.845.026-.862.827-.872.734-.01 1.468-.01 2.201.001.758.013.771.022.773.826.005 2.554.031 5.108-.018 7.66-.018.972.289 1.7.98 2.36 1.217 1.16 2.38 2.379 3.566 3.572.187.188.367.388.574.55.42.331.672.322 1.1-.021.16-.129.303-.281.448-.428 1.331-1.34 2.65-2.694 3.997-4.018.455-.447.652-.935.646-1.578-.025-2.494-.014-4.988-.015-7.482 0-.238-.005-.475.003-.713.024-.691.036-.715.692-.727a62.162 62.162 0 0 1 2.377.002c.657.013.7.048.708.716.018 1.306.008 2.613.009 3.919v1.158zM344.552 224.904v-8.372c0-.237.004-.475.011-.712.01-.283.149-.438.438-.44.206 0 .411-.007.616-.007h16.816c.146 0 .293.006.44 0 .36-.018.55.138.548.517-.005.92-.007 1.84 0 2.761.003.388-.21.52-.551.526-.264.004-.528.008-.792.008h-12.326c-.235 0-.47-.007-.704.006-.598.033-.66.08-.678.672-.021.682-.007 1.365-.007 2.048v11.221c0 .238-.01.475-.006.713.006.417-.205.574-.603.57-.85-.012-1.702.01-2.552-.008-.597-.014-.641-.058-.645-.687-.012-1.87-.005-3.74-.005-5.61v-3.206zM171.213 224.901v-8.368c0-.238.004-.475.012-.712.01-.282.15-.44.438-.442.176-.002.352-.006.528-.006h16.898c.147 0 .294.007.44 0 .363-.018.549.146.548.521-.003.92-.004 1.84 0 2.76.001.385-.21.517-.556.517-.352 0-.704.014-1.056.014l-12.058.001c-.264 0-.528.008-.792.004-.402-.006-.595.182-.57.596.01.177.003.355.003.534l-.01 13.087c0 .178.004.356-.006.534-.016.272-.147.456-.433.458-.968.007-1.936.007-2.904.004-.325-.002-.472-.188-.472-.51 0-.267-.01-.534-.01-.801v-8.19zM254.155 224.857v-8.371c0-.237.005-.475.016-.712.013-.244.143-.381.387-.39.235-.008.47-.01.704-.01h16.64c1.082 0 1.083.002 1.085 1.141.001.683-.009 1.366 0 2.048.004.401-.153.616-.57.602-.234-.008-.469.003-.704.003l-12.588.018h-.089c-1.125.004-1.127.004-1.128 1.112 0 4.245.003 8.49-.001 12.735-.002 1.49.154 1.376-1.381 1.38-.558.001-1.116.012-1.673-.004-.632-.018-.677-.069-.695-.735-.013-.475-.003-.95-.003-1.425v-7.392z"/><path d="M318.177 224.902v8.284c0 .237-.004.475-.01.712-.006.321-.167.501-.487.503a359.9 359.9 0 0 1-2.817.001c-.283 0-.43-.153-.438-.44-.005-.177-.01-.355-.01-.534v-17.012c0-.118-.004-.238.002-.356.032-.612.07-.67.659-.68.85-.018 1.702.001 2.553-.007.369-.003.541.167.542.534 0 .237.006.475.006.712v8.283zM384.963 116.067a9.374 9.374 0 0 0-1.095-1.276c-1.13-1.124-2.27-2.24-3.39-3.373-8.659-8.754-17.314-17.512-25.97-26.27-5.313-5.375-10.62-10.757-15.946-16.121-.527-.531-.787-1.067-.604-1.821.394-1.624.54-3.277.506-4.434-.01-4.762-.824-8.827-2.69-12.654-1.58-3.242-3.808-5.972-6.467-8.363-2.1-1.888-4.409-3.451-6.984-4.59-3.554-1.571-7.268-2.213-11.15-2.031-2.215.104-4.394.387-6.511.998-7.388 2.134-12.918 6.672-16.41 13.572-3.729 7.37-3.866 14.999-.938 22.678 2.06 5.401 5.762 9.447 10.528 12.547 4.26 2.77 8.924 4.148 13.992 4.102 2.27-.02 4.506-.334 6.705-.883.678-.17 1.209-.02 1.699.423.197.178.38.372.566.562 4.805 4.883 9.602 9.774 14.416 14.647 3.61 3.655 7.244 7.285 10.863 10.932.373.376.758.755 1.06 1.188 1.088 1.564 1.251 3.218.383 4.95-.284.566-.676 1.037-1.115 1.48-10.028 10.143-20.053 20.29-30.082 30.43a13.96 13.96 0 0 1-1.244 1.13c-1.508 1.196-3.396 1.252-5 .182-.692-.462-1.267-1.055-1.848-1.644-13.34-13.517-26.675-27.038-40.02-40.548-19.88-20.125-39.766-40.242-59.65-60.362-1.867-1.89-3.738-3.778-5.605-5.669-1.02-1.033-2.21-1.661-3.693-1.568-1.3.081-2.325.724-3.226 1.635-21.213 21.468-42.43 42.933-63.645 64.399-1.557 1.575-3.128 3.137-4.667 4.73-1.208 1.252-1.918 2.701-1.472 4.513.265 1.073.915 1.922 1.668 2.681 10.315 10.396 20.555 20.867 30.911 31.221 4.865 4.865 9.671 9.79 14.524 14.667.61.613.807 1.261.64 2.086-.771 3.82-.59 7.61.312 11.387 1.288 5.386 3.988 9.924 8.055 13.611 4.088 3.707 8.873 5.907 14.326 6.667 3.489.486 6.926.245 10.293-.682 5.759-1.585 10.501-4.784 14.177-9.553 2.436-3.16 4.085-6.703 4.904-10.634.561-2.693.672-5.406.496-8.148a25.384 25.384 0 0 0-2.405-9.33c-1.944-4.105-4.844-7.408-8.422-10.114-5.385-4.072-11.427-5.76-18.127-5.026a45.076 45.076 0 0 0-4.168.678c-.76.156-1.386-.072-1.914-.627-.204-.214-.414-.421-.622-.632-4.764-4.839-9.522-9.683-14.293-14.516-2.76-2.794-5.541-5.565-8.305-8.354a124.77 124.77 0 0 1-3.08-3.182c-1.17-1.269-1.77-2.729-1.205-4.481.317-.981.937-1.767 1.651-2.49 9.177-9.28 18.348-18.564 27.524-27.844 1.12-1.133 2.227-2.284 3.403-3.356 1.422-1.295 3.072-1.546 4.824-.751.785.356 1.38.998 1.98 1.61 7.349 7.477 14.766 14.884 22.078 22.397 3.707 3.81 7.466 7.567 11.202 11.347 23.85 24.131 47.699 48.262 71.55 72.391.497.504.965 1.041 1.535 1.466 1.158.864 2.429 1.114 3.831.759 1.077-.273 1.871-.97 2.62-1.727 1.576-1.597 3.115-3.231 4.694-4.824 17.316-17.468 34.532-35.037 51.908-52.444 2.524-2.528 5.034-5.071 7.535-7.623 1.447-1.476 2.958-2.888 4.317-4.45 1.42-1.635 1.527-3.893.287-5.671zM320.01 72.552c-2.6 2.11-5.652 2.992-8.971 2.757-3.086-.218-5.791-1.412-8.071-3.551a15.354 15.354 0 0 1-2.278-2.703c-.197-.286-.317-.616-.505-.908-.927-1.79-1.452-3.7-1.514-5.713-.064-2.075.322-4.082 1.226-5.957 2.06-4.275 5.408-6.92 10.046-7.668 4.077-.658 7.743.47 10.84 3.27 2.238 2.024 3.688 4.535 4.173 7.547.849 5.272-.85 9.605-4.946 12.926zM186.79 175.08c-.113-6.535 5.192-13.27 13.2-13.297 7.79-.026 13.304 6.333 13.273 13.49-.03 7.006-5.592 13.33-13.286 13.318-7.75-.013-13.375-6.666-13.188-13.511z"/><path d="M300.185 68.147c.297.23.473.528.505.908-.276-.24-.468-.53-.505-.908zM295.601 231.345c-.01-.709-.033-.723-.764-.749-.235-.007-.47-.002-.704-.002h-12.328c-.205 0-.411-.01-.616 0-.432.02-.655-.153-.647-.62.015-.86.009-1.721.005-2.582-.002-.4.166-.611.58-.595.234.01.47-.001.705-.001h12.503c.264 0 .528-.007.792-.01.33-.003.473-.183.472-.504 0-.178.005-.356.005-.534v-9.353c0-.208-.004-.416-.014-.623-.013-.246-.148-.378-.39-.388-.235-.009-.47-.01-.704-.01h-15.85c-.41 0-.821-.01-1.232.002-.647.018-.669.046-.692.727-.004.119 0 .238 0 .356l-.007 16.924c0 .119-.004.238.003.356.037.587.089.64.683.67.234.013.469.004.704.004h14.969c.587 0 1.174.015 1.76.001.722-.017.754-.049.766-.753.013-.772.012-1.544 0-2.316zm-15.054-11.318c.013-.806.035-.826.866-.837.762-.01 1.526-.002 2.288-.002h6.865c.206 0 .411.008.616.003.395-.01.594.161.59.58-.01.831.017 1.662-.004 2.493-.017.65-.062.694-.728.7-1.642.012-3.286.003-4.929.003v.002c-1.554 0-3.11.005-4.664-.002-.877-.004-.89-.021-.901-.893a70.84 70.84 0 0 1 0-2.047zM386 231.193c.007-.416-.169-.6-.57-.594-.235.004-.47-.005-.704-.005h-12.5c-.234 0-.47-.01-.704-.002-.4.014-.59-.16-.582-.58.013-.682 0-1.365.001-2.048.003-1.162.004-1.164 1.171-1.164 4.284-.001 8.568 0 12.851-.002 1.029 0 1.033-.007 1.034-1.01.002-3.117.002-6.234 0-9.35-.001-1.061-.005-1.064-1.08-1.064h-16.724c-.147 0-.294.01-.44-.002-.418-.035-.59.176-.588.576 0 .178-.004.356-.004.534v16.829c0 .178.006.356.004.534-.005.419.213.585.608.567.205-.009.41.001.616.001h16.46c.206 0 .41-.005.616-.002.368.005.53-.184.53-.547-.003-.89-.011-1.781.005-2.671zm-15.052-11.331c.015-.603.055-.629.665-.675.088-.007.176-.009.264-.009 3.164.003 6.328.003 9.491.013.84.003.872.051.875.923.003.681.008 1.363 0 2.044-.01.74-.058.801-.813.806-1.611.012-3.222.004-4.834.004-1.582 0-3.163.006-4.745-.001-.88-.004-.898-.026-.907-.883a66.2 66.2 0 0 1 .004-2.222zM167.47 216.442c0-1.065-.005-1.068-1.082-1.068H149.74c-.118 0-.235-.004-.352 0-.676.025-.705.041-.725.701-.02.623-.01 1.247-.009 1.87.002 1.234.003 1.239 1.189 1.24 3.846.002 7.692 0 11.538 0 .558 0 1.116.01 1.673.001.42-.006.665.124.653.61-.021.861-.012 1.723-.004 2.584.004.413-.185.597-.585.588-.235-.006-.47.002-.705.002l-12.507.001c-.264 0-.529.002-.792.015-.271.012-.44.143-.444.438-.002.208-.01.416-.01.624l-.006 9.355c0 .119.008.238.002.356-.022.436.148.678.61.653.206-.01.412.001.617.001H166.267c.234 0 .47-.002.704-.006.323-.007.478-.187.492-.502.007-.178.007-.357.007-.535 0-5.643.002-11.285 0-16.928zm-3.768 13.309c-.009.801-.036.828-.863.84-.616.01-1.232.003-1.848.003-2.552 0-5.105.004-7.657-.002-.929-.002-.934-.014-.944-.946a64.76 64.76 0 0 1 .003-2.048c.016-.742.064-.793.824-.798 1.613-.009 3.227-.003 4.84-.003 1.614 0 3.228-.006 4.841.003.747.004.794.06.804.814.009.712.008 1.425 0 2.137zM250.33 233.28v-16.748c0-.237-.004-.475-.016-.711-.015-.282-.164-.434-.448-.439-.235-.003-.47-.008-.704-.009h-16.645c-1.006.001-1.007.004-1.01 1.052 0 .446-.003.891.002 1.337.017 1.453-.206 1.424 1.45 1.424l12.154-.001c.205 0 .41-.003.616.001.829.019.85.034.865.841.01.594.005 1.188.002 1.782-.005 1.158-.007 1.16-1.167 1.16-4.315.002-8.63 0-12.945.003-.942 0-.975.028-.977.918-.005 3.237 0 6.473.001 9.71 0 .09.004.178.003.267-.003.369.178.545.54.541.235-.002.47.004.705.004h16.38c.176 0 .352.008.528-.002.593-.033.628-.07.663-.684.008-.148.004-.297.004-.446zm-3.74-3.44c-.01.693-.054.744-.773.75-1.615.011-3.229.003-4.843.003-1.614 0-3.229.008-4.843-.003-.815-.005-.834-.032-.844-.857-.01-.713-.012-1.425 0-2.138.014-.754.049-.792.819-.795 2.29-.007 4.579-.003 6.868-.003.969 0 1.937-.01 2.906.005.65.01.695.057.708.723.016.772.015 1.544.003 2.316zM295.604 252.476v-13.264c0-.208-.004-.416-.013-.623-.011-.246-.146-.378-.387-.39-.176-.008-.352-.007-.528-.007-5.633-.002-11.265-.005-16.898-.005-1.054 0-1.06.006-1.061 1.077-.003 4.095-.002 8.19-.002 12.285v11.93c0 .267.013.534.005.8-.012.395.135.618.557.614.91-.008 1.82-.005 2.729-.003.369 0 .527-.201.53-.556.003-.237.006-.475.006-.712v-8.903c0-.237.009-.474.005-.712-.004-.375.18-.536.544-.523.234.009.47-.001.704-.001h12.585c.235 0 .47-.005.704-.006.364-.002.533-.189.518-.556-.006-.148.002-.296.002-.445zm-3.835-3.706c-.004.81-.023.825-.86.826-3.165.004-6.33.004-9.495 0-.84-.001-.862-.018-.866-.822a582.23 582.23 0 0 1 0-5.87c.005-.809.023-.818.864-.821 1.583-.006 3.166-.002 4.748-.002 1.583 0 3.165-.004 4.748.002.844.003.858.01.86.817.009 1.957.01 3.914.001 5.87zM205.162 216.618c0-.208-.011-.416-.001-.624.021-.455-.186-.635-.634-.625-.821.019-1.643-.006-2.464.009-.602.01-.621.04-.65.676-.014.326-.004.653-.005.98-.005 1.72-.001 3.442-.021 5.164-.008.706-.063.741-.763.77-.234.009-.469.002-.704.002l-12.323.001c-.264 0-.528.006-.792.009-.328.003-.474.179-.47.502.002.178-.005.356-.005.534v9.35c.002 1.04.006 1.045 1.006 1.046 2.816.003 5.633.001 8.45.001h1.144c2.406 0 4.812.003 7.218 0 1.008-.002 1.008-.007 1.014-1.056v-.178-16.561zm-3.775 13.261c-.01.654-.05.703-.715.709-1.643.014-3.286.004-4.93.005-1.584 0-3.168.006-4.752-.001-.88-.005-.905-.036-.909-.891-.003-.683-.004-1.366.001-2.048.006-.783.065-.851.865-.853 2.67-.006 5.34-.003 8.01-.003.617 0 1.233.01 1.849 0 .405-.005.593.18.59.589-.006.83.005 1.662-.009 2.493z"/></g></svg>