<?xml version="1.0" encoding="UTF-8" standalone="no"?>
<!-- Generator: Adobe Illustrator 16.0.0, SVG Export Plug-In . SVG Version: 6.00 Build 0)  -->

<svg
   xmlns:dc="http://purl.org/dc/elements/1.1/"
   xmlns:cc="http://creativecommons.org/ns#"
   xmlns:rdf="http://www.w3.org/1999/02/22-rdf-syntax-ns#"
   xmlns:svg="http://www.w3.org/2000/svg"
   xmlns="http://www.w3.org/2000/svg"
   xmlns:sodipodi="http://sodipodi.sourceforge.net/DTD/sodipodi-0.dtd"
   xmlns:inkscape="http://www.inkscape.org/namespaces/inkscape"
   version="1.1"
   id="Layer_1"
   x="0px"
   y="0px"
   width="512"
   height="300"
   viewBox="0 0 512 300"
   enable-background="new 0 0 5000 4372"
   xml:space="preserve"
   sodipodi:docname="hl-logo-wb-alpha.svg"
   inkscape:version="0.92.2 2405546, 2018-03-11"><metadata
   id="metadata49"><rdf:RDF><cc:Work
       rdf:about=""><dc:format>image/svg+xml</dc:format><dc:type
         rdf:resource="http://purl.org/dc/dcmitype/StillImage" /><dc:title></dc:title></cc:Work></rdf:RDF></metadata><defs
   id="defs47" /><sodipodi:namedview
   pagecolor="#ffffff"
   bordercolor="#666666"
   borderopacity="1"
   objecttolerance="10"
   gridtolerance="10"
   guidetolerance="10"
   inkscape:pageopacity="0"
   inkscape:pageshadow="2"
   inkscape:window-width="1920"
   inkscape:window-height="1016"
   id="namedview45"
   showgrid="false"
   inkscape:zoom="0.90509668"
   inkscape:cx="-122.95603"
   inkscape:cy="21.030551"
   inkscape:window-x="0"
   inkscape:window-y="27"
   inkscape:window-maximized="1"
   inkscape:current-layer="g42"
   fit-margin-top="0"
   fit-margin-left="0"
   fit-margin-right="0"
   fit-margin-bottom="0" />
<g
   id="g42"
   transform="matrix(0.06119311,0,0,0.06190111,-108.98279,32.111462)">
	
	
	
	
	
	
	
	
	
	
	
	
	
	
	
	
	
	
	
	<g
   id="g47"
   transform="matrix(0.86666672,0,0,0.86666672,3797.7758,9.9302428)"><path
     style="clip-rule:evenodd;fill:#ffffff;fill-rule:evenodd"
     inkscape:connector-curvature="0"
     id="path2"
     d="m 3685.826,1357.437 c 0,31.549 -0.115,63.1 0.041,94.645 0.088,17.703 1.209,18.767 19.066,18.791 59.221,0.077 118.443,0.018 177.664,0.044 9.951,0.01 19.775,0.182 29.467,3.582 15.342,5.379 23.262,16.171 25.252,31.776 0.627,4.916 0.59,9.936 0.592,14.909 0.039,50.922 0.029,101.84 0.01,152.759 0,3.874 0.012,7.757 -0.271,11.616 -1.398,19.126 -12.316,32.114 -31.055,35.773 -7.527,1.47 -15.404,1.599 -23.123,1.616 -56.453,0.124 -112.906,0.063 -169.359,0.074 -4.428,0 -8.885,-0.22 -13.277,0.191 -10,0.941 -13.854,4.654 -14.84,14.352 -0.447,4.385 -0.193,8.849 -0.193,13.276 -0.01,57.56 -0.98,115.144 0.408,172.671 0.674,27.791 -19.447,49.379 -48.215,48.866 -50.902,-0.91 -101.838,-0.149 -152.754,-0.317 -32.895,-0.108 -49.082,-16.099 -49.221,-48.955 -0.229,-57.561 -0.059,-115.123 -0.066,-172.684 0,-4.426 0.193,-8.875 -0.141,-13.28 -0.805,-10.636 -3.402,-13.141 -14.416,-14.01 -3.854,-0.304 -7.744,-0.113 -11.619,-0.113 -53.688,0 -107.375,0 -161.059,0 -3.322,0 -6.641,0.013 -9.967,0 -39.561,-0.193 -53.949,-14.59 -53.994,-54.186 -0.051,-47.046 -0.016,-94.09 -0.012,-141.137 0,-3.872 -0.113,-7.757 0.131,-11.617 1.742,-28.033 17.193,-43.816 45.279,-44.923 19.895,-0.782 39.842,-0.242 59.77,-0.248 42.061,-0.017 84.125,0.033 126.189,-0.021 19.25,-0.026 19.785,-0.469 19.813,-19.317 0.08,-59.773 0.039,-119.549 0.01,-179.323 0,-7.762 0.303,-15.383 2.439,-22.993 5.082,-18.094 14.973,-27.347 33.393,-29.723 6.01,-0.776 12.145,-0.776 18.227,-0.783 47.041,-0.059 94.086,-0.037 141.133,-0.024 4.426,10e-4 8.863,-0.066 13.279,0.168 26.029,1.39 40.793,15.978 41.234,42.245 0.543,32.093 0.131,64.2 0.131,96.301 0.017,10e-4 0.039,10e-4 0.058,10e-4 z" /><path
     style="clip-rule:evenodd;fill:#ffffff;fill-rule:evenodd"
     inkscape:connector-curvature="0"
     id="path4"
     d="m 1435.791,1481.08 c 106.788,0 213.577,0 320.364,10e-4 4.426,0 8.86,-0.144 13.279,0.064 24.855,1.17 41.444,17.393 42.08,42.074 0.541,21.011 0.149,42.047 0.154,63.074 0.012,32.645 -0.833,65.316 0.245,97.928 1.111,33.659 -19.428,48.797 -47.317,48.866 -5.532,0.013 -11.063,0.182 -16.595,0.184 -210.257,0.01 -420.515,0.013 -630.772,-0.023 -7.183,0 -14.42,0.03 -21.541,-0.784 -21.71,-2.482 -36.905,-17.962 -37.099,-39.729 -0.496,-56.432 -0.558,-112.875 0.031,-169.308 0.281,-26.94 17.948,-42.287 46.844,-42.311 110.111,-0.093 220.218,-0.036 330.327,-0.036 z" /><path
     style="clip-rule:evenodd;fill:#ffffff;fill-rule:evenodd"
     inkscape:connector-curvature="0"
     id="path6"
     d="m 48.806,3582.085 c 0,-97.971 0,-195.944 0,-293.917 0,-4.427 -0.176,-8.866 0.064,-13.282 0.615,-11.337 1.471,-12.459 12.536,-12.705 14.938,-0.338 29.892,-0.346 44.833,-0.078 12.953,0.232 13.771,1.061 13.837,14.678 0.171,35.428 0.062,70.853 0.083,106.279 0.002,4.427 0.111,8.852 0.2,13.28 0.112,5.436 2.987,8.015 8.347,8.031 3.321,0.013 6.64,0.108 9.961,0.11 58.674,0.01 117.345,0.01 176.018,0 3.322,0 6.641,-0.103 9.962,-0.146 5.502,-0.063 7.962,-3.115 8.103,-8.346 0.118,-4.424 0.186,-8.852 0.188,-13.279 0.019,-34.872 -0.073,-69.744 0.056,-104.617 0.054,-15.468 0.497,-15.791 15.811,-15.917 14.391,-0.122 28.788,0.169 43.17,-0.166 8.294,-0.191 12.47,3.021 12.271,11.54 -0.117,4.977 0.165,9.961 0.165,14.942 0.01,196.498 -0.018,392.997 0.043,589.493 0.007,27.713 -0.716,24.257 -24.451,24.415 -11.62,0.077 -23.248,-0.177 -34.867,0.029 -8.111,0.142 -12.66,-2.823 -12.2,-11.585 0.233,-4.417 0.003,-8.854 0.003,-13.283 -0.001,-124.542 -0.001,-249.082 -0.001,-373.626 0,-3.874 0.039,-7.747 -0.012,-11.623 -0.207,-16.354 -0.215,-16.596 -16.839,-16.628 -59.78,-0.108 -119.56,-0.108 -179.34,0 -16.312,0.029 -16.531,0.271 -16.542,16.869 -0.07,128.968 -0.047,257.934 -0.062,386.907 -0.003,22.924 -0.022,22.931 -22.295,22.952 -10.518,0.01 -21.033,0.025 -31.549,-0.025 -16.883,-0.084 -17.199,-0.416 -17.449,-18.078 -0.08,-5.534 -0.044,-11.07 -0.044,-16.605 -0.002,-95.207 0,-190.408 0,-285.617 z" /><path
     style="clip-rule:evenodd;fill:#ffffff;fill-rule:evenodd"
     inkscape:connector-curvature="0"
     id="path8"
     d="m 2643.24,3829.909 c 52.023,0 104.047,0 156.072,0.01 4.426,0 8.852,0.113 13.275,0.193 4.768,0.079 7.287,2.945 7.34,7.277 0.213,18.811 0.201,37.622 0.09,56.434 -0.033,5.221 -3.035,8.119 -8.34,8.285 -4.98,0.152 -9.961,0.253 -14.938,0.257 -78.59,0.013 -157.176,0.01 -235.766,0.01 -2.771,0 -5.535,-0.028 -8.303,0.012 -16.385,0.245 -16.582,0.248 -16.643,16.894 -0.131,34.865 -0.107,69.733 -0.01,104.602 0.057,18.45 0.193,18.545 18.342,18.562 81.91,0.075 163.822,0.089 245.73,0.13 20.18,0.01 20.207,0.012 20.209,19.889 0.012,80.802 0,161.603 0,242.409 0,3.317 0.123,6.646 -0.057,9.96 -0.602,11.272 -1.484,12.383 -12.531,12.684 -11.611,0.32 -23.242,0.086 -34.865,0.086 -95.744,0 -191.492,0.01 -287.238,-0.01 -20.318,0 -20.342,-0.041 -20.403,-19.814 -0.037,-12.729 -0.191,-25.463 0.07,-38.182 0.268,-13.016 1.08,-13.625 14.538,-14.021 3.318,-0.099 6.64,-0.02 9.962,-0.02 78.59,0 157.178,0 235.768,0 4.43,0 8.861,-0.184 13.281,-0.037 6.9,0.228 10.184,-2.812 10.059,-9.86 -0.145,-8.299 0.141,-16.6 0.135,-24.903 -0.01,-29.33 0,-58.663 -0.121,-87.994 -0.07,-17.702 -0.166,-17.793 -18.906,-17.805 -79.695,-0.041 -159.389,0.01 -239.087,-0.033 -28.317,-0.014 -25.654,2.151 -25.679,-26.185 -0.07,-78.034 -0.026,-156.071 -0.026,-234.106 0,-3.322 -0.07,-6.644 0.024,-9.963 0.403,-14.448 0.458,-14.688 15.294,-14.713 54.242,-0.099 108.48,-0.041 162.716,-0.044 z" /><path
     style="clip-rule:evenodd;fill:#ffffff;fill-rule:evenodd"
     inkscape:connector-curvature="0"
     id="path10"
     d="m 2393.103,4080.141 c 0,74.158 0,148.319 0,222.479 0,2.768 0.037,5.537 -0.022,8.301 -0.343,16.244 -0.529,16.625 -17.023,16.635 -106.813,0.07 -213.629,0.07 -320.442,0.01 -16.907,-0.01 -17.387,-0.503 -17.392,-18.084 -0.051,-153.855 -0.031,-307.713 -0.015,-461.568 0,-3.318 0.04,-6.646 0.34,-9.945 0.478,-5.195 3.444,-7.939 8.715,-7.953 17.71,-0.051 35.42,-0.101 53.128,-0.075 5.273,0.013 8.276,2.855 8.548,8.079 0.318,6.076 0.39,12.17 0.392,18.255 0.021,126.185 0.01,252.366 0.028,378.55 0,20.672 0.06,20.715 20.906,20.727 57.558,0.021 115.115,0.01 172.674,-0.01 3.872,0 7.745,-0.08 11.615,-0.215 5.394,-0.193 7.963,-3.107 7.98,-8.447 0.014,-4.982 0.121,-9.959 0.123,-14.943 0.028,-127.289 0.049,-254.581 0.076,-381.87 0,-19.999 0.018,-20.058 19.693,-20.187 12.727,-0.084 25.465,-0.25 38.183,0.12 11.105,0.32 11.841,1.316 12.414,12.715 0.221,4.417 0.077,8.854 0.077,13.279 0,74.717 0,149.426 0,224.145 z" /><path
     style="clip-rule:evenodd;fill:#ffffff;fill-rule:evenodd"
     inkscape:connector-curvature="0"
     id="path12"
     d="m 1790.557,3759.476 c -53.7,-0.01 -107.396,0.047 -161.095,-0.03 -17.277,-0.027 -17.42,-0.177 -17.426,-17.685 -0.047,-106.293 -0.026,-212.586 -0.017,-318.873 0,-3.322 0.088,-6.639 0.163,-9.961 0.119,-5.359 2.834,-8.181 8.233,-8.198 17.712,-0.047 35.428,-0.013 53.14,-0.104 6.13,-0.03 9.25,3.001 9.525,8.952 0.229,4.972 0.24,9.961 0.243,14.94 0.014,76.947 -0.201,153.9 0.115,230.847 0.137,33.542 -2.253,28.384 28.116,28.888 9.961,0.165 19.936,0.258 29.891,-0.069 12.095,-0.4 13.027,-1.163 13.15,-13.704 0.276,-28.231 0.113,-56.467 0.135,-84.698 0.01,-11.073 0.196,-22.146 -0.01,-33.213 -0.126,-6.884 2.738,-10.307 9.734,-10.282 16.607,0.057 33.215,0.111 49.821,-0.034 7.689,-0.067 10.849,3.366 10.744,11.064 -0.244,17.708 -0.044,35.43 -0.031,53.142 0.018,21.587 -0.155,43.184 0.115,64.769 0.138,11.161 1.493,12.638 12.377,12.909 15.489,0.388 31,-0.115 46.496,0.147 8.464,0.14 12.202,-3.443 11.822,-11.899 -0.25,-5.518 0.128,-11.067 0.13,-16.602 0.021,-76.949 0.023,-153.899 0.033,-230.848 0,-3.875 -0.125,-7.758 0.082,-11.623 0.618,-11.668 1.126,-12.438 12.374,-12.652 15.497,-0.29 31.004,-0.267 46.501,-0.02 11.75,0.189 12.307,0.902 12.939,11.99 0.219,3.864 0.099,7.747 0.099,11.623 0,102.969 0.01,205.936 0.01,308.906 0,3.319 0.124,6.65 -0.068,9.963 -0.631,10.933 -1.48,12.114 -12.925,12.246 -24.91,0.285 -49.823,0.104 -74.735,0.109 -29.893,0 -59.787,0 -89.682,0 z" /><path
     style="clip-rule:evenodd;fill:#ffffff;fill-rule:evenodd"
     inkscape:connector-curvature="0"
     id="path14"
     d="m 3316.895,3580.487 c 0,-97.952 0,-195.907 0,-293.86 0,-3.874 -0.135,-7.755 0.051,-11.62 0.541,-11.275 1.463,-12.549 12.428,-12.803 15.486,-0.361 30.988,-0.349 46.479,-0.057 10.617,0.198 11.955,1.77 12.465,12.853 0.328,7.181 0.221,14.387 0.221,21.578 0.014,170.452 0.014,340.9 0.01,511.353 0,24.564 -0.492,21.849 21.215,21.854 80.244,0.035 160.488,0.011 240.73,0.019 4.426,0 8.852,0.114 13.279,0.134 5.406,0.021 8.32,2.835 8.363,8.106 0.146,18.261 0.152,36.521 0.111,54.779 -0.01,5.916 -2.9,9.309 -9.096,9.376 -3.873,0.038 -7.746,0.172 -11.617,0.172 -104.596,0.015 -209.191,0.015 -313.787,0.012 -3.318,0 -6.639,-0.134 -9.957,-0.095 -7.695,0.086 -11,-3.901 -10.844,-11.341 0.088,-4.428 -0.047,-8.853 -0.047,-13.283 0,-99.058 0,-198.116 0,-297.177 z" /><path
     style="clip-rule:evenodd;fill:#ffffff;fill-rule:evenodd"
     inkscape:connector-curvature="0"
     id="path16"
     d="m 4098.477,3512.23 c -0.01,29.329 -0.305,58.667 0.145,87.993 0.172,11.232 -2.842,20.055 -11.047,28.141 -40.207,39.627 -80.084,79.584 -119.828,119.67 -7.102,7.158 -14.818,10.968 -24.945,10.759 -14.938,-0.314 -29.891,-0.278 -44.824,0 -9.496,0.175 -16.855,-3.261 -23.549,-10.003 -40.553,-40.842 -81.273,-81.526 -122.129,-122.064 -6.766,-6.714 -9.756,-14.194 -9.732,-23.658 0.17,-60.878 0.012,-121.759 0.135,-182.637 0.035,-15.749 0.508,-16.066 15.605,-16.257 13.832,-0.171 27.674,-0.202 41.508,0.021 14.285,0.237 14.531,0.402 14.559,15.4 0.104,47.594 0.594,95.2 -0.326,142.781 -0.35,18.118 5.439,31.684 18.479,43.975 22.945,21.629 44.854,44.355 67.225,66.598 3.531,3.51 6.93,7.221 10.836,10.265 7.908,6.163 12.658,5.987 20.744,-0.415 3.025,-2.396 5.705,-5.237 8.449,-7.969 25.094,-24.995 49.965,-50.22 75.361,-74.902 8.574,-8.334 12.299,-17.43 12.178,-29.41 -0.477,-46.485 -0.256,-92.979 -0.291,-139.468 0,-4.431 -0.092,-8.86 0.068,-13.282 0.451,-12.895 0.67,-13.335 13.037,-13.558 14.941,-0.269 29.893,-0.263 44.828,0.033 12.385,0.246 13.193,0.899 13.359,13.352 0.328,24.346 0.135,48.701 0.156,73.05 0,7.194 0,14.388 0,21.585 z" /><path
     style="clip-rule:evenodd;fill:#ffffff;fill-rule:evenodd"
     inkscape:connector-curvature="0"
     id="path18"
     d="m 4169.713,3582.218 c 0,-52.016 -0.01,-104.031 0.01,-156.046 0,-4.426 0.068,-8.853 0.211,-13.271 0.174,-5.276 2.797,-8.175 8.256,-8.2 3.873,-0.014 7.748,-0.127 11.619,-0.127 105.689,-0.01 211.375,-0.01 317.07,-0.01 2.764,0 5.535,0.12 8.295,-0.01 6.801,-0.322 10.359,2.584 10.328,9.652 -0.08,17.156 -0.121,34.307 0.01,51.461 0.055,7.233 -3.953,9.707 -10.395,9.802 -4.977,0.07 -9.957,0.152 -14.938,0.152 -77.469,0.011 -154.938,0.01 -232.404,0.011 -4.428,0 -8.865,-0.149 -13.279,0.095 -11.285,0.628 -12.436,1.493 -12.783,12.532 -0.4,12.712 -0.135,25.447 -0.139,38.177 0,69.724 0,139.441 -0.01,209.161 0,4.429 -0.164,8.857 -0.098,13.282 0.115,7.78 -3.865,10.713 -11.363,10.621 -16.041,-0.208 -32.098,0.208 -48.135,-0.144 -11.252,-0.25 -12.08,-1.068 -12.158,-12.801 -0.223,-34.856 -0.09,-69.722 -0.094,-104.58 -0.01,-19.922 10e-4,-39.842 10e-4,-59.76 z" /><path
     style="clip-rule:evenodd;fill:#ffffff;fill-rule:evenodd"
     inkscape:connector-curvature="0"
     id="path20"
     d="m 901.266,3582.173 c -0.002,-52 -0.007,-103.997 0.006,-155.994 10e-4,-4.423 0.071,-8.85 0.229,-13.269 0.188,-5.255 2.814,-8.182 8.255,-8.234 3.316,-0.035 6.635,-0.106 9.955,-0.108 106.208,0 212.418,0 318.627,0 2.766,0 5.537,0.134 8.296,0 6.853,-0.332 10.344,2.724 10.328,9.708 -0.044,17.147 -0.074,34.296 0,51.445 0.028,7.18 -3.939,9.647 -10.482,9.636 -6.636,-0.01 -13.273,0.263 -19.912,0.263 -75.783,0.022 -151.567,0.012 -227.352,0.021 -4.979,0 -9.958,0.154 -14.936,0.075 -7.591,-0.113 -11.221,3.394 -10.754,11.099 0.202,3.307 0.061,6.635 0.059,9.957 -0.063,81.317 -0.132,162.632 -0.202,243.947 -0.004,3.318 0.088,6.643 -0.108,9.947 -0.302,5.072 -2.766,8.506 -8.163,8.543 -18.249,0.137 -36.501,0.14 -54.751,0.07 -6.13,-0.023 -8.905,-3.499 -8.905,-9.499 0.002,-4.976 -0.174,-9.953 -0.174,-14.931 -0.017,-50.891 -0.011,-101.786 -0.011,-152.676 z" /><path
     style="clip-rule:evenodd;fill:#ffffff;fill-rule:evenodd"
     inkscape:connector-curvature="0"
     id="path22"
     d="m 2465.208,3581.35 c 0,-52.017 -0.01,-104.029 0.014,-156.044 0,-4.418 0.08,-8.849 0.3,-13.264 0.227,-4.543 2.688,-7.109 7.296,-7.271 4.423,-0.155 8.85,-0.194 13.275,-0.196 104.579,-0.01 209.161,-0.015 313.739,0 20.418,0 20.438,0.047 20.471,21.28 0.02,12.729 -0.162,25.454 -0.01,38.18 0.094,7.475 -2.869,11.475 -10.73,11.211 -4.42,-0.148 -8.85,0.049 -13.275,0.055 -79.125,0.113 -158.248,0.221 -237.371,0.331 -0.555,0.01 -1.109,0 -1.664,0.01 -21.227,0.079 -21.264,0.079 -21.268,20.722 -0.012,79.128 0.053,158.253 -0.029,237.38 -0.027,27.791 2.908,25.664 -26.043,25.733 -10.512,0.023 -21.032,0.22 -31.537,-0.08 -11.928,-0.337 -12.767,-1.279 -13.107,-13.706 -0.244,-8.846 -0.064,-17.707 -0.064,-26.559 -10e-4,-45.927 -10e-4,-91.855 -10e-4,-137.777 z" /><path
     style="clip-rule:evenodd;fill:#ffffff;fill-rule:evenodd"
     inkscape:connector-curvature="0"
     id="path24"
     d="m 3672.404,3582.196 c 0,51.47 0,102.937 -0.01,154.406 0,4.426 -0.07,8.854 -0.168,13.279 -0.129,5.985 -3.168,9.337 -9.205,9.367 -17.705,0.09 -35.41,0.076 -53.117,0.029 -5.334,-0.017 -8.111,-2.855 -8.254,-8.199 -0.086,-3.319 -0.182,-6.637 -0.182,-9.956 -0.014,-105.704 -0.01,-211.407 -0.01,-317.11 0,-2.213 -0.07,-4.433 0.049,-6.639 0.598,-11.408 1.311,-12.476 12.414,-12.695 16.045,-0.314 32.102,0.044 48.145,-0.104 6.955,-0.064 10.207,3.112 10.213,9.937 0.01,4.428 0.113,8.854 0.113,13.283 0.01,51.467 0.01,102.936 0.01,154.402 z" /><path
     style="clip-rule:evenodd;fill:#ffffff;fill-rule:evenodd"
     inkscape:connector-curvature="0"
     id="path26"
     d="m 4931.705,1553.479 c -6.086,-8.627 -13.146,-16.402 -20.656,-23.785 -21.311,-20.952 -42.793,-41.734 -63.926,-62.861 -163.258,-163.185 -326.455,-326.427 -489.66,-489.665 -100.191,-100.21 -200.271,-200.534 -300.688,-300.516 -9.941,-9.899 -14.84,-19.89 -11.387,-33.942 7.426,-30.266 10.184,-61.083 9.535,-82.653 -0.191,-88.764 -15.541,-164.54 -50.717,-235.862 -29.803,-60.433 -71.805,-111.328 -121.938,-155.899 -39.586,-35.193 -83.131,-64.33 -131.686,-85.549 -67.016,-29.29 -137.049,-41.258 -210.266,-37.87 -41.754,1.935 -82.834,7.218 -122.756,18.617 -139.301,39.769 -243.582,124.367 -309.412,252.984 -70.318,137.374 -72.9,279.576 -17.693,422.716 38.826,100.679 108.645,176.097 198.516,233.873 80.311,51.63 168.254,77.324 263.834,76.459 42.799,-0.385 84.949,-6.218 126.41,-16.456 12.795,-3.16 22.801,-0.372 32.045,7.894 3.715,3.317 7.162,6.932 10.676,10.463 90.594,91.02 181.043,182.186 271.816,273.028 68.074,68.125 136.6,135.799 204.828,203.771 7.043,7.013 14.295,14.075 19.979,22.15 20.533,29.156 23.611,59.983 7.23,92.281 -5.346,10.537 -12.732,19.308 -21.008,27.585 -189.092,189.06 -378.119,378.183 -567.23,567.222 -7.422,7.42 -15.199,14.597 -23.451,21.063 -28.438,22.28 -64.041,23.328 -94.281,3.374 -13.047,-8.605 -23.891,-19.668 -34.842,-30.637 C 3233.444,1979.31 2981.993,1727.274 2730.344,1475.432 2355.51,1100.307 1980.539,725.32 1605.623,350.278 c -35.22,-35.231 -70.494,-70.413 -105.697,-105.662 -19.24,-19.267 -41.685,-30.971 -69.63,-29.236 -24.52,1.518 -43.844,13.499 -60.825,30.485 -399.997,400.167 -800.052,800.279 -1200.096,1200.4 -29.358,29.364 -58.974,58.475 -87.983,88.18 -22.793,23.336 -36.182,50.347 -27.757,84.109 4.989,20.003 17.238,35.83 31.443,49.985 194.491,193.78 387.585,388.957 582.853,581.964 91.739,90.676 182.359,182.484 273.87,273.398 11.497,11.424 15.218,23.505 12.075,38.879 -14.559,71.188 -11.151,141.86 5.873,212.248 24.287,100.406 75.188,184.987 151.874,253.717 77.09,69.088 167.318,110.105 270.136,124.268 65.782,9.059 130.587,4.578 194.089,-12.701 108.574,-29.545 198.001,-89.178 267.313,-178.08 45.932,-58.912 77.019,-124.934 92.465,-198.212 10.582,-50.195 12.667,-100.783 9.358,-151.878 -3.95,-60.979 -19.005,-118.885 -45.355,-173.906 -36.653,-76.535 -91.342,-138.101 -158.809,-188.537 -101.532,-75.905 -215.465,-107.359 -341.793,-93.684 -26.458,2.864 -52.572,7.344 -78.591,12.629 -14.344,2.913 -26.132,-1.347 -36.095,-11.69 -3.839,-3.982 -7.809,-7.846 -11.714,-11.767 -89.832,-90.206 -179.563,-180.507 -269.523,-270.58 -52.021,-52.084 -104.474,-103.736 -156.596,-155.725 -19.59,-19.539 -39.184,-39.101 -58.063,-59.318 -22.083,-23.649 -33.398,-50.859 -22.721,-83.526 5.978,-18.288 17.652,-32.932 31.129,-46.406 173.026,-172.972 345.956,-346.04 518.978,-519.014 21.131,-21.124 41.991,-42.591 64.175,-62.566 26.812,-24.145 57.915,-28.815 90.949,-13.996 14.802,6.64 26.015,18.602 37.35,30.005 138.556,139.372 278.418,277.437 416.295,417.489 69.899,71.003 140.778,141.046 211.225,211.512 449.694,449.806 899.388,899.611 1349.12,1349.383 9.383,9.379 18.203,19.398 28.947,27.328 21.836,16.105 45.797,20.752 72.242,14.139 20.311,-5.082 35.287,-18.081 49.393,-32.198 29.73,-29.753 58.74,-60.224 88.523,-89.921 326.51,-325.591 651.115,-653.091 978.762,-977.552 47.596,-47.131 94.922,-94.532 142.086,-142.1 27.27,-27.504 55.777,-53.829 81.385,-82.959 26.781,-30.465 28.801,-72.554 5.422,-105.703 z M 3706.965,742.362 c -49.037,39.32 -106.582,55.771 -169.162,51.395 -58.193,-4.069 -109.197,-26.329 -152.191,-66.202 -16.293,-15.11 -30.533,-31.958 -42.939,-50.378 -3.727,-5.332 -5.99,-11.486 -9.535,-16.922 -17.465,-33.372 -27.367,-68.958 -28.535,-106.503 -1.207,-38.678 6.072,-76.078 23.109,-111.03 38.844,-79.688 101.977,-128.992 189.428,-142.936 76.873,-12.258 146.004,8.744 204.41,60.961 42.178,37.713 69.521,84.53 78.664,140.662 16.016,98.288 -16.034,179.043 -93.249,240.953 z M 1194.978,2653.478 c -2.112,-121.814 97.903,-247.358 248.896,-247.852 146.908,-0.481 250.872,118.039 250.283,251.463 -0.575,130.588 -105.443,248.47 -250.509,248.229 -146.15,-0.243 -252.213,-124.244 -248.67,-251.84 z" /><path
     style="clip-rule:evenodd;fill:#ffffff;fill-rule:evenodd"
     inkscape:connector-curvature="0"
     id="path28"
     d="m 3333.137,660.254 c 5.6,4.278 8.918,9.838 9.535,16.922 -5.217,-4.492 -8.822,-9.89 -9.535,-16.922 z" /><path
     style="clip-rule:evenodd;fill:#ffffff;fill-rule:evenodd"
     inkscape:connector-curvature="0"
     id="path30"
     d="m 3246.711,3702.283 c -0.199,-13.214 -0.627,-13.481 -14.406,-13.952 -4.424,-0.146 -8.857,-0.045 -13.283,-0.045 -77.482,-0.01 -154.961,0 -232.443,0 -3.875,0 -7.756,-0.183 -11.619,0 -8.154,0.381 -12.344,-2.852 -12.195,-11.541 0.27,-16.046 0.162,-32.096 0.088,-48.147 -0.035,-7.457 3.125,-11.395 10.938,-11.087 4.42,0.177 8.855,-0.02 13.283,-0.02 78.586,0 157.174,0 235.764,-0.016 4.98,0 9.957,-0.109 14.938,-0.164 6.207,-0.067 8.922,-3.42 8.9,-9.4 -0.01,-3.322 0.092,-6.645 0.092,-9.962 0.01,-58.112 0.01,-116.222 -0.014,-174.332 0,-3.872 -0.061,-7.751 -0.26,-11.616 -0.234,-4.575 -2.781,-7.053 -7.344,-7.228 -4.424,-0.167 -8.852,-0.197 -13.277,-0.197 -52.025,-0.013 -104.047,-0.01 -156.068,-0.01 -47.596,0 -95.193,0 -142.789,0 -7.746,0 -15.496,-0.17 -23.242,0.048 -12.191,0.336 -12.607,0.871 -13.043,13.563 -0.074,2.209 0,4.427 -0.01,6.64 -0.041,105.153 -0.082,210.305 -0.123,315.454 0,2.217 -0.08,4.437 0.063,6.639 0.695,10.938 1.668,11.937 12.863,12.501 4.416,0.223 8.852,0.064 13.279,0.064 94.082,0 188.17,0 282.256,0.01 11.066,0 22.139,0.273 33.203,0.01 13.596,-0.326 14.211,-0.914 14.434,-14.039 0.241,-14.387 0.228,-28.783 0.011,-43.17 z m -283.859,-210.97 c 0.25,-15.021 0.654,-15.399 16.328,-15.594 14.379,-0.18 28.768,-0.05 43.15,-0.05 43.148,0 86.297,0 129.443,0 3.873,0 7.748,0.158 11.617,0.063 7.447,-0.176 11.205,3.005 11.117,10.823 -0.168,15.481 0.332,30.975 -0.068,46.451 -0.316,12.135 -1.182,12.945 -13.725,13.04 -30.975,0.239 -61.957,0.081 -92.938,0.081 0,0.01 0,0.016 0,0.023 -29.316,0 -58.637,0.098 -87.955,-0.036 -16.535,-0.079 -16.781,-0.39 -16.988,-16.637 -0.161,-12.722 -0.192,-25.448 0.019,-38.167 z" /><path
     style="clip-rule:evenodd;fill:#ffffff;fill-rule:evenodd"
     inkscape:connector-curvature="0"
     id="path32"
     d="m 4951.252,3699.447 c 0.139,-7.753 -3.182,-11.189 -10.752,-11.069 -4.424,0.071 -8.852,-0.092 -13.275,-0.092 -78.559,0 -157.123,0.01 -235.682,0.012 -4.428,0 -8.857,-0.182 -13.277,-0.04 -7.545,0.247 -11.123,-2.987 -10.975,-10.812 0.25,-12.719 -0.01,-25.448 0.02,-38.174 0.049,-21.664 0.074,-21.703 22.08,-21.707 80.775,-0.024 161.549,0.017 242.32,-0.039 19.387,-0.013 19.469,-0.131 19.48,-18.84 0.041,-58.092 0.041,-116.183 0,-174.273 -0.012,-19.775 -0.084,-19.832 -20.354,-19.837 -105.117,-0.019 -210.234,-0.01 -315.352,-0.01 -2.768,0 -5.547,0.206 -8.295,-0.021 -7.887,-0.657 -11.131,3.285 -11.084,10.743 0.014,3.319 -0.074,6.637 -0.074,9.956 -0.01,104.566 -0.01,209.127 0,313.688 0,3.321 0.115,6.644 0.074,9.958 -0.086,7.797 4.01,10.896 11.461,10.57 3.867,-0.169 7.746,0.014 11.619,0.014 51.449,0 102.902,0 154.354,0 52.004,0 104.008,0 156.014,0 3.875,0 7.746,-0.093 11.617,-0.034 6.945,0.097 9.99,-3.438 9.973,-10.204 -0.046,-16.599 -0.193,-33.197 0.108,-49.79 z m -283.805,-211.21 c 0.273,-11.245 1.037,-11.712 12.539,-12.583 1.652,-0.128 3.313,-0.161 4.971,-0.158 59.652,0.054 119.314,0.044 178.967,0.234 15.818,0.051 16.443,0.954 16.498,17.201 0.047,12.703 0.135,25.411 -0.02,38.113 -0.16,13.8 -1.09,14.925 -15.314,15.027 -30.383,0.216 -60.764,0.067 -91.145,0.073 -29.83,0.01 -59.656,0.104 -89.486,-0.029 -16.578,-0.076 -16.928,-0.485 -17.088,-16.45 -0.137,-13.81 -0.254,-27.624 0.078,-41.428 z" /><path
     style="clip-rule:evenodd;fill:#ffffff;fill-rule:evenodd"
     inkscape:connector-curvature="0"
     id="path34"
     d="m 830.69,3424.483 c -0.006,-19.849 -0.098,-19.902 -20.405,-19.907 -104.629,-0.017 -209.258,-0.01 -313.889,-0.01 -2.215,0 -4.432,-0.058 -6.642,0.022 -12.735,0.456 -13.292,0.764 -13.671,13.062 -0.354,11.616 -0.174,23.245 -0.159,34.875 0.031,22.986 0.051,23.075 22.417,23.084 72.521,0.044 145.042,0.015 217.563,0.021 10.516,0 21.033,0.183 31.546,0.015 7.917,-0.125 12.534,2.311 12.308,11.381 -0.398,16.039 -0.234,32.102 -0.074,48.147 0.077,7.7 -3.481,11.14 -11.04,10.958 -4.426,-0.109 -8.856,0.049 -13.287,0.049 -78.609,0 -157.219,0 -235.831,0.012 -4.98,0 -9.965,0.041 -14.938,0.272 -5.105,0.238 -8.276,2.679 -8.355,8.172 -0.056,3.875 -0.185,7.751 -0.188,11.625 -0.05,58.126 -0.086,116.253 -0.122,174.382 0,2.213 0.149,4.433 0.037,6.641 -0.417,8.118 2.786,12.641 11.516,12.174 3.862,-0.205 7.748,0.018 11.624,0.018 51.483,0 102.966,0 154.451,0 51.484,0 102.967,0 154.453,0 4.428,0 8.858,-0.033 13.284,-0.117 6.09,-0.119 9.015,-3.48 9.269,-9.36 0.142,-3.317 0.146,-6.643 0.146,-9.961 0.008,-105.185 0.022,-210.368 -0.013,-315.551 z m -71.037,248.086 c -0.168,14.938 -0.682,15.436 -16.275,15.672 -11.614,0.175 -23.232,0.051 -34.849,0.051 -48.128,0 -96.256,0.064 -144.384,-0.047 -17.51,-0.041 -17.613,-0.254 -17.8,-17.625 -0.139,-12.719 -0.205,-25.451 0.063,-38.17 0.295,-13.849 1.202,-14.793 15.534,-14.875 30.423,-0.172 60.85,-0.056 91.275,-0.058 30.426,0 60.854,-0.122 91.278,0.052 14.07,0.077 14.967,1.104 15.15,15.17 0.171,13.279 0.157,26.556 0.008,39.83 z" /><path
     style="clip-rule:evenodd;fill:#ffffff;fill-rule:evenodd"
     inkscape:connector-curvature="0"
     id="path36"
     d="m 2393.099,3738.362 c 10e-4,-104.061 0,-208.122 -0.01,-312.184 0,-4.423 -0.082,-8.854 -0.31,-13.269 -0.272,-5.255 -3.08,-8.085 -8.439,-8.171 -4.426,-0.068 -8.854,-0.163 -13.279,-0.165 -51.477,-0.011 -102.953,-0.01 -154.429,-0.01 -53.14,0 -106.275,-0.021 -159.414,0.01 -18.985,0.014 -18.995,0.071 -19.04,19.608 -0.018,8.305 -0.069,16.609 0.026,24.912 0.312,27.087 -3.883,26.543 27.35,26.539 76.386,-0.011 152.77,-0.01 229.154,-0.01 3.875,0 7.751,-0.06 11.624,0.023 15.627,0.343 16.027,0.633 16.301,15.68 0.201,11.065 0.108,22.14 0.054,33.21 -0.107,21.585 -0.134,21.625 -22.008,21.633 -81.367,0.02 -162.732,-0.029 -244.098,0.045 -17.754,0.012 -18.383,0.52 -18.412,17.108 -0.103,60.334 0,120.667 0.02,181.001 10e-4,1.661 0.074,3.32 0.057,4.979 -0.068,6.868 3.356,10.146 10.178,10.088 4.429,-0.038 8.857,0.072 13.283,0.072 102.953,0.01 205.908,0.01 308.862,0.01 3.321,0 6.65,0.135 9.961,-0.049 11.174,-0.613 11.847,-1.317 12.498,-12.762 0.158,-2.757 0.069,-5.532 0.071,-8.3 z m -70.517,-64.117 c -0.204,12.897 -1.041,13.852 -14.598,13.953 -30.438,0.225 -60.877,0.07 -91.314,0.073 -30.438,0 -60.879,0.139 -91.316,-0.055 -15.368,-0.095 -15.72,-0.594 -15.922,-15.985 -0.174,-13.279 -0.219,-26.565 0.023,-39.846 0.257,-14.048 0.908,-14.764 15.428,-14.811 43.167,-0.141 86.334,-0.062 129.503,-0.062 18.262,0 36.529,-0.188 54.789,0.089 12.265,0.188 13.103,1.071 13.36,13.479 0.3,14.387 0.273,28.78 0.047,43.165 z" /><path
     style="clip-rule:evenodd;fill:#ffffff;fill-rule:evenodd"
     inkscape:connector-curvature="0"
     id="path38"
     d="m 3246.773,4096.177 c 0,-82.417 0,-164.837 -0.014,-247.254 0,-3.874 -0.063,-7.745 -0.24,-11.611 -0.211,-4.589 -2.75,-7.041 -7.305,-7.256 -3.316,-0.153 -6.635,-0.141 -9.951,-0.141 -106.205,-0.041 -212.412,-0.098 -318.615,-0.092 -19.879,0 -20.004,0.107 -20.021,20.072 -0.055,76.332 -0.02,152.668 -0.027,229 0,74.123 -0.01,148.243 0,222.365 0,4.979 0.244,9.963 0.088,14.936 -0.223,7.352 2.541,11.498 10.516,11.43 17.145,-0.152 34.295,-0.086 51.443,-0.066 6.963,0.01 9.947,-3.744 10.016,-10.352 0.043,-4.428 0.09,-8.85 0.09,-13.277 0.01,-55.314 0,-110.631 0.012,-165.944 0,-4.425 0.156,-8.851 0.098,-13.272 -0.094,-7.002 3.4,-9.996 10.248,-9.75 4.42,0.162 8.846,-0.027 13.273,-0.027 79.104,-0.01 158.201,0 237.303,-0.01 4.424,0 8.848,-0.075 13.275,-0.104 6.871,-0.04 10.047,-3.512 9.764,-10.352 -0.117,-2.759 0.047,-5.529 0.047,-8.297 z m -72.32,-69.085 c -0.066,15.104 -0.424,15.372 -16.207,15.392 -59.68,0.086 -119.367,0.086 -179.047,0 -15.824,-0.019 -16.254,-0.333 -16.328,-15.314 -0.176,-36.476 -0.18,-72.948 0.016,-109.422 0.082,-15.078 0.428,-15.253 16.281,-15.311 29.842,-0.112 59.686,-0.03 89.525,-0.03 29.844,0 59.686,-0.078 89.527,0.03 15.922,0.058 16.17,0.2 16.232,15.242 0.153,36.465 0.165,72.942 10e-4,109.41 z" /><path
     style="clip-rule:evenodd;fill:#ffffff;fill-rule:evenodd"
     inkscape:connector-curvature="0"
     id="path40"
     d="m 1541.41,3427.763 c 0,-3.871 -0.21,-7.753 -0.027,-11.616 0.406,-8.481 -3.502,-11.843 -11.946,-11.658 -15.483,0.349 -30.984,-0.106 -46.469,0.161 -11.342,0.201 -11.711,0.748 -12.243,12.612 -0.274,6.076 -0.078,12.167 -0.096,18.256 -0.105,32.085 -0.03,64.175 -0.402,96.257 -0.152,13.178 -1.196,13.827 -14.379,14.354 -4.418,0.176 -8.851,0.054 -13.276,0.054 -77.453,0 -154.908,0 -232.36,0.01 -4.979,0 -9.957,0.115 -14.934,0.165 -6.194,0.061 -8.941,3.339 -8.863,9.366 0.041,3.319 -0.093,6.638 -0.093,9.956 -0.01,58.089 -0.032,116.181 0.011,174.271 0.012,19.406 0.091,19.494 18.944,19.511 53.112,0.048 106.223,0.018 159.332,0.018 7.195,0 14.385,0 21.579,0 45.364,0 90.73,0.04 136.097,-0.02 19.006,-0.025 19.006,-0.12 19.128,-19.668 0,-1.105 10e-4,-2.209 10e-4,-3.317 -10e-4,-102.904 -10e-4,-205.807 0,-308.709 z m -71.18,247.196 c -0.208,12.184 -0.959,13.112 -13.48,13.214 -30.981,0.254 -61.963,0.085 -92.946,0.099 -29.877,0.01 -59.754,0.11 -89.628,-0.03 -16.601,-0.078 -17.057,-0.668 -17.129,-16.61 -0.06,-12.726 -0.085,-25.448 0.017,-38.175 0.115,-14.583 1.226,-15.854 16.313,-15.887 50.347,-0.125 100.692,-0.056 151.039,-0.052 11.618,0 23.239,0.173 34.854,0 7.64,-0.106 11.183,3.363 11.129,10.967 -0.111,15.49 0.098,30.985 -0.169,46.472 z" /></g>
</g>
</svg>