<svg xmlns="http://www.w3.org/2000/svg" width="512mm" height="300mm" viewBox="0 0 512 299.99999"><g stroke-width=".894"><g word-spacing="0"><g fill="#fff" font-weight="400" font-family="Montserrat" letter-spacing="0"><path style="line-height:1.25;-inkscape-font-specification:Montserrat" d="M348.739 178.178h40.32v-5.538h-33.917v-55.03h-6.403zM473.33 132.32c-7.268 0-13.498 3.114-17.305 8.998v-27.342h-6.143v64.202h5.884v-8.999c3.72 6.144 10.036 9.432 17.564 9.432 12.98 0 22.67-9.432 22.67-23.19 0-13.757-9.69-23.102-22.67-23.102zm-.432 40.84c-9.691 0-16.96-7.096-16.96-17.738 0-10.643 7.269-17.738 16.96-17.738 9.604 0 16.959 7.095 16.959 17.738 0 10.642-7.355 17.738-16.96 17.738zM418.477 178.61c13.325 0 23.103-9.69 23.103-23.188s-9.778-23.103-23.103-23.103c-13.325 0-23.189 9.605-23.189 23.103 0 13.498 9.864 23.189 23.19 23.189zm0-5.45c-9.69 0-16.959-7.096-16.959-17.738 0-10.643 7.268-17.738 16.96-17.738 9.69 0 16.872 7.095 16.872 17.738 0 10.642-7.182 17.738-16.873 17.738z"/><path d="M436.007 178.178h6.143v-45.613h-6.143z" style="line-height:1.25;-inkscape-font-specification:Montserrat"/></g><g fill="#ff7825"><path style="line-height:1.25;-inkscape-font-specification:'Montserrat Medium'" d="M148.959 178.87c9.431 0 17.564-3.288 23.102-9.518l-5.624-5.45c-4.672 4.931-10.383 7.267-17.046 7.267-13.67 0-23.794-9.863-23.794-23.275 0-13.411 10.123-23.275 23.794-23.275 6.663 0 12.374 2.25 17.046 7.181l5.624-5.45c-5.538-6.23-13.671-9.432-23.016-9.432-18.43 0-32.1 13.065-32.1 30.976 0 17.91 13.67 30.976 32.014 30.976zM204.841 178.697c13.758 0 23.795-9.777 23.795-23.448 0-13.671-10.037-23.362-23.795-23.362-13.757 0-23.88 9.69-23.88 23.362 0 13.67 10.123 23.448 23.88 23.448zm0-7.268c-8.825 0-15.488-6.403-15.488-16.18 0-9.778 6.663-16.094 15.488-16.094 8.826 0 15.402 6.316 15.402 16.094 0 9.777-6.576 16.18-15.402 16.18z" font-weight="500" font-family="Montserrat" letter-spacing="0"/><path style="line-height:1.25" d="M275.08 113.976v25.265c-3.807-4.931-9.518-7.354-16.007-7.354-13.412 0-23.189 9.345-23.189 23.362 0 14.017 9.777 23.448 23.189 23.448 6.749 0 12.633-2.596 16.353-7.787v7.268h7.96v-64.202zm-15.315 57.453c-8.826 0-15.488-6.403-15.488-16.18 0-9.778 6.662-16.094 15.488-16.094 8.74 0 15.402 6.316 15.402 16.094 0 9.777-6.663 16.18-15.402 16.18z" font-weight="400" font-family="sans-serif" letter-spacing="-.519"/><path style="line-height:1.25" d="M336.31 155.508c0-14.103-9.432-23.621-22.67-23.621-13.239 0-23.016 9.777-23.016 23.362 0 13.67 9.864 23.448 24.66 23.448 7.614 0 13.93-2.596 18.083-7.441l-4.585-5.365c-3.375 3.721-7.874 5.538-13.239 5.538-9.085 0-15.575-5.365-16.613-13.411h37.206c.087-.779.173-1.817.173-2.51zm-22.67-16.613c8.046 0 13.844 5.452 14.709 13.152H298.93c.865-7.787 6.75-13.152 14.71-13.152z" font-weight="400" font-family="sans-serif" letter-spacing=".265"/></g></g><g stroke-width=".896"><path d="M79.51 147.125c0-7.736-7.739-11.47-27.603 0-19.865 11.469 6.25 14.625 13 14.82 6.75.196 14.603-7.085 14.603-14.82z" fill="#d4d4d4"/><path d="M37.492 147.125v38.905c0 22.678 42.018 23.024 42.018 0v-38.905c-8.933 6.938-21.096 6.676-27.493 0-6.398-6.676-14.525-14.639-14.525 0z" fill="#fff"/><ellipse cx="42.397" cy="234.455" rx="4.861" ry="4.361" transform="matrix(1.24287 0 0 1.31025 -3.5 -177.274)" fill="#fff"/><ellipse cx="42.397" cy="234.455" rx="4.861" ry="4.361" transform="matrix(1.07818 0 0 1.12668 23.707 -147.476)" fill="#d4d4d4"/><g transform="matrix(.80863 0 0 .93139 20.765 -112.946)" fill="#c8c8c8"><ellipse cx="42.397" cy="234.455" rx="4.861" ry="4.361"/><text transform="scale(1.07322 .93177)" y="293.867" x="-11.202" style="line-height:1.25" font-weight="400" font-size="15.979" font-family="sans-serif" letter-spacing="0" word-spacing="0" stroke-width=".358"/></g><g style="line-height:1.25"><path style="-inkscape-font-specification:'Cooper Hewitt'" d="M26.326 109.623v26.416c-1.466 8.73-5.03 8.963-10.326 12.944 5.765 1.451 10.326 7.348 10.326 16.113v26.415c1.607 12.774 16.864 18.928 24.553 13.685-7.084 0-16.148-7.441-16.148-17.287v-26.361c0-6.484-2.522-10.326-6.484-12.368 3.962-1.92 6.484-5.763 6.484-12.367v-23.588c0-6.217 2.452-16.126 11.668-20.291-8.907-.102-19.918 6.547-20.073 16.69z" font-family="Cooper Hewitt" font-weight="400" font-size="10.583" letter-spacing="0" word-spacing="0" fill="#fff" stroke-width=".237"/></g><g style="line-height:1.25"><path style="-inkscape-font-specification:'Cooper Hewitt'" d="M89.07 188.63v-29.189c1.467-8.73 5.032-8.963 10.327-12.944-5.765-1.451-10.326-7.348-10.326-16.113v-20.868c.082-8.685-9.561-15.774-19.007-15.765 7.327 3.53 11.989 7.441 11.989 17.287v22.894c0 6.484 2.521 10.326 6.483 12.368-3.962 1.92-6.483 5.763-6.483 12.367v27.748c0 9.278-4.969 16.583-13.55 17.811 12.065 2.598 20.464-6.218 20.568-15.596z" font-family="Cooper Hewitt" font-weight="400" font-size="10.583" letter-spacing="0" word-spacing="0" fill="#fff" stroke-width=".237"/></g></g></g></svg>