<svg xmlns="http://www.w3.org/2000/svg" width="512mm" height="300mm" viewBox="0 0 512 300.00001"><g stroke-width=".894"><g word-spacing="0"><g font-weight="400" font-family="Montserrat" letter-spacing="0"><path style="line-height:1.25;-inkscape-font-specification:Montserrat" d="M360.585 177.568h39.458v-5.42h-33.192v-53.852h-6.266zM473.815 132.69c-7.112 0-13.209 3.049-16.934 8.807V114.74h-6.012v62.828h5.758v-8.806c3.64 6.012 9.822 9.23 17.188 9.23 12.702 0 22.185-9.23 22.185-22.693 0-13.463-9.483-22.608-22.185-22.608zm-.423 39.967c-9.483 0-16.596-6.943-16.596-17.358 0-10.415 7.113-17.359 16.596-17.359 9.399 0 16.596 6.944 16.596 17.359 0 10.415-7.197 17.358-16.596 17.358zM421.265 177.991c13.04 0 22.608-9.483 22.608-22.692 0-13.21-9.568-22.608-22.608-22.608-13.04 0-22.692 9.399-22.692 22.608 0 13.209 9.652 22.692 22.692 22.692zm0-5.334c-9.483 0-16.596-6.943-16.596-17.358 0-10.415 7.113-17.359 16.596-17.359 9.484 0 16.512 6.944 16.512 17.359 0 10.415-7.028 17.358-16.512 17.358z"/><path d="M438.42 177.568h6.011V132.93h-6.012z" style="line-height:1.25;-inkscape-font-specification:Montserrat"/></g><g fill="#ff7825"><path style="line-height:1.25;-inkscape-font-specification:'Montserrat Medium'" d="M165.081 178.245c9.23 0 17.19-3.217 22.608-9.314l-5.503-5.334c-4.573 4.826-10.161 7.112-16.681 7.112-13.379 0-23.285-9.652-23.285-22.777 0-13.124 9.906-22.777 23.285-22.777 6.52 0 12.108 2.201 16.68 7.028l5.504-5.335c-5.419-6.096-13.378-9.23-22.523-9.23-18.035 0-31.414 12.787-31.414 30.314 0 17.528 13.379 30.313 31.33 30.313zM215.985 178.076c13.463 0 23.285-9.568 23.285-22.947 0-13.378-9.822-22.862-23.285-22.862-13.463 0-23.37 9.484-23.37 22.862 0 13.379 9.907 22.947 23.37 22.947zm0-7.113c-8.637 0-15.157-6.266-15.157-15.834s6.52-15.749 15.157-15.749 15.072 6.181 15.072 15.75c0 9.567-6.435 15.833-15.072 15.833z" font-weight="500" font-family="Montserrat" letter-spacing="0"/><path style="line-height:1.25" d="M284.72 114.74v24.725c-3.725-4.827-9.314-7.198-15.664-7.198-13.125 0-22.693 9.145-22.693 22.862 0 13.718 9.568 22.947 22.693 22.947 6.604 0 12.362-2.54 16.003-7.62v7.112h7.79V114.74zm-14.987 56.223c-8.637 0-15.157-6.266-15.157-15.834s6.52-15.749 15.157-15.749c8.552 0 15.072 6.181 15.072 15.75 0 9.567-6.52 15.833-15.072 15.833z" font-weight="400" font-family="sans-serif" letter-spacing="-.519"/><path style="line-height:1.25" d="M344.639 155.383c0-13.802-9.23-23.116-22.185-23.116-12.955 0-22.523 9.569-22.523 22.862 0 13.379 9.653 22.947 24.132 22.947 7.452 0 13.633-2.54 17.697-7.282l-4.488-5.25c-3.302 3.641-7.705 5.42-12.955 5.42-8.89 0-15.241-5.25-16.257-13.125h36.41c.084-.762.169-1.778.169-2.456zm-22.185-16.257c7.875 0 13.548 5.334 14.395 12.87h-28.79c.848-7.62 6.605-12.87 14.395-12.87z" font-weight="400" font-family="sans-serif" letter-spacing=".265"/></g></g><path d="M78.306 147.18c0-7.59-7.592-11.252-27.08 0-19.488 11.25 6.132 14.347 12.754 14.539 6.623.192 14.326-6.951 14.326-14.54z" fill="#ffa46d"/><path d="M37.085 147.18v38.167c0 22.249 41.221 22.588 41.221 0V147.18c-8.763 6.807-20.695 6.55-26.972 0-6.276-6.55-14.25-14.36-14.25 0z" fill="#ff7825"/><ellipse ry="4.361" rx="4.861" cy="234.455" cx="42.397" transform="matrix(1.21932 0 0 1.28543 -3.13 -171.073)" fill="#ff8b46"/><ellipse ry="4.361" rx="4.861" cy="234.455" cx="42.397" transform="matrix(1.05775 0 0 1.10533 23.56 -141.84)" fill="#ffa46d"/><g transform="matrix(.79331 0 0 .91374 20.675 -107.964)" fill="#ffa46d"><ellipse ry="4.361" rx="4.861" cy="234.455" cx="42.397"/><text style="line-height:1.25" x="-11.202" y="293.867" transform="scale(1.07322 .93177)" font-weight="400" font-size="15.979" font-family="sans-serif" letter-spacing="0" word-spacing="0" stroke-width=".357"/></g><g style="line-height:1.25"><path d="M26.13 110.388v25.915c-1.438 8.566-4.935 8.794-10.13 12.699 5.655 1.424 10.13 7.209 10.13 15.808v25.915c1.577 12.531 16.545 18.569 24.088 13.425-6.95 0-15.842-7.3-15.842-16.96V161.33c0-6.361-2.474-10.13-6.36-12.133 3.886-1.885 6.36-5.654 6.36-12.133v-23.14c0-6.1 2.406-15.821 11.447-19.908-8.738-.1-19.54 6.423-19.693 16.373z" style="-inkscape-font-specification:'Cooper Hewitt'" font-family="Cooper Hewitt" font-weight="400" font-size="10.583" letter-spacing="0" word-spacing="0" stroke-width=".236"/></g><g style="line-height:1.25"><path d="M87.686 187.898v-28.636c1.439-8.565 4.936-8.793 10.13-12.698-5.655-1.424-10.13-7.209-10.13-15.808v-20.473c.08-8.52-9.38-15.475-18.646-15.467 7.188 3.463 11.761 7.3 11.761 16.96v22.46c0 6.362 2.474 10.131 6.361 12.134-3.887 1.884-6.36 5.654-6.36 12.133v27.222c0 9.102-4.875 16.269-13.294 17.474 11.837 2.548 20.076-6.1 20.178-15.3z" style="-inkscape-font-specification:'Cooper Hewitt'" font-family="Cooper Hewitt" font-weight="400" font-size="10.583" letter-spacing="0" word-spacing="0" stroke-width=".236"/></g></g></svg>