<svg xmlns="http://www.w3.org/2000/svg" viewBox="0 0 512.001 512.001" width="512" height="512"><path data-original="#0E6A8E" data-old_color="#e13566" fill="#e13566" d="M305.544 7.604h149.535L330.767 166.256H181.233z"/><path data-original="#E52E40" data-old_color="#e13566" fill="#e13566" d="M305.544 7.604h63.198L244.43 166.256h-63.197z"/><path data-original="#EAEAE4" class="active-path" data-old_color="#20b5de" fill="#20b5de" d="M353.879 7.604h52.866L282.434 166.256h-52.866z"/><circle cx="256" cy="349.519" r="154.877" data-original="#F9AC30" data-old_color="#7E4425" fill="#7f4526"/><path d="M181.235 213.857v-47.601h149.534v47.601l25.347 17.489v-77.763c0-6.996-5.667-12.673-12.673-12.673H168.562c-6.996 0-12.673 5.678-12.673 12.673v77.773l25.346-17.499z" data-original="#F9AC30" data-old_color="#7E4425" fill="#7f4526"/><circle cx="256" cy="349.519" r="115.945" data-original="#DD8D19" data-old_color="#965a38" fill="#965a38"/><path data-original="#E52E40" data-old_color="#e13566" fill="#e13566" d="M206.458 7.604H56.923l124.312 158.652h149.534z"/><path data-original="#0E6A8E" data-old_color="#e13566" fill="#e13566" d="M206.458 7.604h-63.196l124.311 158.652h63.196z"/><path data-original="#EAEAE4" class="active-path" data-old_color="#20b5de" fill="#20b5de" d="M158.124 7.604h-52.866L229.57 166.256h52.866z"/><path d="M285.829 381.37v-4.24c0-17.852-10.935-24.325-27.225-24.325-5.578 0-7.587-4.686-7.587-9.372 0-4.91 2.008-9.596 7.587-9.596 13.612 0 23.208-4.24 23.208-24.548 0-16.291-7.811-22.985-22.315-22.985-18.076 0-23.209 9.149-23.209 18.299 0 5.802-2.678 9.596-11.158 9.596-10.488 0-12.274-2.456-12.274-10.936 0-14.505 10.042-37.714 46.864-37.714 26.109 0 44.855 10.265 44.855 39.723 0 18.522-7.142 32.134-17.852 37.268 13.166 5.133 22.762 15.622 22.762 34.59v4.24c0 35.482-22.762 48.648-50.881 48.648-34.812 0-49.318-21.647-49.318-39.275 0-7.811 2.901-10.042 10.934-10.042 9.819 0 12.274 2.901 12.274 8.927 0 9.819 8.257 19.414 26.333 19.414 18.299 0 27.002-8.257 27.002-27.672z" data-original="#000000"/><path d="M460.97 2.796C459.497.971 457.204.003 454.858.003H305.541a7.604 7.604 0 0 0-5.985 2.914l-43.555 55.591-43.557-55.591a7.605 7.605 0 0 0-5.985-2.914h-48.283c-.017 0-.034-.003-.052-.003h-52.866c-.014 0-.027.003-.042.003H57.142c-2.345 0-4.638.969-6.112 2.793a7.612 7.612 0 0 0-.092 9.501l101.294 129.275a20.247 20.247 0 0 0-3.949 12.011v74.413c-34.507 30.623-55.937 75.672-54.707 125.6 2.171 88.153 75.197 158.898 163.376 158.401 48.006-.271 92.432-21.147 123.201-57.645 2.803-3.324 2.267-8.319-1.187-10.961-3.205-2.451-7.788-1.99-10.388 1.095-28.968 34.39-71.3 53.494-116.755 52.248-77.701-2.13-140.786-65.186-143.027-142.884-2.399-83.174 64.564-151.602 147.209-151.602 81.206 0 147.272 66.065 147.272 147.271 0 23.447-5.585 46.541-16.21 67.236-1.843 3.59-.52 7.995 2.975 10.014l.001.001c3.779 2.183 8.602.736 10.592-3.146 11.699-22.819 17.849-48.272 17.849-74.104 0-48.304-21.196-91.743-54.767-121.531v-74.406c0-4.49-1.484-8.63-3.964-11.993L461.061 12.299a7.614 7.614 0 0 0-.091-9.503zM309.244 15.211h29.021l-11.896 15.182a7.604 7.604 0 0 0 1.295 10.673l.002.002a7.604 7.604 0 0 0 10.674-1.295l19.245-24.561h33.543l-84.524 107.879-16.775-21.41 26.03-33.219a7.604 7.604 0 0 0-1.295-10.673l-.002-.002a7.603 7.603 0 0 0-10.673 1.295L280.17 89.353l-14.507-18.514 43.581-55.628zm5.905 143.441h-29.011L173.743 15.211h29.012l112.394 143.441zM120.878 15.211h33.546l112.394 143.441H233.27L120.878 15.211zm-19.319 0l112.393 143.441h-29.016L72.541 15.211h29.018zm61.931 140.73l10.139 12.94v40.643a163.474 163.474 0 0 0-10.139 6.506v-60.089zm25.347 45.645v-27.725h134.327v27.721c-20.48-9.335-43.223-14.541-67.159-14.541-23.94-.001-46.685 5.208-67.168 14.545zm149.535 7.933v-43.262c0-.271-.015-.537-.043-.801l-.002-.014a7.564 7.564 0 0 0-.216-1.132 7.523 7.523 0 0 0-.264-.815c-.014-.035-.024-.071-.039-.105a7.786 7.786 0 0 0-.426-.876c-.028-.05-.06-.098-.089-.147a7.96 7.96 0 0 0-.47-.698c-.025-.033-.044-.07-.07-.103l-10.227-13.052h16.915a5.075 5.075 0 0 1 5.069 5.069v62.441a162.513 162.513 0 0 0-10.138-6.505zm8.328-75.927a20.358 20.358 0 0 0-3.26-.287h-25.52L410.448 15.21h29.011L346.7 133.592z" data-original="#000000"/><path d="M256.004 225.975c-68.122 0-123.545 55.423-123.545 123.545s55.423 123.545 123.545 123.545 123.545-55.423 123.545-123.545-55.421-123.545-123.545-123.545zm0 231.883c-59.738 0-108.337-48.6-108.337-108.337s48.6-108.337 108.337-108.337 108.337 48.6 108.337 108.337-48.599 108.337-108.337 108.337z" data-original="#000000"/><g><path d="M285.829 381.37v-4.24c0-17.852-10.935-24.325-27.225-24.325-5.578 0-7.587-4.686-7.587-9.372 0-4.91 2.008-9.596 7.587-9.596 13.612 0 23.208-4.24 23.208-24.548 0-16.291-7.811-22.985-22.315-22.985-18.076 0-23.209 9.149-23.209 18.299 0 5.802-2.678 9.596-11.158 9.596-10.488 0-12.274-2.456-12.274-10.936 0-14.505 10.042-37.714 46.864-37.714 26.109 0 44.855 10.265 44.855 39.723 0 18.522-7.142 32.134-17.852 37.268 13.166 5.133 22.762 15.622 22.762 34.59v4.24c0 35.482-22.762 48.648-50.881 48.648-34.812 0-49.318-21.647-49.318-39.275 0-7.811 2.901-10.042 10.934-10.042 9.819 0 12.274 2.901 12.274 8.927 0 9.819 8.257 19.414 26.333 19.414 18.299 0 27.002-8.257 27.002-27.672z" data-original="#000000"/></g></svg>