<?xml version="1.0"?>
<svg xmlns="http://www.w3.org/2000/svg" xmlns:xlink="http://www.w3.org/1999/xlink" version="1.1" id="Capa_1" x="0px" y="0px" viewBox="0 0 512.001 512.001" style="enable-background:new 0 0 512.001 512.001;" xml:space="preserve" width="512px" height="512px" class=""><g><polygon style="fill:#E13566" points="305.544,7.604 455.079,7.604 330.767,166.256 181.233,166.256 " data-original="#0E6A8E" class="" data-old_color="#e13566"/><polygon style="fill:#E13566" points="305.544,7.604 368.742,7.604 244.43,166.256 181.233,166.256 " data-original="#E52E40" class="" data-old_color="#e13566"/><polygon style="fill:#20b5de" points="353.879,7.604 406.745,7.604 282.434,166.256 229.568,166.256 " data-original="#EAEAE4" class="active-path" data-old_color="#20b5de"/><g>
	<circle style="fill:#7F4526" cx="256" cy="349.519" r="154.877" data-original="#F9AC30" class="" data-old_color="#7E4425"/>
	<path style="fill:#7F4526" d="M181.235,213.857v-47.601h149.534v47.601l25.347,17.489v-77.763c0-6.996-5.667-12.673-12.673-12.673   H168.562c-6.996,0-12.673,5.678-12.673,12.673v77.773L181.235,213.857z" data-original="#F9AC30" class="" data-old_color="#7E4425"/>
</g><circle style="fill:#965A38" cx="256" cy="349.519" r="115.945" data-original="#DD8D19" class="" data-old_color="#965a38"/><polygon style="fill:#E13566" points="206.458,7.604 56.923,7.604 181.235,166.256 330.769,166.256 " data-original="#E52E40" class="" data-old_color="#e13566"/><polygon style="fill:#E13566" points="206.458,7.604 143.262,7.604 267.573,166.256 330.769,166.256 " data-original="#0E6A8E" class="" data-old_color="#e13566"/><polygon style="fill:#20b5de" points="158.124,7.604 105.258,7.604 229.57,166.256 282.436,166.256 " data-original="#EAEAE4" class="active-path" data-old_color="#20b5de"/><path id="SVGCleanerId_0" d="M285.829,381.37v-4.24c0-17.852-10.935-24.325-27.225-24.325c-5.578,0-7.587-4.686-7.587-9.372  c0-4.91,2.008-9.596,7.587-9.596c13.612,0,23.208-4.24,23.208-24.548c0-16.291-7.811-22.985-22.315-22.985  c-18.076,0-23.209,9.149-23.209,18.299c0,5.802-2.678,9.596-11.158,9.596c-10.488,0-12.274-2.456-12.274-10.936  c0-14.505,10.042-37.714,46.864-37.714c26.109,0,44.855,10.265,44.855,39.723c0,18.522-7.142,32.134-17.852,37.268  c13.166,5.133,22.762,15.622,22.762,34.59v4.24c0,35.482-22.762,48.648-50.881,48.648c-34.812,0-49.318-21.647-49.318-39.275  c0-7.811,2.901-10.042,10.934-10.042c9.819,0,12.274,2.901,12.274,8.927c0,9.819,8.257,19.414,26.333,19.414  C277.126,409.042,285.829,400.785,285.829,381.37z" data-original="#000000" class=""/><path d="M460.97,2.796c-1.473-1.825-3.766-2.793-6.112-2.793h-48.112h-52.863h-48.342c-2.337,0-4.544,1.075-5.985,2.914  l-43.555,55.591L212.444,2.917c-1.441-1.839-3.649-2.914-5.985-2.914h-48.283c-0.017,0-0.034-0.003-0.052-0.003h-52.866  c-0.014,0-0.027,0.003-0.042,0.003H57.142c-2.345,0-4.638,0.969-6.112,2.793c-2.29,2.836-2.241,6.758-0.092,9.501l101.294,129.275  c-2.517,3.422-3.949,7.603-3.949,12.011v74.413c-34.507,30.623-55.937,75.672-54.707,125.6  c2.171,88.153,75.197,158.898,163.376,158.401c48.006-0.271,92.432-21.147,123.201-57.645c2.803-3.324,2.267-8.319-1.187-10.961l0,0  c-3.205-2.451-7.788-1.99-10.388,1.095c-28.968,34.39-71.3,53.494-116.755,52.248c-77.701-2.13-140.786-65.186-143.027-142.884  c-2.399-83.174,64.564-151.602,147.209-151.602c81.206,0,147.272,66.065,147.272,147.271c0,23.447-5.585,46.541-16.21,67.236  c-1.843,3.59-0.52,7.995,2.975,10.014l0.001,0.001c3.779,2.183,8.602,0.736,10.592-3.146c11.699-22.819,17.849-48.272,17.849-74.104  c0-48.304-21.196-91.743-54.767-121.531v-74.406c0-4.49-1.484-8.63-3.964-11.993L461.061,12.299  C463.21,9.555,463.261,5.632,460.97,2.796z M309.244,15.211h29.021l-11.896,15.182c-2.589,3.305-2.009,8.084,1.295,10.673  l0.002,0.002c3.305,2.589,8.083,2.01,10.674-1.295l19.245-24.561h33.543l-84.524,107.879l-16.775-21.41l26.03-33.219  c2.589-3.305,2.009-8.084-1.295-10.673l-0.002-0.002c-3.305-2.589-8.083-2.01-10.673,1.295L280.17,89.353l-14.507-18.514  L309.244,15.211z M315.149,158.652h-20.221h-8.79L173.743,15.211h29.012L315.149,158.652z M120.878,15.211h33.546l112.394,143.441  H233.27L120.878,15.211z M101.559,15.211l112.393,143.441h-29.016L72.541,15.211H101.559z M163.49,155.941l10.139,12.94v40.643  c-3.464,2.047-6.846,4.217-10.139,6.506V155.941z M188.837,201.586v-27.725h134.327v27.721  c-20.48-9.335-43.223-14.541-67.159-14.541C232.065,187.04,209.32,192.249,188.837,201.586z M338.372,209.519v-43.262  c0-0.271-0.015-0.537-0.043-0.801c0-0.004-0.001-0.009-0.002-0.014c-0.033-0.317-0.093-0.627-0.164-0.932  c-0.016-0.067-0.033-0.133-0.052-0.2c-0.074-0.278-0.16-0.55-0.264-0.815c-0.014-0.035-0.024-0.071-0.039-0.105  c-0.124-0.303-0.267-0.594-0.426-0.876c-0.028-0.05-0.06-0.098-0.089-0.147c-0.144-0.241-0.301-0.473-0.47-0.698  c-0.025-0.033-0.044-0.07-0.07-0.103l-10.227-13.052h16.915c2.795,0,5.069,2.274,5.069,5.069v62.441  C345.217,213.735,341.836,211.564,338.372,209.519z M346.7,133.592c-1.064-0.172-2.147-0.287-3.26-0.287H317.92l92.528-118.095  h29.011L346.7,133.592z" data-original="#000000" class=""/><path d="M256.004,225.975c-68.122,0-123.545,55.423-123.545,123.545s55.423,123.545,123.545,123.545s123.545-55.423,123.545-123.545  S324.128,225.975,256.004,225.975z M256.004,457.858c-59.738,0-108.337-48.6-108.337-108.337s48.6-108.337,108.337-108.337  s108.337,48.6,108.337,108.337S315.742,457.858,256.004,457.858z" data-original="#000000" class=""/><g>
	<path id="SVGCleanerId_0_1_" d="M285.829,381.37v-4.24c0-17.852-10.935-24.325-27.225-24.325c-5.578,0-7.587-4.686-7.587-9.372   c0-4.91,2.008-9.596,7.587-9.596c13.612,0,23.208-4.24,23.208-24.548c0-16.291-7.811-22.985-22.315-22.985   c-18.076,0-23.209,9.149-23.209,18.299c0,5.802-2.678,9.596-11.158,9.596c-10.488,0-12.274-2.456-12.274-10.936   c0-14.505,10.042-37.714,46.864-37.714c26.109,0,44.855,10.265,44.855,39.723c0,18.522-7.142,32.134-17.852,37.268   c13.166,5.133,22.762,15.622,22.762,34.59v4.24c0,35.482-22.762,48.648-50.881,48.648c-34.812,0-49.318-21.647-49.318-39.275   c0-7.811,2.901-10.042,10.934-10.042c9.819,0,12.274,2.901,12.274,8.927c0,9.819,8.257,19.414,26.333,19.414   C277.126,409.042,285.829,400.785,285.829,381.37z" data-original="#000000" class=""/>
</g></g> </svg>
