<svg xmlns="http://www.w3.org/2000/svg" viewBox="0 0 512 512" width="512" height="512"><path d="M256 382.356c-35.743 0-64.822 29.079-64.822 64.822S220.257 512 256 512s64.822-29.079 64.822-64.822-29.079-64.822-64.822-64.822zm0 109.246c-24.495 0-44.424-19.927-44.424-44.423 0-24.495 19.928-44.424 44.424-44.424s44.424 19.927 44.424 44.423-19.929 44.424-44.424 44.424zM286.836 0h-61.672c-18.74 0-33.987 15.246-33.987 33.986v273.838c0 18.74 15.246 33.987 33.986 33.987h61.672c18.74 0 33.987-15.247 33.987-33.988V33.986C320.822 15.246 305.576 0 286.836 0zm13.588 307.823c0 7.492-6.095 13.588-13.587 13.588h-61.672c-7.491 0-13.587-6.095-13.587-13.588V33.986c0-7.491 6.095-13.587 13.587-13.587h61.672c7.491 0 13.587 6.095 13.587 13.587v273.837z" data-original="#000000" class="active-path" data-old_color="#ffffff" fill="#fff"/><path d="M233.562 160.128c-5.632 0-10.199 4.567-10.199 10.199v128.51c0 5.632 4.567 10.199 10.199 10.199s10.199-4.567 10.199-10.199v-128.51c0-5.632-4.567-10.199-10.199-10.199zM233.562 121.371c-5.632 0-10.199 4.567-10.199 10.199v8.159c0 5.632 4.567 10.199 10.199 10.199s10.199-4.567 10.199-10.199v-8.159c0-5.632-4.567-10.199-10.199-10.199z" data-original="#000000" class="active-path" data-old_color="#ffffff" fill="#fff"/></svg>