<svg xmlns="http://www.w3.org/2000/svg" viewBox="0 0 512 512" width="512" height="512"><path data-original="#0E6A8E" data-old_color="#e13566" fill="#e13566" d="M305.544 7.604h149.535L330.767 166.256H181.233z"/><path data-original="#E52E40" data-old_color="#e13566" fill="#e13566" d="M305.544 7.604h63.197L244.43 166.256h-63.197z"/><path data-original="#EAEAE4" data-old_color="#e13566" fill="#20b5de" d="M353.879 7.604h52.866L282.433 166.256h-52.865z"/><circle cx="256" cy="349.519" r="154.877" data-original="#F9AC30" data-old_color="#d9a441" fill="#d9a441"/><path d="M181.235 213.857v-47.601h149.534v47.601l25.347 17.489v-77.763c0-6.996-5.667-12.673-12.673-12.673H168.562c-6.996 0-12.673 5.678-12.673 12.673v77.773l25.346-17.499z" data-original="#F9AC30" data-old_color="#d9a441" fill="#d9a441"/><circle cx="256" cy="349.519" r="115.945" data-original="#DD8D19" class="active-path" data-old_color="#EDC16B" fill="#edc16c"/><path data-original="#E52E40" data-old_color="#e13566" fill="#e13566" d="M206.458 7.604H56.923l124.312 158.652h149.534z"/><path data-original="#0E6A8E" data-old_color="#e13566" fill="#e13566" d="M206.458 7.604h-63.196l124.311 158.652h63.196z"/><path data-original="#EAEAE4" data-old_color="#e13566" fill="#20b5de" d="M158.124 7.604h-52.866L229.57 166.256h52.865z"/><path d="M248.773 298.333l-7.811 9.819c-1.562 1.562-3.571 2.232-4.909 2.232-4.687 0-8.034-4.909-8.034-9.596 0-3.347 1.785-7.141 4.687-9.149l23.208-22.316c1.562-1.561 3.348-2.455 6.025-2.455 4.909 0 10.488 2.901 10.488 7.811V422.41c0 5.133-6.025 7.811-11.828 7.811-6.025 0-11.828-2.679-11.828-7.811l.002-124.077z" data-original="#000000"/><path d="M461.913 4.278a7.603 7.603 0 0 0-6.836-4.275H305.542a7.607 7.607 0 0 0-5.986 2.914l-43.555 55.591-43.557-55.591a7.607 7.607 0 0 0-5.986-2.914h-48.282c-.017 0-.034-.003-.052-.003h-52.867c-.014 0-.027.003-.042.003H56.923a7.603 7.603 0 0 0-5.984 12.294l101.294 129.275a20.247 20.247 0 0 0-3.949 12.011v74.413c-33.565 29.787-54.758 73.224-54.758 121.523C93.526 439.111 166.413 512 256.005 512s162.479-72.889 162.479-162.48c0-48.304-21.196-91.744-54.767-121.532v-74.405c0-4.489-1.484-8.629-3.964-11.993L461.062 12.296a7.602 7.602 0 0 0 .851-8.018zm-70.785 10.933l-84.525 107.878-16.775-21.41 67.756-86.469h33.544v.001zm-81.883 0h29.02l-58.096 74.14-14.506-18.514 43.582-55.626zm5.904 143.441H286.139L173.744 15.211h29.012l112.393 143.441zm-59.144 28.388c-23.94 0-46.685 5.208-67.168 14.545V173.86h134.326v27.721c-20.48-9.334-43.222-14.541-67.158-14.541zM101.557 15.211l39.915 50.94a7.605 7.605 0 0 0 10.675 1.296l.001-.001a7.605 7.605 0 0 0 1.296-10.675l-32.565-41.56h33.546l112.393 143.441h-33.546l-57.129-72.911a7.605 7.605 0 0 0-10.675-1.296l-.001.001a7.605 7.605 0 0 0-1.296 10.675l49.78 63.531h-29.016L72.542 15.211h29.015zm61.933 140.731l10.139 12.94v40.643a163.01 163.01 0 0 0-10.139 6.506v-60.089zM403.277 349.52c0 81.206-66.066 147.272-147.271 147.272-81.206 0-147.271-66.066-147.271-147.272s66.065-147.272 147.27-147.272 147.272 66.066 147.272 147.272zm-64.906-140.001v-43.262c0-.27-.015-.535-.043-.797l-.005-.032a7.38 7.38 0 0 0-.161-.911c-.016-.07-.035-.14-.054-.21a7.27 7.27 0 0 0-.26-.801c-.015-.04-.027-.079-.043-.118a7.534 7.534 0 0 0-.424-.871c-.029-.053-.063-.102-.093-.154a7.65 7.65 0 0 0-.466-.69c-.026-.034-.045-.072-.072-.105l-10.227-13.052h16.915a5.075 5.075 0 0 1 5.069 5.069v62.441a160.425 160.425 0 0 0-10.136-6.507zm8.328-75.927a20.356 20.356 0 0 0-3.259-.287h-25.52L410.449 15.21h29.01l-92.76 118.382z" data-original="#000000"/><path d="M364.342 349.52c0 61.159-50.939 110.644-112.62 108.255-56.227-2.178-101.795-47.746-103.973-103.973-2.389-61.679 47.096-112.62 108.255-112.62 29.881 0 58.127 12.209 78.556 33.729 2.767 2.915 7.307 3.208 10.396.637 3.367-2.803 3.69-7.883.676-11.062-23.299-24.57-55.529-38.511-89.627-38.511-69.745 0-126.176 58.092-123.451 128.43 2.484 64.12 54.449 116.084 118.569 118.567 70.338 2.723 128.427-53.708 128.427-123.451 0-18.589-4.197-36.949-12.196-53.575-1.919-3.99-6.781-5.561-10.632-3.378l-.007.004c-3.486 1.976-4.827 6.311-3.088 9.921 7.028 14.584 10.715 30.702 10.715 47.027z" data-original="#000000"/><g><path d="M248.773 298.333l-7.811 9.819c-1.562 1.562-3.571 2.232-4.909 2.232-4.687 0-8.034-4.909-8.034-9.596 0-3.347 1.785-7.141 4.687-9.149l23.208-22.316c1.562-1.561 3.348-2.455 6.025-2.455 4.909 0 10.488 2.901 10.488 7.811V422.41c0 5.133-6.025 7.811-11.828 7.811-6.025 0-11.828-2.679-11.828-7.811l.002-124.077z" data-original="#000000"/></g></svg>