<svg xmlns="http://www.w3.org/2000/svg" viewBox="0 0 512.002 512.002" width="512" height="512"><path d="M422.286 195.543c-3.906-3.904-10.238-3.904-14.143 0-3.905 3.906-3.905 10.238 0 14.143.154.154.314.311.469.455a9.967 9.967 0 0 0 6.835 2.701 9.975 9.975 0 0 0 7.3-3.164c3.776-4.029 3.569-10.359-.461-14.135zM401.969 179.119c-5.724-3.887-11.601-7.354-17.467-10.307-33.186-16.699-68.353-20.051-101.701-9.695-5.274 1.639-8.223 7.242-6.584 12.516 1.638 5.275 7.239 8.221 12.516 6.584 28.304-8.791 58.311-5.865 86.777 8.459 5.021 2.529 10.286 5.639 15.226 8.99a9.955 9.955 0 0 0 5.607 1.729 9.99 9.99 0 0 0 8.283-4.385c3.102-4.569 1.912-10.789-2.657-13.891z" data-original="#000000" class="active-path" data-old_color="#000000" fill="#FFF"/><path d="M492.946 308.529c-4.1-8.6-10.889-22.842-11.011-27.553 11.694-28.824 7.428-60.721-12.05-89.898-29.953-44.873-91.343-77.443-145.97-77.443-28.876 0-57.073 6.886-82.441 20.031-7.278-39.877-42.25-70.208-84.196-70.208-47.206 0-85.61 38.404-85.61 85.609 0 30.033 15.306 57.34 40.94 73.045 7.39 4.528 9.062 8.442 9.656 14.855V295.483c0 11.166 9.082 20.25 20.245 20.25h3.4c5.493 43.776 26.679 83.521 60.309 112.768.317.988 1.242 5.619-2.732 19.436-3.095 10.764-7.845 22.721-12.034 33.271-2.804 7.059-5.226 13.156-6.69 17.766a10.003 10.003 0 0 0 9.531 13.028h142.745c4.69 0 11.132-2.1 15.187-12.105 1.765-4.354 2.917-9.592 4.138-15.139 1.188-5.404 3.974-18.061 6.744-19.59.002 0 .164-.027.555.033a9.831 9.831 0 0 0 1.552.121c14.949 0 27.164.678 37.941 1.275 31.609 1.754 50.689 2.813 67.426-21.295 8.512-12.262 7.547-30.145 6.526-49.078-.526-9.758-1.069-19.83-.105-28.203 1.745-1.719 6.115-4.719 8.855-6.6 9.427-6.475 18.33-12.588 18.33-21.883.003-7.065-4.27-16.386-11.241-31.009zM123.058 205.056c-19.655-12.04-31.389-32.97-31.389-55.99 0-36.178 29.433-65.609 65.61-65.609 36.178 0 65.61 29.432 65.61 65.609 0 23.02-11.733 43.951-31.389 55.992-9.341 5.725-14.893 12.402-17.528 21.424l-16.696-.006-16.688.006c-2.637-9.021-8.188-15.699-17.53-21.426zm49.236 41.428v14.625h-30.028v-14.625h30.028zm-29.783 49.248c-.111 0-.245-.138-.245-.25v-14.373h30.028v14.373c0 .113-.135.25-.248.25h-29.535zm332.027 49.2c-8.607 5.912-16.041 11.016-17.137 18.74-1.506 10.596-.874 22.305-.264 33.627.758 14.047 1.616 29.969-2.984 36.596-9.95 14.334-18.556 14.473-49.889 12.732-10.338-.574-23.166-1.285-38.375-1.307-5.841-.688-15.724.408-22.319 13.229-3.35 6.51-5.15 14.691-6.738 21.908-.798 3.627-1.919 8.723-2.969 11.543H208.689l1.354-3.412c14.406-36.273 23.53-62.877 9.642-74.883-29.436-25.459-48.208-59.933-53.591-97.973h5.953c11.165 0 20.248-9.084 20.248-20.25V236.986c.593-6.425 2.26-10.342 9.656-14.875 23.671-14.502 38.523-38.899 40.661-66.198 24.544-14.585 52.54-22.279 81.304-22.279 47.648 0 103.251 29.469 129.336 68.547 11.18 16.748 21.979 42.803 9.931 71.813-3.924 9.447 1.894 22.549 11.71 43.141 3.178 6.666 7.778 16.316 8.996 20.824-2.066 1.971-6.508 5.021-9.351 6.973z" data-original="#000000" class="active-path" data-old_color="#000000" fill="#FFF"/><path d="M206.331 134.937c-2.953-10.945-10.294-19.711-21.231-25.354-4.908-2.529-10.939-.605-13.472 4.305-2.531 4.909-.605 10.94 4.304 13.471 5.971 3.08 9.599 7.264 11.089 12.787 2.359 8.744-1.209 18.205-2.775 20.662-2.969 4.658-1.6 10.84 3.057 13.809a9.944 9.944 0 0 0 5.366 1.568 9.987 9.987 0 0 0 8.441-4.625c4.266-6.689 9.176-21.965 5.221-36.623zM157.279 0c-5.523 0-10 4.479-10 10v28.508c0 5.521 4.477 10 10 10 5.522 0 10-4.479 10-10V10c0-5.521-4.478-10-10-10zM46.323 139.465H17.815c-5.523 0-10 4.479-10 10 0 5.523 4.477 10 10 10h28.509c5.522 0 9.999-4.477 9.999-10 0-5.521-4.478-10-10-10zM110.457 48.363l-14.25-24.678c-2.762-4.783-8.879-6.42-13.661-3.66-4.782 2.762-6.421 8.877-3.659 13.66l14.25 24.678a9.995 9.995 0 0 0 13.66 3.66c4.783-2.762 6.422-8.877 3.66-13.66zM66.178 85.325l-24.681-14.25c-4.782-2.76-10.899-1.121-13.66 3.66-2.762 4.783-1.123 10.898 3.66 13.66l24.681 14.25a9.996 9.996 0 0 0 13.66-3.66c2.762-4.781 1.123-10.898-3.66-13.66zM286.725 74.734c-2.763-4.783-8.878-6.422-13.66-3.66l-24.681 14.25c-4.783 2.762-6.422 8.879-3.66 13.66a9.993 9.993 0 0 0 13.66 3.66l24.681-14.25c4.783-2.762 6.422-8.877 3.66-13.66zM69.843 199.947c-2.76-4.783-8.874-6.42-13.658-3.662l-24.687 14.25c-4.783 2.76-6.423 8.877-3.662 13.66a9.995 9.995 0 0 0 13.66 3.662l24.686-14.25c4.783-2.76 6.423-8.877 3.661-13.66zM104.74 240.467c-4.781-2.76-10.898-1.121-13.66 3.66L78.886 265.25c-2.761 4.783-1.122 10.9 3.661 13.66a9.995 9.995 0 0 0 13.66-3.66l12.194-21.123c2.762-4.783 1.123-10.898-3.661-13.66zM232.015 20.025c-4.784-2.762-10.898-1.123-13.66 3.66l-14.25 24.678c-2.762 4.783-1.124 10.899 3.659 13.66a9.996 9.996 0 0 0 13.661-3.66l14.25-24.678c2.762-4.783 1.123-10.898-3.66-13.66z" data-original="#000000" class="active-path" data-old_color="#000000" fill="#FFF"/></svg>