<svg xmlns="http://www.w3.org/2000/svg" viewBox="0 0 512 512" width="512" height="512"><path d="M281.6 332.8a8.53 8.53 0 0 0 8.533-8.533V204.8h25.6c23.526 0 42.667-19.14 42.667-42.667 0-23.526-19.14-42.667-42.667-42.667-23.526 0-42.667 19.14-42.667 42.667v25.6h-34.133v-25.6c0-23.526-19.14-42.667-42.667-42.667-23.526 0-42.667 19.14-42.667 42.667 0 23.526 19.14 42.667 42.667 42.667h25.6v119.467c0 4.71 3.823 8.533 8.533 8.533s8.533-3.823 8.533-8.533V204.8h34.133v119.467a8.534 8.534 0 0 0 8.535 8.533zm8.533-170.667c0-14.114 11.486-25.6 25.6-25.6s25.6 11.486 25.6 25.6-11.486 25.6-25.6 25.6h-25.6v-25.6zm-68.266 25.6h-25.6c-14.114 0-25.6-11.486-25.6-25.6s11.486-25.6 25.6-25.6 25.6 11.486 25.6 25.6v25.6zM60.928 18.15l32.666 27.418a8.488 8.488 0 0 0 5.487 1.997 8.492 8.492 0 0 0 6.536-3.046c3.029-3.61 2.56-8.994-1.05-12.023L71.902 5.077c-3.61-3.021-8.986-2.551-12.023 1.05-3.03 3.618-2.561 8.994 1.049 12.023zM66.449 92.612L26.368 78.029a8.548 8.548 0 0 0-10.94 5.103c-1.604 4.429.674 9.327 5.103 10.94l40.081 14.583c.964.35 1.946.521 2.918.521a8.551 8.551 0 0 0 8.021-5.623c1.614-4.43-.673-9.328-5.102-10.941zM412.894 47.565a8.49 8.49 0 0 0 5.47-1.997l32.683-27.435a8.527 8.527 0 0 0 1.05-12.023c-3.004-3.593-8.388-4.079-12.015-1.05l-32.683 27.435c-3.61 3.029-4.079 8.405-1.05 12.023a8.52 8.52 0 0 0 6.545 3.047zM51.183 162.15H8.533A8.536 8.536 0 0 0 0 170.683a8.536 8.536 0 0 0 8.533 8.533h42.65a8.536 8.536 0 0 0 8.533-8.533 8.536 8.536 0 0 0-8.533-8.533zM496.555 83.106c-1.604-4.42-6.511-6.716-10.931-5.094l-40.09 14.592a8.53 8.53 0 0 0-5.103 10.94 8.535 8.535 0 0 0 8.021 5.615c.964 0 1.954-.162 2.91-.521l40.098-14.592c4.429-1.613 6.716-6.511 5.095-10.94z" data-original="#000000" class="active-path" data-old_color="#E5FBE5" fill="#FFF"/><path d="M256 0C161.894 0 85.333 76.561 85.333 170.667c0 72.021 28.245 125.747 88.909 169.079.29.205.717.461 1.033.631.444.239 9.626 5.367 11.93 19.755-9.634 3.678-16.538 12.954-16.538 23.868 0 6.554 2.475 12.536 6.536 17.067a25.488 25.488 0 0 0-6.536 17.067c0 6.554 2.475 12.535 6.536 17.067a25.488 25.488 0 0 0-6.536 17.067c0 14.114 11.486 25.6 25.6 25.6 4.71 0 8.533-3.823 8.533-8.533s-3.823-8.533-8.533-8.533c-4.702 0-8.533-3.831-8.533-8.533s3.831-8.533 8.533-8.533H281.6c4.719 0 8.533-3.823 8.533-8.533s-3.814-8.533-8.533-8.533h-85.333c-4.702 0-8.533-3.831-8.533-8.533s3.831-8.533 8.533-8.533H281.6c4.719 0 8.533-3.823 8.533-8.533s-3.814-8.533-8.533-8.533h-85.333c-4.702 0-8.533-3.831-8.533-8.533s3.831-8.533 8.533-8.533H281.6c4.719 0 8.533-3.823 8.533-8.533s-3.814-8.533-8.533-8.533h-77.38c-3.021-21.487-16.947-30.797-20.437-32.811-56.286-40.337-81.382-88.132-81.382-154.923 0-84.693 68.907-153.6 153.6-153.6s153.6 68.907 153.6 153.6c0 66.79-25.097 114.586-81.382 154.923-3.925 2.261-21.018 13.739-21.018 41.344a8.53 8.53 0 0 0 8.533 8.533c4.71 0 8.533 3.831 8.533 8.533s-3.823 8.533-8.533 8.533c-4.719 0-8.533 3.823-8.533 8.533s3.814 8.533 8.533 8.533c4.71 0 8.533 3.831 8.533 8.533s-3.823 8.533-8.533 8.533c-4.719 0-8.533 3.823-8.533 8.533s3.814 8.533 8.533 8.533c4.71 0 8.533 3.831 8.533 8.533 0 4.864-3.669 8.533-8.533 8.533H230.4a8.536 8.536 0 0 0-8.533 8.533V486.4c0 14.114 11.486 25.6 25.6 25.6h17.067c14.114 0 25.6-11.486 25.6-25.6v-8.533h25.6c14.362 0 25.6-11.247 25.6-25.6 0-6.554-2.475-12.535-6.537-17.067a25.489 25.489 0 0 0 6.537-17.067c0-6.554-2.475-12.535-6.537-17.067a25.489 25.489 0 0 0 6.537-17.067c0-10.914-6.904-20.19-16.546-23.868 2.304-14.387 11.477-19.507 11.827-19.703a8.047 8.047 0 0 0 1.143-.683c60.655-43.332 88.909-97.058 88.909-169.079C426.667 76.561 350.106 0 256 0zm17.067 486.4c0 4.702-3.823 8.533-8.533 8.533h-17.067c-4.702 0-8.533-3.831-8.533-8.533v-8.533h34.133v8.533zM503.467 162.133H460.8c-4.719 0-8.533 3.823-8.533 8.533s3.814 8.533 8.533 8.533h42.667c4.719 0 8.533-3.823 8.533-8.533s-3.814-8.533-8.533-8.533z" data-original="#000000" class="active-path" data-old_color="#E5FBE5" fill="#FFF"/></svg>