<?xml version="1.0"?>
<svg xmlns="http://www.w3.org/2000/svg" xmlns:xlink="http://www.w3.org/1999/xlink" version="1.1" id="Capa_1" x="0px" y="0px" viewBox="0 0 512.001 512.001" style="enable-background:new 0 0 512.001 512.001;" xml:space="preserve" width="512px" height="512px" class=""><g><polygon style="fill:#E13566" points="305.545,7.604 455.08,7.604 330.767,166.256 181.233,166.256 " data-original="#0E6A8E" class="" data-old_color="#e13566"/><polygon style="fill:#E13566" points="305.545,7.604 368.741,7.604 244.43,166.256 181.233,166.256 " data-original="#E52E40" class="" data-old_color="#e13566"/><polygon style="fill:#20b5de" points="353.879,7.604 406.745,7.604 282.433,166.256 229.568,166.256 " data-original="#EAEAE4" class="" data-old_color="#e13566"/><g>
	<circle style="fill:#7E7B7B" cx="256" cy="349.519" r="154.877" data-original="#F9AC30" class="active-path" data-old_color="#7C7979"/>
	<path style="fill:#7E7B7B" d="M181.236,213.857v-47.601H330.77v47.601l25.347,17.489v-77.763c0-6.996-5.667-12.673-12.673-12.673   H168.563c-6.996,0-12.673,5.678-12.673,12.673v77.773L181.236,213.857z" data-original="#F9AC30" class="active-path" data-old_color="#7C7979"/>
</g><circle style="fill:#A8A8A8" cx="256" cy="349.519" r="115.945" data-original="#DD8D19" class="" data-old_color="#a8a8a8"/><polygon style="fill:#E13566" points="206.458,7.604 56.923,7.604 181.236,166.256 330.77,166.256 " data-original="#E52E40" class="" data-old_color="#e13566"/><polygon style="fill:#E13566" points="206.458,7.604 143.262,7.604 267.573,166.256 330.77,166.256 " data-original="#0E6A8E" class="" data-old_color="#e13566"/><polygon style="fill:#20b5de" points="158.124,7.604 105.258,7.604 229.57,166.256 282.436,166.256 " data-original="#EAEAE4" class="" data-old_color="#20b5de"/><path id="SVGCleanerId_0" d="M259.185,262.46c25.886,0,47.756,17.63,47.756,44.409c0,47.979-72.304,63.601-72.304,89.263v8.48  h65.608c4.017,0,7.811,4.686,7.811,10.265c0,5.579-3.794,10.711-7.811,10.711h-79.444c-4.463,0-10.488-3.124-10.488-7.811v-21.647  c0-36.151,72.974-54.226,72.974-88.594c0-10.934-7.141-23.431-24.1-23.431c-12.497,0-22.539,6.918-22.539,22.093  c0,4.463-4.687,8.927-12.497,8.927c-6.248,0-10.711-3.125-10.711-13.166C213.436,278.083,234.859,262.46,259.185,262.46z" data-original="#000000" class="" style="fill:#000000"/><path d="M460.97,2.796c-1.473-1.825-3.767-2.793-6.112-2.793h-48.112h-52.863h-48.342c-2.337,0-4.544,1.075-5.985,2.914  l-43.555,55.591L212.444,2.917c-1.442-1.839-3.648-2.914-5.985-2.914h-48.283c-0.017,0-0.034-0.003-0.052-0.003h-52.866  c-0.014,0-0.027,0.003-0.042,0.003H57.144c-2.346,0-4.639,0.969-6.114,2.793c-2.291,2.836-2.241,6.758-0.092,9.501l101.294,129.275  c-2.517,3.422-3.949,7.604-3.949,12.011v74.413c-34.492,30.608-55.917,75.63-54.709,125.531  c2.082,85.984,71.693,155.931,157.667,158.404c91.757,2.639,167.245-71.237,167.245-162.411c0-48.304-21.196-91.743-54.767-121.531  v-74.406c0-4.49-1.484-8.63-3.964-11.993l50.736-64.75c2.589-3.305,2.009-8.084-1.295-10.673l-0.002-0.002  c-3.305-2.589-8.084-2.01-10.674,1.295L346.7,133.593c-1.064-0.172-2.147-0.287-3.26-0.287H317.92l92.528-118.095h29.011  l-19.763,25.223c-2.589,3.305-2.009,8.084,1.295,10.673l0.002,0.002c3.305,2.589,8.084,2.01,10.674-1.295l29.396-37.517  C463.211,9.555,463.261,5.632,460.97,2.796z M309.244,15.211h29.021l-58.096,74.14l-14.506-18.514L309.244,15.211z M315.149,158.652  h-20.22h-8.79L173.745,15.211h29.012L315.149,158.652z M256.005,187.04c-23.94,0-46.685,5.208-67.167,14.545V173.86h134.327v27.721  C302.683,192.247,279.941,187.04,256.005,187.04z M154.424,15.211l112.394,143.441h-33.546L120.879,15.211H154.424z M101.558,15.211  L213.95,158.652h-29.016L72.542,15.211H101.558z M163.491,155.942l10.139,12.94v40.643c-3.464,2.047-6.846,4.217-10.139,6.506  V155.942z M403.277,349.52c0,81.206-66.066,147.272-147.271,147.272S108.734,430.726,108.734,349.52S174.8,202.248,256.005,202.248  S403.277,268.314,403.277,349.52z M348.511,153.583v62.441c-3.293-2.289-6.674-4.459-10.139-6.505v-43.262  c0-0.271-0.015-0.537-0.043-0.801c0-0.004-0.001-0.009-0.002-0.014c-0.033-0.317-0.093-0.627-0.164-0.932  c-0.016-0.067-0.033-0.133-0.052-0.2c-0.074-0.278-0.16-0.55-0.264-0.815c-0.014-0.035-0.024-0.071-0.039-0.105  c-0.124-0.303-0.267-0.594-0.426-0.876c-0.028-0.05-0.06-0.098-0.089-0.147c-0.144-0.241-0.301-0.473-0.47-0.698  c-0.025-0.033-0.044-0.07-0.07-0.103l-10.227-13.052h16.915C346.237,148.513,348.511,150.789,348.511,153.583z M306.605,123.09  l-16.775-21.41l67.756-86.469h33.543L306.605,123.09z" data-original="#000000" class="" style="fill:#000000"/><path d="M260.887,226.069c-70.338-2.724-128.428,53.707-128.428,123.451c0,2.737,0.09,5.485,0.271,8.22  c0.286,4.353,4.245,7.53,8.569,6.963l0.011-0.001c3.972-0.52,6.85-4.032,6.589-8.03c-0.155-2.381-0.233-4.769-0.233-7.152  c0-61.159,50.94-110.645,112.621-108.255c56.227,2.179,101.794,47.747,103.972,103.975c2.389,61.679-47.096,112.618-108.255,112.618  c-44.881,0-84.516-27.227-100.772-68.461c-1.478-3.749-5.575-5.74-9.413-4.51l-0.003,0.001c-4.156,1.332-6.377,5.899-4.78,9.96  c8.456,21.507,22.675,40.055,41.469,53.985c21.387,15.854,46.804,24.232,73.5,24.232c69.744,0,126.176-58.091,123.451-128.429  C376.972,280.516,325.007,228.553,260.887,226.069z" data-original="#000000" class="" style="fill:#000000"/><g>
	<path id="SVGCleanerId_0_1_" d="M259.185,262.46c25.886,0,47.756,17.63,47.756,44.409c0,47.979-72.304,63.601-72.304,89.263v8.48   h65.608c4.017,0,7.811,4.686,7.811,10.265c0,5.579-3.794,10.711-7.811,10.711h-79.444c-4.463,0-10.488-3.124-10.488-7.811v-21.647   c0-36.151,72.974-54.226,72.974-88.594c0-10.934-7.141-23.431-24.1-23.431c-12.497,0-22.539,6.918-22.539,22.093   c0,4.463-4.687,8.927-12.497,8.927c-6.248,0-10.711-3.125-10.711-13.166C213.436,278.083,234.859,262.46,259.185,262.46z" data-original="#000000" class="" style="fill:#000000"/>
</g></g> </svg>
