<svg xmlns="http://www.w3.org/2000/svg" viewBox="0 0 511.998 511.998" width="512" height="512"><path d="M74.664 85.179c-17.673 0-32 14.327-32 32v85.333h21.333v-85.333c0-5.891 4.776-10.667 10.667-10.667h256V85.179h-256zM74.664 405.179c-5.891 0-10.667-4.776-10.667-10.667V287.845H42.664v106.667c0 17.673 14.327 32 32 32h106.667v-21.333H74.664z" data-original="#000000" class="active-path" data-old_color="#000000" fill="#FFF"/><path d="M338.206 432.688L79.155 173.637c-4.165-4.164-10.917-4.164-15.083 0l-60.949 60.95c-4.164 4.165-4.164 10.917 0 15.083l259.051 259.05a10.662 10.662 0 0 0 15.082 0l60.949-60.949c4.165-4.166 4.165-10.918.001-15.083zm-68.491 53.408L25.747 242.128l45.867-45.867L315.582 440.23l-45.867 45.866z" data-original="#000000" class="active-path" data-old_color="#000000" fill="#FFF"/><path d="M469.331 405.179h-160v21.333h117.333v53.333c0 5.891 4.776 10.667 10.667 10.667h32c23.564 0 42.667-19.102 42.667-42.667 0-23.564-19.103-42.666-42.667-42.666zm0 64h-21.333v-42.667h21.333c11.782 0 21.333 9.551 21.333 21.333 0 11.783-9.551 21.334-21.333 21.334z" data-original="#000000" class="active-path" data-old_color="#000000" fill="#FFF"/><path d="M469.331 85.179h-53.333v21.333h53.333c11.782 0 21.333 9.551 21.333 21.333v320h21.333v-320c.001-23.564-19.102-42.666-42.666-42.666zM163.124 333.638l32.003-32.003 15.084 15.085-32.002 32.002zM120.459 290.97l32.002-32.002 15.085 15.085-32.003 32.003zM205.768 376.305l32.002-32.003 15.085 15.085-32.003 32.002zM248.454 418.993l32.002-32.003 15.085 15.085-32.003 32.002zM77.763 248.304l32.002-32.002 15.085 15.084-32.003 32.003z" data-original="#000000" class="active-path" data-old_color="#000000" fill="#FFF"/><path d="M460.094 23.824L445.352 9.083c-12.473-11.907-32.103-11.907-44.576 0L238.579 171.28c-4.164 4.165-4.164 10.917 0 15.083l44.235 44.235a10.588 10.588 0 0 0 7.541 3.125 10.67 10.67 0 0 0 7.541-3.125L460.094 68.4l.015-.015c12.301-12.309 12.294-32.26-.015-44.561zm-15.072 29.483L290.355 207.973l-29.152-29.152L415.87 24.165a10.422 10.422 0 0 1 14.4 0l14.752 14.731.005.005c3.976 3.979 3.974 10.429-.005 14.406z" data-original="#000000" class="active-path" data-old_color="#000000" fill="#FFF"/><path d="M286.931 212.944l-46.037 15.371 15.371-46.112-20.267-6.752-22.123 66.357a10.685 10.685 0 0 0-.547 3.373c.001 5.891 4.778 10.666 10.669 10.664a10.832 10.832 0 0 0 3.328-.512l66.357-22.123-6.751-20.266zM371.278 53.65l15.085-15.085L430.599 82.8l-15.085 15.085z" data-original="#000000" class="active-path" data-old_color="#000000" fill="#FFF"/><path data-original="#000000" class="active-path" data-old_color="#000000" fill="#FFF" d="M223.998 234.512h160v21.333h-160zM405.331 234.512h21.333v21.333h-21.333zM447.998 234.512h21.333v21.333h-21.333z"/></svg>