<svg id="Layer_4" data-name="Layer 4" xmlns="http://www.w3.org/2000/svg" viewBox="0 0 92.78 93.91"><defs><style>.cls-1{fill:#1e120d;}.cls-2{fill:#52c1b6;}.cls-3{fill:#efc100;}</style></defs><title>Hackathon USP 2018  - Fintech-icones</title><path class="cls-1" d="M92.78,88.49a5.41,5.41,0,0,0-1.57-3.83l-1.08-1.09a3.91,3.91,0,0,0-1.07-3.27L69.69,60.7a3.79,3.79,0,0,0-3.22-1.08l-1.91-1.93A36.63,36.63,0,0,0,59.35,9a35.55,35.55,0,0,0-48.9,1.62,36.63,36.63,0,0,0-1.6,49.5A35.56,35.56,0,0,0,57,65.35l1.91,1.93A3.91,3.91,0,0,0,60,70.54l19.36,19.6a3.71,3.71,0,0,0,3.24,1.1l1.07,1.09a5.35,5.35,0,0,0,3.78,1.59,5.27,5.27,0,0,0,3.19-1.07l0,0,.56-.56h0l.55-.55,0,0A5.42,5.42,0,0,0,92.78,88.49ZM68,65.62l-3.19,3.23-1-1.05L67,64.57Zm-10.2-7.1a30.8,30.8,0,0,1-34,6.84,31.7,31.7,0,0,1,0-58.3,30.79,30.79,0,0,1,34,6.84A31.91,31.91,0,0,1,57.82,58.53Zm3.26,3.3c.17-.18.34-.36.5-.55l1.06,1.07-1,1.05-1.06-1.07C60.72,62.17,60.91,62,61.08,61.83ZM85.23,83,82,86.28l-14-14.12,3.19-3.23Zm2.93,5.44A.74.74,0,0,1,88,89a.75.75,0,0,1-1,0l-.52-.53,1-1.05.52.53A.75.75,0,0,1,88.16,88.49Z"/><path class="cls-1" d="M25.41,20.36H18.08A1.59,1.59,0,0,0,16.51,22V48.66a1.59,1.59,0,0,0,1.58,1.6h7.32A1.59,1.59,0,0,0,27,48.66V22A1.59,1.59,0,0,0,25.41,20.36ZM23.83,47.06H19.66V23.55h4.17Z"/><path class="cls-1" d="M40.41,32.59H33.08a1.59,1.59,0,0,0-1.58,1.6V48.66a1.59,1.59,0,0,0,1.58,1.6h7.32A1.59,1.59,0,0,0,42,48.66V34.18A1.59,1.59,0,0,0,40.41,32.59ZM38.83,47.06H34.66V35.78h4.17Z"/><path class="cls-1" d="M54.59,37.53H47.27a1.59,1.59,0,0,0-1.58,1.6v9.53a1.59,1.59,0,0,0,1.58,1.6h7.32a1.59,1.59,0,0,0,1.58-1.6V39.13A1.59,1.59,0,0,0,54.59,37.53ZM53,47.06H48.84V40.72H53Z"/><rect class="cls-1" x="49.1" y="53.13" width="3.66" height="2.14"/><rect class="cls-1" x="34.91" y="53.13" width="3.66" height="2.14"/><rect class="cls-1" x="19.91" y="53.13" width="3.66" height="2.14"/><rect class="cls-2" x="19.66" y="23.55" width="4.17" height="23.52"/><rect class="cls-3" x="34.66" y="35.62" width="4.17" height="12.07"/><rect class="cls-3" x="48.84" y="40.56" width="4.17" height="7.13"/><polygon class="cls-2" points="68.09 72.16 71.28 68.93 85.23 83.05 82.04 86.28 68.09 72.16"/></svg>