<svg id="Layer_4" data-name="Layer 4" xmlns="http://www.w3.org/2000/svg" viewBox="0 0 120.4 139.65"><defs><style>.cls-1{fill:#52c1b6;}.cls-2{fill:#1e120d;}.cls-3{fill:#efc100;}</style></defs><title>Hackathon USP 2018  - Fintech-icones</title><path class="cls-1" d="M98.39,101.22v-1.08a.32.32,0,0,0-.32-.32H76.82a14.83,14.83,0,0,0-14,9.91V116H83.57A14.83,14.83,0,0,0,98.39,101.22Z"/><path class="cls-1" d="M51.4,99.82H43.78a.33.33,0,0,0-.33.33v1.28a7.2,7.2,0,0,0,7.19,7.19h7.09v-4.93A7.17,7.17,0,0,0,51.4,99.82Z"/><path class="cls-1" d="M60.29,127.09a27.4,27.4,0,0,0-20.37,9.1l40.75,0h0A27.44,27.44,0,0,0,60.29,127.09Z"/><path class="cls-2" d="M64.73,81.13V79.55a10.36,10.36,0,0,0,8.86-10.24V67.83A10.36,10.36,0,0,0,63.25,57.49H57.34A1.48,1.48,0,0,1,55.86,56V54.54a1.48,1.48,0,0,1,1.48-1.48h5.91a1.48,1.48,0,0,1,1.48,1.48V56h8.86V54.54A10.36,10.36,0,0,0,64.73,44.3V42.72a4.43,4.43,0,1,0-8.86,0V44.3A10.36,10.36,0,0,0,47,54.54V56A10.36,10.36,0,0,0,57.34,66.36h5.91a1.48,1.48,0,0,1,1.48,1.48v1.48a1.48,1.48,0,0,1-1.48,1.48H57.34a1.48,1.48,0,0,1-1.48-1.48V67.83H47v1.48a10.36,10.36,0,0,0,8.86,10.24v1.58a4.43,4.43,0,1,0,8.86,0Zm-5.91,0V76.7H57.34a7.4,7.4,0,0,1-7.24-5.91h3.06a4.44,4.44,0,0,0,4.18,3h5.91a4.44,4.44,0,0,0,4.43-4.43V67.83a4.44,4.44,0,0,0-4.43-4.43H57.34A7.4,7.4,0,0,1,50,56V54.54a7.4,7.4,0,0,1,7.39-7.39h1.48V42.72a1.48,1.48,0,1,1,3,0v4.43h1.48a7.4,7.4,0,0,1,7.24,5.91H67.43a4.44,4.44,0,0,0-4.18-3H57.34a4.44,4.44,0,0,0-4.43,4.43V56a4.44,4.44,0,0,0,4.43,4.43h5.91a7.4,7.4,0,0,1,7.39,7.39v1.48a7.4,7.4,0,0,1-7.39,7.39H61.77v4.43a1.48,1.48,0,1,1-3,0Z"/><path class="cls-3" d="M67.43,53.06h3.06a7.4,7.4,0,0,0-7.24-5.91H61.77V42.72a1.48,1.48,0,1,0-3,0v4.43H57.34A7.4,7.4,0,0,0,50,54.54V56a7.4,7.4,0,0,0,7.39,7.39h5.91a4.44,4.44,0,0,1,4.43,4.43v1.48a4.44,4.44,0,0,1-4.43,4.43H57.34a4.44,4.44,0,0,1-4.18-3H50.1a7.4,7.4,0,0,0,7.24,5.91h1.48v4.43a1.48,1.48,0,1,0,3,0V76.7h1.48a7.4,7.4,0,0,0,7.39-7.39V67.83a7.4,7.4,0,0,0-7.39-7.39H57.34A4.44,4.44,0,0,1,52.91,56V54.54a4.44,4.44,0,0,1,4.43-4.43h5.91A4.44,4.44,0,0,1,67.43,53.06Z"/><path class="cls-2" d="M98.07,96.41H76.82a18.19,18.19,0,0,0-14,6.53V92a33.2,33.2,0,1,0-5.12,0v6.57a10.53,10.53,0,0,0-6.33-2.12H43.78A3.74,3.74,0,0,0,40,100.15v1.28A10.61,10.61,0,0,0,50.65,112h7.09v11.79a30.81,30.81,0,0,0-20.35,10.1,3.41,3.41,0,0,0-.59,3.71,3.37,3.37,0,0,0,3.11,2H80.68a3.37,3.37,0,0,0,3.11-2,3.42,3.42,0,0,0-.59-3.71,30.81,30.81,0,0,0-20.35-10.1v-4.37H83.57a18.25,18.25,0,0,0,18.23-18.23v-1.08A3.74,3.74,0,0,0,98.07,96.41ZM32.21,58.9A28.08,28.08,0,1,1,60.29,87,28.11,28.11,0,0,1,32.21,58.9Zm18.43,49.72a7.2,7.2,0,0,1-7.19-7.19v-1.28a.33.33,0,0,1,.33-.33H51.4a7.17,7.17,0,0,1,6.33,3.86v4.93ZM80.7,136.23h0l-40.75,0a27.34,27.34,0,0,1,40.77,0Zm17.69-35A14.83,14.83,0,0,1,83.57,116H62.85v-6.3a14.83,14.83,0,0,1,14-9.91H98.07a.32.32,0,0,1,.32.32Z"/><rect class="cls-2" x="108" y="55.16" width="6.2" height="6.2"/><polygon class="cls-2" points="114.2 61.37 114.2 61.37 114.2 67.57 108 67.57 108 61.37 101.8 61.37 101.8 67.57 101.8 67.57 108 67.57 108 73.77 114.2 73.77 114.2 67.57 114.2 67.57 114.2 67.57 120.4 67.57 120.4 67.57 120.4 61.37 114.2 61.37"/><rect class="cls-2" x="82.69" width="6.2" height="6.2"/><polygon class="cls-2" points="82.69 18.6 88.89 18.6 88.89 12.4 88.89 12.4 88.89 12.4 95.09 12.4 95.09 12.4 95.09 6.2 88.89 6.2 88.89 6.2 88.89 12.4 82.69 12.4 82.69 6.2 76.49 6.2 76.49 12.4 76.49 12.4 82.69 12.4 82.69 18.6"/><rect class="cls-2" x="6.2" y="55.16" width="6.2" height="6.2"/><polygon class="cls-2" points="12.4 61.37 12.4 67.57 6.2 67.57 6.2 61.37 0 61.37 0 67.57 0 67.57 6.2 67.57 6.2 73.77 12.4 73.77 12.4 67.57 12.4 67.57 12.4 67.57 18.6 67.57 18.6 67.57 18.6 61.37 12.4 61.37 12.4 61.37"/></svg>