<svg id="Layer_4" data-name="Layer 4" xmlns="http://www.w3.org/2000/svg" viewBox="0 0 114.77 112.97"><defs><style>.cls-1{fill:#1e120d;}.cls-2{fill:#efc100;}</style></defs><title>Hackathon USP 2018  - Fintech-icones</title><path class="cls-1" d="M100,56.53v-.25H97.45a1.64,1.64,0,0,0-1.63,1.6,38.5,38.5,0,0,1-40.93,37,38.44,38.44,0,0,1-3-76.41l-2.74,2.74a1.15,1.15,0,0,0-.34.82,1.14,1.14,0,0,0,.34.82l1.32,1.32a1.16,1.16,0,0,0,1.64,0l6.66-6.66a2.19,2.19,0,0,0,0-3.09L52.13,7.77a1.16,1.16,0,0,0-1.64,0L49.18,9.09a1.14,1.14,0,0,0-.34.82,1.15,1.15,0,0,0,.34.82l3.43,3.43a42.64,42.64,0,0,0,1.95,84.92q1.44.09,2.86.09a42.22,42.22,0,0,0,29.1-11.53A42.8,42.8,0,0,0,100,56.53Z"/><path class="cls-1" d="M45.68,4.59l.18,0,2.27-.45A.94.94,0,0,0,48.87,3L48.42.75A.94.94,0,0,0,47.32,0L45.05.47a.94.94,0,0,0-.73,1.1l.45,2.27A.94.94,0,0,0,45.68,4.59Z"/><path class="cls-1" d="M34.73,7.31a.93.93,0,0,0,.86.58A.94.94,0,0,0,36,7.82l2.14-.89a.93.93,0,0,0,.5-.51.91.91,0,0,0,0-.71l-.89-2.14a.94.94,0,0,0-1.22-.5L34.35,4h0a.93.93,0,0,0-.5,1.22Z"/><path class="cls-1" d="M25.57,12.68a.92.92,0,0,0,.59.4l.18,0a.93.93,0,0,0,.52-.16l1.92-1.29A.93.93,0,0,0,29,10.36L27.75,8.43a.93.93,0,0,0-1.29-.26L24.54,9.46a.94.94,0,0,0-.4.59.92.92,0,0,0,.14.7Z"/><path class="cls-1" d="M17.62,19.73a.93.93,0,0,0,1.32,0l1.64-1.64a.93.93,0,0,0,0-1.32l-1.64-1.64a1,1,0,0,0-1.32,0L16,16.77a.94.94,0,0,0,0,1.32Z"/><path class="cls-1" d="M4.18,56.53a53.3,53.3,0,0,1,12-33.69l.16-.19-2.5-2a.94.94,0,0,0-.7-.21.93.93,0,0,0-.63.35A57.39,57.39,0,0,0,13.9,94a1.29,1.29,0,0,0,.9.44h.09a1.3,1.3,0,0,0,.87-.33L16.94,93a1.28,1.28,0,0,0,.11-1.8A53.2,53.2,0,0,1,4.18,56.53Z"/><path class="cls-1" d="M69.49,108.77a1.37,1.37,0,0,0-1-.21l-1.39.28A1.39,1.39,0,0,0,66,110.47l.28,1.39A1.39,1.39,0,0,0,67.61,113l.27,0,1.39-.28A1.39,1.39,0,0,0,70.36,111l-.28-1.39A1.38,1.38,0,0,0,69.49,108.77Z"/><path class="cls-1" d="M80.2,106.16a1.38,1.38,0,0,0-1.81-.75l-1.31.54h0a1.38,1.38,0,0,0-.75,1.81l.54,1.31a1.38,1.38,0,0,0,1.8.75l1.31-.54a1.38,1.38,0,0,0,.75-1.81Z"/><path class="cls-1" d="M89.44,100.75a1.38,1.38,0,0,0-1.92-.38l-1.18.79a1.38,1.38,0,0,0-.38,1.92l.79,1.18a1.38,1.38,0,0,0,1.92.38l1.18-.79a1.38,1.38,0,0,0,.38-1.92Z"/><path class="cls-1" d="M97.46,93.65a1.39,1.39,0,0,0-2,0l-1,1a1.39,1.39,0,0,0,0,2l1,1a1.38,1.38,0,0,0,2,0l1-1a1.39,1.39,0,0,0,0-2Z"/><path class="cls-1" d="M100.15,18.27l-.16-.18-1.78,1.59A1.82,1.82,0,0,0,98,22.23a53.21,53.21,0,0,1,1.2,67.13,1.37,1.37,0,0,0,.2,1.91l1.1.9a1.38,1.38,0,0,0,.88.32h.16a1.37,1.37,0,0,0,.93-.52,57.39,57.39,0,0,0-2.37-73.69Z"/><path class="cls-1" d="M62.85,80.69v-2A13,13,0,0,0,74,65.82V64A13,13,0,0,0,61,51H53.56a1.86,1.86,0,0,1-1.86-1.86V47.23a1.86,1.86,0,0,1,1.86-1.86H61a1.86,1.86,0,0,1,1.86,1.86v1.86H74V47.23A13,13,0,0,0,62.85,34.36v-2a5.58,5.58,0,1,0-11.15,0v2A13,13,0,0,0,40.55,47.23v1.86a13,13,0,0,0,13,13H61A1.86,1.86,0,0,1,62.85,64v1.86A1.86,1.86,0,0,1,61,67.68H53.56a1.86,1.86,0,0,1-1.86-1.86V64H40.55v1.86A13,13,0,0,0,51.7,78.7v2a5.58,5.58,0,1,0,11.15,0Zm-7.43,0V75.11H53.56a9.31,9.31,0,0,1-9.1-7.43H48.3a5.59,5.59,0,0,0,5.26,3.72H61a5.58,5.58,0,0,0,5.58-5.58V64A5.58,5.58,0,0,0,61,58.38H53.56a9.3,9.3,0,0,1-9.29-9.29V47.23a9.3,9.3,0,0,1,9.29-9.29h1.86V32.37a1.86,1.86,0,1,1,3.72,0v5.58H61a9.31,9.31,0,0,1,9.1,7.43H66.25A5.59,5.59,0,0,0,61,41.66H53.56A5.58,5.58,0,0,0,48,47.23v1.86a5.58,5.58,0,0,0,5.58,5.58H61A9.3,9.3,0,0,1,70.28,64v1.86A9.3,9.3,0,0,1,61,75.11H59.13v5.58a1.86,1.86,0,1,1-3.72,0Z"/><path class="cls-2" d="M66.25,45.38H70.1A9.31,9.31,0,0,0,61,37.94H59.13V32.37a1.86,1.86,0,1,0-3.72,0v5.58H53.56a9.3,9.3,0,0,0-9.29,9.29v1.86a9.3,9.3,0,0,0,9.29,9.29H61A5.58,5.58,0,0,1,66.57,64v1.86A5.58,5.58,0,0,1,61,71.39H53.56a5.59,5.59,0,0,1-5.26-3.72H44.45a9.31,9.31,0,0,0,9.1,7.43h1.86v5.58a1.86,1.86,0,1,0,3.72,0V75.11H61a9.3,9.3,0,0,0,9.29-9.29V64A9.3,9.3,0,0,0,61,54.67H53.56A5.58,5.58,0,0,1,48,49.09V47.23a5.58,5.58,0,0,1,5.58-5.58H61A5.59,5.59,0,0,1,66.25,45.38Z"/></svg>