<svg id="Layer_4" data-name="Layer 4" xmlns="http://www.w3.org/2000/svg" viewBox="0 0 129.84 130.96"><defs><style>.cls-1{fill:#1e120d;}.cls-2{fill:#efc100;}.cls-3{fill:#52c1b6;}</style></defs><title>Hackathon USP 2018  - Fintech-icones</title><path class="cls-1" d="M124.81,65.18a5,5,0,0,0-4.7,3.32H98.2c.56-2.25,1-4.5,1.41-6.71h10.6a1.71,1.71,0,0,0,1.71-1.71V50.86a5,5,0,1,0-3.41,0v7.52h-8.36a131.78,131.78,0,0,0,1.2-13.63,6.56,6.56,0,0,0-6.12-6.83A53.55,53.55,0,0,1,83,35.41c-.6-.19-1.16-.44-1.74-.67V22.5a5,5,0,1,0-3.41,0V33a34.72,34.72,0,0,1-9.59-9.26,4.46,4.46,0,0,0-2-1.52V9.73a5,5,0,1,0-3.41,0V22.23a4.46,4.46,0,0,0-2,1.52A35.44,35.44,0,0,1,52,32.53v-10a5,5,0,1,0-3.41,0v12a21.4,21.4,0,0,1-2.44.95A53.56,53.56,0,0,1,33.9,37.92a6.56,6.56,0,0,0-6.12,6.83A131.79,131.79,0,0,0,29,58.38H21.32V50.86a5,5,0,1,0-3.41,0v9.23a1.71,1.71,0,0,0,1.71,1.71h9.9c.38,2.21.85,4.46,1.41,6.71H9.73a5,5,0,1,0,0,3.41H31.85a64.61,64.61,0,0,0,2.58,7.2H24.76a1.71,1.71,0,0,0-1.71,1.71v8.89a5,5,0,1,0,3.41,0V82.53H36c.54,1,1.1,2.05,1.71,3A47.67,47.67,0,0,0,48.6,97.74v11.88a5,5,0,1,0,3.41,0v-9.48a34.9,34.9,0,0,0,10.85,4.66v16.43a5,5,0,1,0,3.41,0V104.8a35.15,35.15,0,0,0,11.56-5.11v9.93a5,5,0,1,0,3.41,0V97.15A47.88,47.88,0,0,0,91.37,85.55c.61-1,1.17-2,1.71-3h10.28v7.19a5,5,0,1,0,3.41,0V80.82a1.71,1.71,0,0,0-1.71-1.71H94.7a64.64,64.64,0,0,0,2.58-7.2h22.83a5,5,0,1,0,4.7-6.73Zm-14.6-20.64a1.61,1.61,0,1,1-1.61,1.61A1.61,1.61,0,0,1,110.22,44.54Zm-90.6,3.22a1.61,1.61,0,1,1,1.61-1.61A1.61,1.61,0,0,1,19.62,47.77ZM5,71.82a1.61,1.61,0,1,1,1.61-1.61A1.61,1.61,0,0,1,5,71.82ZM24.76,96a1.61,1.61,0,1,1,1.61-1.61A1.61,1.61,0,0,1,24.76,96Zm80.32-3.22a1.61,1.61,0,1,1-1.61,1.61A1.61,1.61,0,0,1,105.08,92.81ZM79.53,16.18a1.61,1.61,0,1,1-1.61,1.61A1.61,1.61,0,0,1,79.53,16.18Zm-15-12.77A1.61,1.61,0,1,1,63,5,1.61,1.61,0,0,1,64.57,3.41ZM50.3,16.18a1.61,1.61,0,1,1-1.61,1.61A1.61,1.61,0,0,1,50.3,16.18Zm0,99.75a1.61,1.61,0,1,1,1.61-1.61A1.61,1.61,0,0,1,50.3,115.93Zm14.26,11.61a1.61,1.61,0,1,1,1.61-1.61A1.61,1.61,0,0,1,64.57,127.54Zm15-11.61a1.61,1.61,0,1,1,1.61-1.61A1.61,1.61,0,0,1,79.53,115.93ZM97.94,44.63c-.28,7.69-1.75,26.89-9.46,39.1C79,98.8,66.28,101.37,64.57,101.65c-1.73-.29-14.41-2.86-23.92-17.93C33.22,72,31.53,54.18,31.18,44.63a3.17,3.17,0,0,1,2.94-3.3,57.15,57.15,0,0,0,13-2.67c7.77-2.44,13.26-8.38,16.49-12.93a1.11,1.11,0,0,1,1.79,0C68.69,30.28,74.18,36.22,82,38.66a57.16,57.16,0,0,0,13,2.67,3.16,3.16,0,0,1,2.94,3.3Zm26.87,27.19a1.61,1.61,0,1,1,1.61-1.61A1.61,1.61,0,0,1,124.81,71.82Z"/><circle class="cls-2" cx="79.53" cy="17.79" r="1.61"/><circle class="cls-2" cx="50.3" cy="114.32" r="1.61"/><circle class="cls-2" cx="79.53" cy="114.32" r="1.61"/><circle class="cls-2" cx="64.57" cy="125.92" r="1.61"/><path class="cls-3" d="M88.49,83.72c7.71-12.21,9.18-31.41,9.46-39.1h0A3.16,3.16,0,0,0,95,41.33a57.16,57.16,0,0,1-13-2.67c-7.77-2.44-13.26-8.38-16.49-12.93a1.11,1.11,0,0,0-1.79,0c-3.24,4.55-8.72,10.48-16.49,12.93a57.15,57.15,0,0,1-13,2.67,3.17,3.17,0,0,0-2.94,3.3c.34,9.55,2,27.33,9.46,39.1,9.51,15.07,22.19,17.64,23.92,17.93C66.28,101.37,79,98.8,88.49,83.72Zm-21,14.63a6.65,6.65,0,0,1-5.81,0A46.72,46.72,0,0,1,42.84,81.06c-6.13-9.71-7.64-24.05-8-31.74a6.6,6.6,0,0,1,5.92-6.93,44.36,44.36,0,0,0,9-1.94,22.43,22.43,0,0,0,9.86-6.94,6.58,6.58,0,0,1,9.94,0,22.43,22.43,0,0,0,9.86,6.94,44.4,44.4,0,0,0,9,1.94,6.6,6.6,0,0,1,5.92,6.93h0c-.35,7.68-1.87,22-8,31.74A46.71,46.71,0,0,1,67.47,98.35Z"/><circle class="cls-2" cx="110.22" cy="46.16" r="1.61"/><circle class="cls-2" cx="19.62" cy="46.16" r="1.61"/><path class="cls-1" d="M88.37,42.39a44.41,44.41,0,0,1-9-1.94,22.43,22.43,0,0,1-9.86-6.94,6.58,6.58,0,0,0-9.94,0,22.43,22.43,0,0,1-9.86,6.94,44.37,44.37,0,0,1-9,1.94,6.6,6.6,0,0,0-5.92,6.93c.35,7.69,1.87,22,8,31.74A46.72,46.72,0,0,0,61.66,98.35a6.65,6.65,0,0,0,5.81,0A46.71,46.71,0,0,0,86.29,81.06c6.13-9.71,7.64-24.06,8-31.74h0A6.6,6.6,0,0,0,88.37,42.39Zm-5,36.85A43.26,43.26,0,0,1,66,95.28a3.26,3.26,0,0,1-2.84,0,43.27,43.27,0,0,1-17.42-16c-5.71-9-7.13-22.73-7.47-30.08a3.19,3.19,0,0,1,2.83-3.37,47.76,47.76,0,0,0,9.68-2.08,25.47,25.47,0,0,0,11.42-8,3.17,3.17,0,0,1,4.76,0,25.47,25.47,0,0,0,11.42,8A47.82,47.82,0,0,0,88,45.79a3.19,3.19,0,0,1,2.83,3.37C90.54,56.51,89.12,70.19,83.41,79.24Z"/><circle class="cls-2" cx="24.76" cy="94.42" r="1.61"/><circle class="cls-2" cx="105.08" cy="94.42" r="1.61"/><circle class="cls-2" cx="124.79" cy="70.18" r="1.61"/><circle class="cls-2" cx="5.03" cy="70.19" r="1.61"/><circle class="cls-2" cx="50.3" cy="17.79" r="1.61"/><circle class="cls-2" cx="64.56" cy="4.98" r="1.61"/><path class="cls-1" d="M68.58,83.2V81.77a9.38,9.38,0,0,0,8-9.27V71.16a9.37,9.37,0,0,0-9.36-9.36H61.89a1.34,1.34,0,0,1-1.34-1.34V59.13a1.34,1.34,0,0,1,1.34-1.34h5.35a1.34,1.34,0,0,1,1.34,1.34v1.34h8V59.13a9.38,9.38,0,0,0-8-9.27V48.43a4,4,0,1,0-8,0v1.43a9.37,9.37,0,0,0-8,9.27v1.34a9.37,9.37,0,0,0,9.36,9.36h5.35a1.34,1.34,0,0,1,1.34,1.34V72.5a1.34,1.34,0,0,1-1.34,1.34H61.89a1.34,1.34,0,0,1-1.34-1.34V71.16h-8V72.5a9.38,9.38,0,0,0,8,9.27V83.2a4,4,0,1,0,8,0Zm-5.35,0v-4H61.89a6.7,6.7,0,0,1-6.55-5.35h2.77a4,4,0,0,0,3.78,2.67h5.35a4,4,0,0,0,4-4V71.16a4,4,0,0,0-4-4H61.89a6.69,6.69,0,0,1-6.69-6.69V59.13a6.69,6.69,0,0,1,6.69-6.69h1.34v-4a1.34,1.34,0,0,1,2.67,0v4h1.34a6.7,6.7,0,0,1,6.55,5.35H71a4,4,0,0,0-3.78-2.67H61.89a4,4,0,0,0-4,4v1.34a4,4,0,0,0,4,4h5.35a6.69,6.69,0,0,1,6.69,6.69V72.5a6.69,6.69,0,0,1-6.69,6.69H65.9v4a1.34,1.34,0,0,1-2.67,0Z"/><path class="cls-2" d="M71,57.79h2.77a6.7,6.7,0,0,0-6.55-5.35H65.9v-4a1.34,1.34,0,0,0-2.67,0v4H61.89a6.69,6.69,0,0,0-6.69,6.69v1.34a6.69,6.69,0,0,0,6.69,6.69h5.35a4,4,0,0,1,4,4V72.5a4,4,0,0,1-4,4H61.89a4,4,0,0,1-3.78-2.67H55.34a6.7,6.7,0,0,0,6.55,5.35h1.34v4a1.34,1.34,0,0,0,2.67,0v-4h1.34a6.69,6.69,0,0,0,6.69-6.69V71.16a6.69,6.69,0,0,0-6.69-6.69H61.89a4,4,0,0,1-4-4V59.13a4,4,0,0,1,4-4h5.35A4,4,0,0,1,71,57.79Z"/></svg>