<?xml version="1.0" encoding="UTF-8" standalone="no"?>
<svg
   xmlns:dc="http://purl.org/dc/elements/1.1/"
   xmlns:cc="http://creativecommons.org/ns#"
   xmlns:rdf="http://www.w3.org/1999/02/22-rdf-syntax-ns#"
   xmlns:svg="http://www.w3.org/2000/svg"
   xmlns="http://www.w3.org/2000/svg"
   viewBox="0 0 369.50668 292.48001"
   height="292.48001"
   width="369.50668"
   xml:space="preserve"
   id="svg2"
   version="1.1"><metadata
     id="metadata8"><rdf:RDF><cc:Work
         rdf:about=""><dc:format>image/svg+xml</dc:format><dc:type
           rdf:resource="http://purl.org/dc/dcmitype/StillImage" /></cc:Work></rdf:RDF></metadata><defs
     id="defs6" /><g
     transform="matrix(1.3333333,0,0,-1.3333333,0,292.48)"
     id="g10"><g
       transform="scale(0.1)"
       id="g12"><path
         id="path14"
         style="fill:#4f4c4c;fill-opacity:1;fill-rule:nonzero;stroke:none"
         d="m 2357.24,102.102 c -1.59,3.949 -2.11,6.578 -2.73,6.347 -1.17,-0.41 -3.28,-1.66 -4.95,-2.23 -9.73,-5.188 -27.13,-12.469 -51.27,-12.3792 -46.43,0.3711 -87.57,35.8792 -87.57,93.3202 0,62.578 34.37,96.602 80.95,96.551 25.93,-0.039 44,-6.551 60.97,-18.109 8.08,28.699 21.53,55.937 38.43,78.378 -6.7,4.821 -17.95,11.969 -33.04,19.282 v -0.102 c -22.71,10.238 -48.46,16 -77.23,16 -102.89,0 -181.29,-69.672 -181.29,-189.98 0,-119.5902 78.4,-189.1292187 181.29,-189.14875 49.72,-0.0507813 87.89,16.01955 87.89,16.01955 8.29,3.2812 21.77,9.5312 27.39,12.2305 -23.58,32.0585 -34.48,62.5195 -38.84,73.8207" /><path
         id="path16"
         style="fill:#4f4c4c;fill-opacity:1;fill-rule:nonzero;stroke:none"
         d="m 111.289,301.871 h 40.899 c 36.457,0 74.207,10.469 74.207,51.449 0,44.571 -35.887,48.692 -72.95,48.692 H 111.289 V 301.871 Z m 0,-201.68 h 42.695 c 40.657,0 83.164,7.028 83.164,56.368 0,52.839 -43.671,57.671 -81.972,57.671 H 111.289 V 100.191 Z M 0,493.859 h 201.875 c 77.781,0 135.742,-39.648 135.742,-123.089 0,-61.282 -26.836,-95.329 -73.547,-113.379 v -1.403 c 55.61,-13.277 84.36,-48 84.36,-107.148 C 348.43,32.6914 260.449,8.35156 185.715,8.35156 H 0 v 485.50744 0" /><path
         id="path18"
         style="fill:#4f4c4c;fill-opacity:1;fill-rule:nonzero;stroke:none"
         d="m 1197.1,96.0195 c 35.92,0 65.83,39.6405 65.83,92.5315 0,54.949 -26.35,94.488 -65.83,94.488 -41.82,0 -65.17,-41.699 -65.17,-89.648 0,-57.731 24.53,-97.3715 65.17,-97.3715 M 1370.57,8.37109 h -99.29 V 62.8516 h -1.15 C 1249.1,22.5898 1208.91,0 1163,0 c -92.74,0 -142.33,89.082 -142.33,196.129 0,89.043 47.28,183.031 133.45,183.031 42.98,0 79.45,-13.23 107.02,-55.019 h 1.2 v 170.968 h 108.23 V 8.37109 v 0" /><path
         id="path20"
         style="fill:#4f4c4c;fill-opacity:1;fill-rule:nonzero;stroke:none"
         d="m 2660.08,189.18 c 0,54.32 -20.42,102.218 -70.02,102.218 -49.63,0 -69.96,-47.898 -69.96,-102.218 0,-53.52 20.33,-101.5081 69.96,-101.5081 49.6,0 70.02,47.9881 70.02,101.5081 m -251.28,0 c 0,120.308 78.34,189.98 181.26,189.98 102.89,0 181.29,-69.672 181.29,-189.98 C 2771.35,69.5898 2692.95,0 2590.06,0 2487.14,0 2408.8,69.5898 2408.8,189.18" /><path
         id="path22"
         style="fill:#4f4c4c;fill-opacity:1;fill-rule:nonzero;stroke:none"
         d="M 864.934,123.352 C 850.723,98.5508 827.188,85.7813 797.871,85.7813 c -25.105,0 -44.277,14.6407 -44.277,39.6797 0,34.719 28.711,47.969 65.222,47.969 16.145,0 32.336,-1.379 46.118,-2 V 123.352 Z M 970.754,8.37109 C 965.969,37.0117 964.805,65.3906 964.805,93.8594 V 228.859 c 0,110.571 -68.828,150.301 -148.387,150.301 -45.363,0 -84.855,-7.512 -122.617,-24.969 v -84.722 l 0.039,-0.957 c 29.871,19.457 64.617,27.148 99.336,27.148 38.844,0 70.469,-13.238 71.109,-62.66 -13.805,2.82 -32.82,4.961 -50.242,4.961 -57.402,0 -160.957,-13.27 -160.957,-123.879 C 653.086,35.5 708.184,0 769.773,0 c 40.723,0 75.852,19.4297 95.649,56.25 V 8.37109 h 105.332 v 0" /><path
         id="path24"
         style="fill:#4f4c4c;fill-opacity:1;fill-rule:nonzero;stroke:none"
         d="m 600.605,379.16 c -46.718,0 -73.593,-29.301 -92.214,-75.101 h -1.118 V 370.77 H 409.18 V 8.37109 H 516.887 V 161.398 c 0,70.852 27.742,113.571 77.918,117.153 10.371,0.738 27.636,-2.231 36.894,-5.821 v 100.852 c -9.14,3.289 -21.386,5.578 -31.094,5.578" /><path
         id="path26"
         style="fill:#4f4c4c;fill-opacity:1;fill-rule:nonzero;stroke:none"
         d="m 1533.88,223.988 c 2.43,41.711 20.97,75.813 59.82,75.813 43.07,0 59.83,-34.102 59.83,-75.813 H 1533.88 Z M 1750.41,176 c 0,107.801 -41.78,203.16 -157.24,203.16 -96.97,0 -166.96,-69.672 -166.96,-189.219 C 1426.21,70.2695 1504.61,0 1607.44,0 c 40.08,0 79.63,7.03125 114.32,22.9414 v 88.3206 c -32.35,-20.1136 -65.8,-27.7737 -95.1,-27.7737 -52.68,0 -85.58,19.5117 -91.52,69.5317 h 215.27 v 22.98 0" /><path
         id="path28"
         style="fill:#4f4c4c;fill-opacity:1;fill-rule:nonzero;stroke:none"
         d="m 1931.38,379.16 c -62.08,0 -132.75,-34.148 -132.75,-117.68 0,-130.699 153.17,-87.589 153.17,-148.871 0,-24.9371 -21.57,-29.0777 -43.68,-29.0777 -38.82,0 -76.06,12.4882 -101.11,25.0197 V 22.2383 C 1835.43,10.6797 1868.65,0 1914.09,0 c 70.64,0 145.37,24.3008 145.37,120.988 0,137.762 -160.37,93.242 -160.37,149.582 0,20.211 26.43,25.602 49.69,25.09 24.81,-0.648 63.22,-10.98 85.99,-27.019 v 88.941 c -32.9,14.066 -68.68,21.578 -103.39,21.578" /><path
         id="path30"
         style="fill:#e5143c;fill-opacity:1;fill-rule:nonzero;stroke:none"
         d="M 2105.43,736.57 H 967.383 c 0,0 -318.899,0 -318.899,318.91 V 2193.55 H 1786.53 c 0,0 318.9,0 318.9,-318.91 v -1138.07 0" /><path
         id="path32"
         style="fill:#ffffff;fill-opacity:1;fill-rule:nonzero;stroke:none"
         d="m 1311.24,941.34 h -71.73 v 367.56 h 71.73 v -367.56 0" /><path
         id="path34"
         style="fill:#ffffff;fill-opacity:1;fill-rule:nonzero;stroke:none"
         d="m 1493.97,941.34 h -117.49 v 504.52 h 117.49 v -504.52 0" /><path
         id="path36"
         style="fill:#ffffff;fill-opacity:1;fill-rule:nonzero;stroke:none"
         d="m 1175.16,1797.26 c 0,0 118.44,115.8 318.08,77.7 0,0 87.83,-13.67 155.16,-73.48 0,0 10.02,-9.37 17.72,-1.68 0,0 9.76,7.66 -1.11,19.12 0,0 -57.86,80.29 -172.18,115.78 0,0 -156.95,56.21 -318.23,-19.72 0,0 -99.26,-41.14 -154.31,-153.23 0,0 -78.481,-25.35 -137.31,-58.37 0,0 -17.406,-6.86 -10.824,-20.4 0,0 5.625,-9.68 20.84,-2.48 0,0 54.641,18.85 107.314,30.61 0,0 -42.361,-109.86 1.87,-246.17 19.69,-60.73 55.6,-122.52 110.49,-172.19 0,0 8.93,-9.39 18.69,-2.97 0,0 8.46,6.15 2.51,16.21 0,0 -43.77,65.88 -60.78,159.55 -14.16,76.43 -7.48,181.92 45.57,265.54 0,0 202,28.19 374.17,-36.65 0,0 292.47,-95.42 218.85,-272.42 0,0 -21.42,-61.53 -102.13,-117.09 0,0 -13.53,-7.89 -6.18,-19.18 0,0 6.09,-8.81 19.92,-3.19 0,0 123.63,40.24 176.98,139.56 0,0 108.26,165.62 -146.98,300.76 0,0 -70.19,37.51 -160.46,57.56 0,0 -162.52,40.21 -317.67,16.83" /></g></g></svg>