<?xml version="1.0" encoding="UTF-8" standalone="no"?>
<!-- Created with Inkscape (http://www.inkscape.org/) -->

<svg
   xmlns:dc="http://purl.org/dc/elements/1.1/"
   xmlns:cc="http://creativecommons.org/ns#"
   xmlns:rdf="http://www.w3.org/1999/02/22-rdf-syntax-ns#"
   xmlns:svg="http://www.w3.org/2000/svg"
   xmlns="http://www.w3.org/2000/svg"
   xmlns:sodipodi="http://sodipodi.sourceforge.net/DTD/sodipodi-0.dtd"
   xmlns:inkscape="http://www.inkscape.org/namespaces/inkscape"
   version="1.1"
   id="svg2"
   xml:space="preserve"
   width="900mm"
   height="320mm"
   viewBox="0 0 3401.5748 1209.4488"
   sodipodi:docname="logo_revelo_transparente.svg"
   inkscape:version="0.92.2 2405546, 2018-03-11"><metadata
     id="metadata8"><rdf:RDF><cc:Work
         rdf:about=""><dc:format>image/svg+xml</dc:format><dc:type
           rdf:resource="http://purl.org/dc/dcmitype/StillImage" /><dc:title></dc:title></cc:Work></rdf:RDF></metadata><defs
     id="defs6"><clipPath
       clipPathUnits="userSpaceOnUse"
       id="clipPath30"><path
         d="M 197.28,327.048 H 882.72 V 752.951 H 197.28 Z"
         id="path28"
         inkscape:connector-curvature="0" /></clipPath></defs><sodipodi:namedview
     pagecolor="#ffffff"
     bordercolor="#666666"
     borderopacity="1"
     objecttolerance="10"
     gridtolerance="10"
     guidetolerance="10"
     inkscape:pageopacity="0"
     inkscape:pageshadow="2"
     inkscape:window-width="1916"
     inkscape:window-height="1041"
     id="namedview4"
     showgrid="false"
     inkscape:zoom="0.16388889"
     inkscape:cx="-344.74576"
     inkscape:cy="720"
     inkscape:window-x="0"
     inkscape:window-y="18"
     inkscape:window-maximized="0"
     inkscape:current-layer="g10"
     units="mm" /><g
     id="g10"
     inkscape:groupmode="layer"
     inkscape:label="logo_revelo_transparente"
     transform="matrix(1.3333333,0,0,-1.3333333,0,1209.4488)"><g
       id="g857"
       transform="matrix(1.6876715,0,0,1.6876715,360.86089,-456.00283)"><path
         inkscape:connector-curvature="0"
         id="path12"
         style="fill:#ff4245;fill-opacity:1;fill-rule:nonzero;stroke:none"
         d="M 278.663,691.7 H 408.43 v 61.251 H 278.663 Z" /><path
         inkscape:connector-curvature="0"
         id="path14"
         style="fill:#ff4245;fill-opacity:1;fill-rule:nonzero;stroke:none"
         d="M 408.43,460.238 H 295.49 v -47.709 h 112.94 z" /><path
         inkscape:connector-curvature="0"
         id="path16"
         style="fill:#153750;fill-opacity:1;fill-rule:nonzero;stroke:none"
         d="m 408.43,327.048 h 207.134 v 85.48 H 408.43 Z" /><path
         inkscape:connector-curvature="0"
         id="path18"
         style="fill:#153750;fill-opacity:1;fill-rule:nonzero;stroke:none"
         d="M 582.642,622.403 H 408.43 V 691.7 h 174.212 z" /><path
         inkscape:connector-curvature="0"
         id="path20"
         style="fill:#ff4245;fill-opacity:1;fill-rule:nonzero;stroke:none"
         d="m 197.28,574.693 h 211.15 v 47.71 H 197.28 Z" /><path
         inkscape:connector-curvature="0"
         id="path22"
         style="fill:#153750;fill-opacity:1;fill-rule:nonzero;stroke:none"
         d="M 408.43,460.231 H 882.72 V 574.693 H 408.43 Z" /><g
         id="g24"><g
           clip-path="url(#clipPath30)"
           id="g26"><g
             transform="translate(484.3254,510.1412)"
             id="g32"><path
               inkscape:connector-curvature="0"
               id="path34"
               style="fill:#ffffff;fill-opacity:1;fill-rule:nonzero;stroke:none"
               d="m 0,0 c 8.448,2.412 14.396,8.36 14.396,18.273 v 0.17 c 0,5.26 -1.812,9.737 -5.001,13.014 -3.877,3.795 -9.824,6.036 -17.414,6.036 h -26.885 v -9.654 h 26.026 c 7.842,0 12.496,-3.536 12.496,-10.002 v -0.17 C 3.618,11.549 -1.2,7.583 -8.789,7.583 h -15.52 v 20.256 h -10.595 v -50.683 h 10.595 v 21.032 h 13.278 L 3.795,-22.844 H 16.29 Z" /></g><g
             transform="translate(520.9769,547.6338)"
             id="g36"><path
               inkscape:connector-curvature="0"
               id="path38"
               style="fill:#ffffff;fill-opacity:1;fill-rule:nonzero;stroke:none"
               d="M 0,0 H 44.735 V -9.484 H 10.608 v -15.684 h 30.251 v -9.484 H 10.608 v -16.202 h 34.557 v -9.484 H 0 Z" /></g><g
             transform="translate(583.292,547.6338)"
             id="g40"><path
               inkscape:connector-curvature="0"
               id="path42"
               style="fill:#ffffff;fill-opacity:1;fill-rule:nonzero;stroke:none"
               d="M 0,0 H 11.719 L 29.91,-46.377 48.012,0 h 11.46 L 34.387,-60.767 h -9.301 z" /></g><g
             transform="translate(661.6386,547.6338)"
             id="g44"><path
               inkscape:connector-curvature="0"
               id="path46"
               style="fill:#ffffff;fill-opacity:1;fill-rule:nonzero;stroke:none"
               d="M 0,0 H 44.735 V -9.484 H 10.601 v -15.684 h 30.258 v -9.484 H 10.601 v -16.202 h 34.564 v -9.484 H 0 Z" /></g><path
             inkscape:connector-curvature="0"
             id="path48"
             style="fill:#ffffff;fill-opacity:1;fill-rule:nonzero;stroke:none"
             d="m 728.82,496.954 h 10.601 v 50.683 H 728.82 Z" /><path
             inkscape:connector-curvature="0"
             id="path50"
             style="fill:#ffffff;fill-opacity:1;fill-rule:nonzero;stroke:none"
             d="m 739.415,487.3 h 31.716 v 9.654 h -31.716 z" /><g
             transform="translate(837.8412,517.2939)"
             id="g52"><path
               inkscape:connector-curvature="0"
               id="path54"
               style="fill:#ffffff;fill-opacity:1;fill-rule:nonzero;stroke:none"
               d="m 0,0 v 0.17 c 0,11.726 -8.537,21.462 -20.515,21.462 -11.977,0 -20.344,-9.566 -20.344,-21.291 V 0.17 c 0,-11.719 8.537,-21.461 20.515,-21.461 C -8.36,-21.291 0,-11.725 0,0 m -51.971,0 v 0.17 c 0,16.979 13.101,31.205 31.627,31.205 18.538,0 31.463,-14.049 31.463,-31.034 V 0.17 c 0,-16.978 -13.102,-31.204 -31.634,-31.204 -18.531,0 -31.456,14.055 -31.456,31.034" /></g></g></g></g></g></svg>