<?xml version="1.0" encoding="UTF-8" standalone="no"?>
<svg
   xmlns:dc="http://purl.org/dc/elements/1.1/"
   xmlns:cc="http://creativecommons.org/ns#"
   xmlns:rdf="http://www.w3.org/1999/02/22-rdf-syntax-ns#"
   xmlns:svg="http://www.w3.org/2000/svg"
   xmlns="http://www.w3.org/2000/svg"
   viewBox="0 0 1226.04 307.29333"
   height="307.29333"
   width="1226.04"
   xml:space="preserve"
   id="svg2"
   version="1.1"><metadata
     id="metadata8"><rdf:RDF><cc:Work
         rdf:about=""><dc:format>image/svg+xml</dc:format><dc:type
           rdf:resource="http://purl.org/dc/dcmitype/StillImage" /></cc:Work></rdf:RDF></metadata><defs
     id="defs6" /><g
     transform="matrix(1.3333333,0,0,-1.3333333,0,307.29333)"
     id="g10"><g
       transform="scale(0.1)"
       id="g12"><path
         id="path14"
         style="fill:#211d1d;fill-opacity:1;fill-rule:evenodd;stroke:none"
         d="m 2871.43,1047.79 c 99.89,83.69 98.78,235.62 30.2,279.25 -68.54,43.63 -223.57,8.82 -274.09,-116 -50.46,-124.84 -54.56,-200.95 -82.2,-268.868 57.81,4.25 226.2,21.918 326.09,105.618 z M 2217.81,566.91 c 98.06,297.86 191.43,600.1 261.91,911.86 54.99,0 117.75,-1.32 172.72,-1.32 l -20.77,-117.71 c 139.59,90.56 231.51,114.03 323.02,106.54 330.92,-27.05 153,-461.85 -21.89,-566.358 -102.6,-61.34 -241.63,-88.692 -433.66,-61.402 -22.64,-90.551 -45.28,-181.079 -67.9,-271.61 -71.15,0 -142.28,0 -213.43,0 v 0" /><path
         id="path16"
         style="fill:#211d1d;fill-opacity:1;fill-rule:evenodd;stroke:none"
         d="m 3462.77,1254.96 c -86.87,-83.67 -85.91,-235.62 -26.26,-279.241 59.61,-43.641 194.5,-8.828 238.42,116.001 43.92,124.83 47.48,200.93 71.51,268.86 -50.27,-4.25 -196.79,-21.92 -283.67,-105.62 z m 372.92,-432.73 c -62.26,0 -116.69,-1.281 -178.95,-1.281 l 11.61,134.871 c -127.96,-120.929 -335.38,-200.859 -430.53,-86.89 -130.34,178.07 -6.88,409.67 140.02,504.8 163.05,105.62 379.56,100.15 595.29,104.72 -77.24,-214.66 -129.12,-434.72 -137.44,-656.22 v 0" /><path
         id="path18"
         style="fill:#211d1d;fill-opacity:1;fill-rule:evenodd;stroke:none"
         d="m 4234.64,1254.96 c -86.9,-83.67 -85.93,-235.62 -26.28,-279.241 59.66,-43.641 194.53,-8.828 238.45,116.001 43.92,124.83 47.49,200.93 71.51,268.86 -50.28,-4.25 -196.77,-21.92 -283.68,-105.62 z m -328.02,-693.089 31.3,166.481 c 139.09,-45.071 259.81,-66.723 350.5,-21.223 70.58,35.402 123.02,111.453 151.81,248.691 -127.94,-120.929 -335.39,-200.859 -430.52,-86.89 -130.38,178.07 -6.91,409.67 140.01,504.8 163.06,105.62 379.56,100.15 595.32,104.72 C 4678.21,1292.8 4676.97,1001.46 4588.26,794.16 4541.44,684.699 4462.74,614.43 4368.57,574.211 4230.85,515.43 4059.96,520.82 3906.62,561.871 v 0" /><path
         id="path20"
         style="fill:#98d321;fill-opacity:1;fill-rule:evenodd;stroke:none"
         d="m 6371.92,1254.96 c -86.86,-83.67 -85.91,-235.62 -26.31,-279.241 59.69,-43.641 194.55,-8.828 238.5,116.001 43.9,124.83 47.47,200.93 71.5,268.86 -50.3,-4.25 -196.77,-21.92 -283.69,-105.62 z M 4778.07,985.789 c -20.78,-44.879 -44.07,-92.367 -64.77,-137.25 253.03,-55.07 446.77,-21.859 523.19,59.551 74.66,92.07 62.14,196.28 -67.33,272.02 -27.61,19.16 -105.63,57.82 -103.62,103.57 3.67,104.1 161.95,79.34 259.09,49.22 l 31.01,142.49 c -67.89,15.76 -154.1,20.45 -223.36,13.66 -84.33,-8.25 -175.06,-44.71 -245.41,-114.67 -54.64,-56.74 -65.9,-133.21 -45.88,-179.73 24.02,-55.79 101.95,-79.25 141.69,-102.56 66.49,-30.97 106.09,-54.37 94.83,-101.469 -9.45,-39.551 -57.65,-71.902 -143.88,-56.519 -53.56,9.578 -116.12,28.648 -155.56,51.687 z m 832.76,217.581 c 31.24,69.17 84.15,139.14 191.67,152.84 84.65,8.21 93.68,-81.01 43.95,-115.32 -90.32,-38.93 -100.41,14.42 -235.62,-37.52 z m 350.92,-230.518 c -5.16,-43.153 -20.73,-86.313 -25.86,-129.5 -201.15,-27.622 -417.01,-74.192 -528.44,82.867 -115.29,222.361 51.02,426.011 196.86,502.511 256.03,114.84 433.86,56.36 471.43,-56.98 75.9,-198.81 -158.84,-329.98 -497.33,-290.1 -35.29,-172.861 141.33,-170.271 383.34,-108.798 z m 1062.01,507.688 c 62.14,-1.73 124.34,-3.47 186.47,-5.19 -32.84,-138.13 -86.37,-271.09 -119.14,-409.23 -48.6,-168.061 151.82,-150.581 238.28,-46.63 77,135.38 111.44,297.81 160.64,461.05 62.14,0 124.3,0 186.46,0 -70.39,-215.85 -131.7,-431.69 -160.6,-647.56 -55.24,3.461 -120.89,6.918 -176.1,10.372 1.73,34.558 3.41,69.07 5.17,103.628 -186.86,-171.671 -494.41,-216.98 -455.9,72.51 22.11,153.7 84.46,307.37 134.72,461.05 z m 606.1,-637.188 c 83.29,211.598 139.37,481.638 181.29,631.998 h 150.25 l -5.22,-134.69 c 65.63,90.66 184.78,140.72 305.7,134.69 l -57,-170.95 c -150.29,19.73 -256.2,-100.52 -314.78,-299.24 -14.91,-50.601 -26.81,-106.351 -35.5,-166.129 l -224.74,4.321 z m 766.73,551.718 c -189.98,-127.31 -266.18,-341.89 -170.12,-479.199 96.06,-137.301 328.02,-145.43 517.96,-18.141 190,127.29 266.17,341.88 170.18,479.2 -96.11,137.3 -328.02,145.42 -518.02,18.14 z m 54.67,-195.31 c -61.35,-109.64 -53.64,-225.971 17.21,-259.748 70.85,-33.762 178.03,27.789 239.42,137.458 61.36,109.67 53.69,225.96 -17.2,259.75 -70.85,33.77 -178.07,-27.76 -239.43,-137.46 z m -2407.35,-637.889 31.3,166.481 c 139.06,-45.071 259.79,-66.723 350.51,-21.223 70.53,35.402 122.98,111.453 151.76,248.691 -127.93,-120.929 -335.37,-200.859 -430.49,-86.89 -130.38,178.07 -6.89,409.67 139.99,504.8 163.04,105.62 379.6,100.15 595.33,104.72 -66.83,-185.65 -68.07,-476.99 -156.8,-684.29 C 6678.68,684.699 6600.04,614.43 6505.85,574.211 6368.13,515.43 6197.21,520.82 6043.91,561.871 v 0" /><path
         id="path22"
         style="fill:#211d1d;fill-opacity:1;fill-rule:evenodd;stroke:none"
         d="m 480.332,1709.09 c -64.781,-76.15 -113.629,-162.73 -149.363,-257.47 -37.508,-98.53 -57.539,-199.78 -57.539,-307.75 0,-122.34 26.117,-235.671 70.965,-342.741 44.707,-106.27 105.808,-197.641 186.242,-277.93 78.242,-78.211 169.906,-140.789 275.879,-186.347 105.949,-46.243 221.124,-71.723 340.604,-71.723 121.5,0 234.83,24.371 342.7,71.723 103.2,45.039 196.31,106.636 275.88,186.347 78.82,78.949 139.63,172.211 183.31,277.93 45.89,108.191 71.87,220.401 71.87,342.741 0,107.97 -20.21,209.22 -57.6,307.75 -36.58,94.74 -84.99,179.46 -149.32,257.47 -64.38,76.3 -138.88,139.47 -223.29,188.32 -132.58,76.52 -269.36,122.28 -427.87,122.28 -7.67,0 -15.19,0 -22.73,0 -156.441,0 -299.757,-44.8 -434.527,-122.28 -85.324,-48.48 -160.57,-112.32 -225.211,-188.32 v 0" /><path
         id="path24"
         style="fill:#211d1d;fill-opacity:1;fill-rule:evenodd;stroke:none"
         d="m 8353.68,523.262 c 22.18,0 39.82,-7.121 52.94,-22.903 13.31,-15 20.45,-34.39 20.45,-60.007 0,-23.743 -7.14,-44.161 -20.45,-58.34 -13.12,-14.731 -30.76,-21.852 -52.94,-21.852 -21.79,0 -38.69,6.801 -51.79,21.852 -14.19,14.179 -20.43,34.597 -20.43,58.34 0,25.617 6.24,45.007 20.43,60.007 13.1,15.782 30,22.903 51.79,22.903 z m 0,144.527 c -32.41,0 -62.36,-5.168 -90.77,-16.641 -28.09,-11.507 -52.87,-27.238 -73.89,-48.558 -21.23,-21.238 -37.89,-45 -48.57,-72.262 -11.46,-27.547 -16.57,-57.527 -16.57,-89.976 0,-30.801 5.11,-60.801 16.57,-88.364 10.68,-26.168 27.34,-51.047 48.57,-72.269 22.13,-20.168 46.64,-36.809 75,-48.258 27.3,-10.633 58.09,-16.891 89.66,-16.891 32.8,0 61.95,6.258 91.16,16.891 27.23,11.449 52.6,28.09 73.89,48.258 22.01,21.222 37.87,46.101 49.37,73.402 11.43,27.25 16.86,56.391 16.86,87.231 0,32.449 -5.43,62.429 -16.86,89.976 -10.64,27.262 -26.5,51.024 -48.6,72.262 -20.95,21.32 -46.63,37.051 -74.66,48.558 -28.36,11.473 -58.36,16.641 -91.16,16.641 v 0" /><path
         id="path26"
         style="fill:#211d1d;fill-opacity:1;fill-rule:evenodd;stroke:none"
         d="m 8052.42,347.621 c 3.55,20.5 5.09,45.828 5.09,76.891 V 658.281 H 7902.38 V 422.629 c 0,-26.438 -2.72,-45 -9.78,-56.481 -7.07,-10.609 -17.43,-15.769 -33.58,-15.769 -15.8,0 -26.37,5.16 -33.23,15.769 -6.28,9.872 -9.84,29.161 -9.84,56.481 V 658.281 H 7661.67 V 424.512 c -0.9,-32.692 1.82,-57.551 5.38,-76.891 3.27,-20.18 10.42,-35.98 18.29,-49.383 17.79,-27.187 41.46,-47.449 71.44,-61.609 29.22,-15 63.57,-22.059 102.24,-22.059 39.02,0 72.58,7.059 102.31,22.059 30,14.16 54,34.422 70.58,61.609 8.72,13.403 15.85,30.043 20.51,49.383 v 0" /><path
         id="path28"
         style="fill:#211d1d;fill-opacity:1;fill-rule:evenodd;stroke:none"
         d="M 8805.37,658.281 H 8650.13 V 226.012 h 305.98 v 140.136 h -150.74 v 292.133 0" /><path
         id="path30"
         style="fill:#f1a122;fill-opacity:1;fill-rule:evenodd;stroke:none"
         d="m 1730.88,1701.85 c -108.21,131.51 -248.26,216.21 -421.1,248.91 -169.71,31.94 -330.432,6.35 -482.635,-76.16 -78.192,-43.96 -144.293,-98.8 -197.582,-163.45 -54.782,-66.13 -96.692,-142.2 -123.688,-227.52 -27.766,-87.45 -34.863,-179.23 -25.543,-268.74 22.731,57.56 57.539,110.31 98.871,160.71 59.641,71.14 133.594,124.42 216.106,163.53 82.328,36.99 172.687,57.62 266.541,59.7 94.45,0 186.24,-18.44 271.39,-55.49 89.76,-36.3 167.99,-91.72 234.67,-165.67 24.95,-24.88 45.65,-54.69 66.1,-84.57 29.83,0 59.78,-2.07 85.35,-9.28 66.85,-18.45 119.55,-52.56 160.74,-103.75 l 2.01,32.74 c 7.27,89.59 -2.01,174.17 -26.82,257.34 -25.7,82.51 -67.05,160.71 -124.41,231.7 v 0" /><path
         id="path32"
         style="fill:#f1a122;fill-opacity:1;fill-rule:evenodd;stroke:none"
         d="M 461.73,874.398 C 473.074,805.391 493.777,739.34 528.434,678.93 560.621,619.129 604.59,564.461 659.371,516.051 l 27.742,-22.75 c 94.59,-64.719 195.407,-110.891 305.782,-133.68 71.145,-13.449 142.865,-9.172 211.815,7.129 73.19,15.66 142.29,45.48 206.95,89.59 -59.78,13.5 -113.06,45.57 -154.42,93.851 l -16.25,18.457 c -86.77,-9.218 -174.14,-6.41 -261.642,11.372 -111.028,25.558 -206.926,71.832 -296.496,135.781 -85.34,64.73 -156.329,147.25 -209.778,243.828 l -13.511,27.84 c -2.118,-37 -2.118,-76.02 2.167,-113.071 v 0" /><path
         id="path34"
         style="fill:#da3732;fill-opacity:1;fill-rule:evenodd;stroke:none"
         d="m 1279.97,1453.76 c -80.26,34.83 -167.85,50.47 -257.26,50.47 -87.495,-2.06 -170.019,-20.6 -246.026,-57.49 -76.141,-34.23 -142.11,-84.71 -197.481,-149.43 -39.254,-48.35 -71.281,-100.95 -91.769,-156.36 15.629,-68.93 41,-132.88 78.187,-197.649 C 618.191,853.75 687.113,777.73 772.422,718 c 82.504,-59.691 177.109,-98.871 277.908,-121.52 61.79,-11.46 126.62,-16.46 190.66,-13.511 -24.91,41.09 -41.28,84.5 -48.38,135.031 -8.58,51.07 -6.34,101.621 2.79,156.398 11.36,66.84 36.31,128.682 70.96,186.262 37.22,57.61 85.52,110.18 142.29,152.15 37.06,26.94 76.15,47.54 115.31,64 l -20.71,23.45 c -64.64,66.05 -137.93,119.42 -223.28,153.5 v 0" /><path
         id="path36"
         style="fill:#ed7b22;fill-opacity:1;fill-rule:evenodd;stroke:none"
         d="m 1894.23,1060.66 -20.48,34.82 c -29.96,-103.75 -85.51,-195.582 -156.47,-278.73 -16.39,-68.898 -44.1,-130.762 -80.27,-188.391 -37.05,-56.828 -85.49,-108.031 -140.82,-151.418 39.13,-2.082 78.22,4.207 117.37,18.528 36.82,13.5 70.97,34.07 105.8,61.91 46.34,43.312 89.7,94.473 126.62,147.062 l 6.32,9.219 c 16.39,34.192 32.8,68.93 44.01,101.031 11.52,34.829 18.6,68.93 20.79,100.809 2.1,34.969 2.1,64.871 -4.27,94.66 -5,18.4 -12.11,34.83 -18.6,50.5 v 0" /><path
         id="path38"
         style="fill:#e3572b;fill-opacity:1;fill-rule:evenodd;stroke:none"
         d="m 381.305,1465.27 c -29.813,-82.66 -46.071,-169.96 -50.336,-264.62 -2.102,-121.41 20.523,-238.81 66.851,-349.13 22.575,-52.461 50.481,-103.668 84.45,-152.098 32.906,-45.461 69.062,-89.59 110.218,-127.891 -89.425,98.828 -142.285,213.27 -158.347,341.91 -4.391,44.039 -4.391,85.297 -2.223,128.679 -29.809,83.33 -46.191,165.68 -46.191,250.98 0,80.29 14.128,158.52 39.093,238.97 21.258,55.33 48.254,108.02 78.243,156.2 -52.86,-68.93 -91.672,-142.79 -121.758,-223 v 0" /><path
         id="path40"
         style="fill:#e3572b;fill-opacity:1;fill-rule:evenodd;stroke:none"
         d="m 1951.23,1416.79 c -20.7,66.84 -47.67,131.57 -82.54,191.27 -34.1,57.57 -76.17,110.27 -126.45,158.45 -45.61,48.48 -98.87,89.73 -158.56,124.47 50.33,-34.74 96.51,-75.99 137.86,-122.26 64.67,-73.23 113.05,-151.43 142.86,-238.9 29.83,-89.48 43.43,-182.03 36.32,-277.98 -2.07,-29.88 -6.49,-57.55 -11.34,-87.43 11.34,-18.45 23.45,-41.17 32.74,-64.62 22.6,-66.9 26.89,-137.95 15.52,-209.091 34.85,98.731 52.54,202.741 50.45,309.951 -4.29,73.94 -15.6,147.14 -36.86,216.14 v 0" /><path
         id="path42"
         style="fill:#e3572b;fill-opacity:1;fill-rule:evenodd;stroke:none"
         d="m 1680.19,1198.56 c 22.8,-48.33 37.09,-101.01 43.41,-153.57 7.28,-53.26 9.29,-103.752 5.04,-154.291 l -9.28,-50.48 c 68.88,80.281 115.23,169.941 142.28,273.801 -15.66,15.56 -32.05,31.94 -50.65,45.38 -36.91,25.67 -80.11,39.16 -130.8,39.16 v 0" /><path
         id="path44"
         style="fill:#da3732;fill-opacity:1;fill-rule:evenodd;stroke:none"
         d="m 1542.42,592.121 c 27.73,39.199 50.44,82.379 66.8,125.879 -92.52,-66.148 -193.32,-112.422 -303.54,-135.031 15.63,-25.59 36.84,-46.328 59.64,-62.641 22.85,-15.629 48.36,-27.027 78.16,-36.289 37.06,32.012 71.14,69.063 98.94,108.082 v 0" /><path
         id="path46"
         style="fill:#da3732;fill-opacity:1;fill-rule:evenodd;stroke:none"
         d="m 1080.14,346.172 99.04,-4.934 c 85.26,2.043 165.44,18.383 243.82,44.051 73.19,24.871 144.91,59.699 206.91,103.082 -39.24,-18.531 -80.47,-32.031 -124.4,-34.09 -13.61,-2.82 -29.99,-2.82 -45.6,-2.82 C 1347,378.121 1220.19,343.281 1080.14,346.172 v 0" /><path
         id="path48"
         style="fill:#f7e921;fill-opacity:1;fill-rule:evenodd;stroke:none"
         d="m 1627.67,1012.32 c -14.11,59.7 -34.81,115.05 -64.62,167.75 -52.7,-15.66 -98.89,-43.42 -142.3,-80.28 -46.18,-39.13 -85.26,-87.47 -115.07,-142.31 -25.71,-55.332 -41.24,-107.96 -46.23,-163.351 -6.38,-52.617 0,-101.059 14.17,-147.231 6.35,-15.578 11.38,-29.82 20.7,-43.41 57.56,6.344 110.08,22.793 162.77,45.543 55.34,21.328 105.96,50.391 154.23,87.348 l 4.27,2.961 c 9.33,34.16 16.41,68.93 21.42,103.172 4.1,57.386 2.02,112.269 -9.34,169.808 v 0" /></g></g></svg>