<svg xmlns="http://www.w3.org/2000/svg" width="900mm" height="320mm" viewBox="0 0 3401.5748 1209.4488"><defs><clipPath id="a"><path d="M197.28 327.048h685.44v425.903H197.28z"/></clipPath></defs><path d="M1108.203 260.97h292.006V123.14h-292.006zM1400.209 781.812h-254.141v107.356h254.14z" fill="#ff4245"/><path d="M1400.209 1081.52h466.099V889.17h-466.1zM1792.226 416.904h-392.017V260.969h392.017z" fill="#153750"/><path d="M925.073 524.262h475.136V416.904H925.073z" fill="#ff4245"/><path d="M1400.209 781.828h1067.26V524.262H1400.21z" fill="#153750"/><g clip-path="url(#a)" transform="matrix(2.25023 0 0 -2.25023 481.148 1817.453)"><path d="M484.325 510.141c8.448 2.412 14.396 8.36 14.396 18.273v.17c0 5.26-1.812 9.737-5 13.014-3.878 3.795-9.825 6.036-17.415 6.036h-26.885v-9.654h26.026c7.842 0 12.496-3.536 12.496-10.002v-.17c0-6.118-4.818-10.084-12.407-10.084h-15.52v20.256h-10.595v-50.683h10.595v21.032h13.278l14.826-21.032h12.495zM520.977 547.634h44.735v-9.484h-34.127v-15.684h30.25v-9.484h-30.25V496.78h34.557v-9.484h-45.165zM583.292 547.634h11.719l18.191-46.377 18.102 46.377h11.46l-25.085-60.767h-9.301zM661.639 547.634h44.735v-9.484H672.24v-15.684h30.258v-9.484H672.24V496.78h34.564v-9.484h-45.165zM728.82 496.954h10.601v50.683H728.82zM739.415 487.3h31.716v9.654h-31.716zM837.841 517.294v.17c0 11.726-8.537 21.462-20.515 21.462-11.977 0-20.344-9.566-20.344-21.291v-.171c0-11.72 8.537-21.461 20.515-21.461 11.984 0 20.344 9.566 20.344 21.29m-51.97 0v.17c0 16.98 13.1 31.206 31.626 31.206 18.538 0 31.463-14.05 31.463-31.034v-.171c0-16.978-13.102-31.204-31.634-31.204-18.53 0-31.456 14.055-31.456 31.034" fill="#fff"/></g></svg>