<?xml version="1.0" encoding="UTF-8" standalone="no"?>
<svg
   xmlns:dc="http://purl.org/dc/elements/1.1/"
   xmlns:cc="http://creativecommons.org/ns#"
   xmlns:rdf="http://www.w3.org/1999/02/22-rdf-syntax-ns#"
   xmlns:svg="http://www.w3.org/2000/svg"
   xmlns="http://www.w3.org/2000/svg"
   viewBox="0 0 183.66667 181.66667"
   height="181.66667"
   width="183.66667"
   xml:space="preserve"
   id="svg2"
   version="1.1"><metadata
     id="metadata8"><rdf:RDF><cc:Work
         rdf:about=""><dc:format>image/svg+xml</dc:format><dc:type
           rdf:resource="http://purl.org/dc/dcmitype/StillImage" /></cc:Work></rdf:RDF></metadata><defs
     id="defs6"><clipPath
       id="clipPath18"
       clipPathUnits="userSpaceOnUse"><path
         id="path16"
         d="M 0,136.25 H 137.75 V 0 H 0 Z" /></clipPath></defs><g
     transform="matrix(1.3333333,0,0,-1.3333333,0,181.66667)"
     id="g10"><g
       id="g12"><g
         clip-path="url(#clipPath18)"
         id="g14"><g
           transform="translate(92.2861,77.751)"
           id="g20"><path
             id="path22"
             style="fill:#000000;fill-opacity:1;fill-rule:nonzero;stroke:none"
             d="m 0,0 c -6.087,0 -9.057,-5.047 -8.982,-9.873 0.075,-5.643 4.528,-8.389 8.982,-8.389 4.528,0.075 9.058,2.969 9.058,8.537 C 9.058,-4.379 4.974,0 0,0 m 20.712,-27.17 c 0,-14.848 -10.244,-20.86 -20.415,-20.86 -9.947,0 -19.82,6.012 -19.82,15.738 h 12.249 c 0,-2.45 3.489,-4.455 7.2,-4.38 4.231,0.073 8.76,2.375 9.132,9.428 v 2.078 c -2.599,-3.043 -6.386,-4.157 -10.394,-4.157 -12.917,0 -19.375,8.537 -19.375,19.598 0,3.545 0.615,6.879 1.83,9.8 h -7.618 V -29.472 H -38.154 V 0.075 h -11.578 v -15.664 c 0,-3.563 2.597,-4.678 5.419,-4.678 1.112,0 2.3,0.15 3.339,0.372 l 0.372,-9.651 c -2.301,-0.371 -4.454,-0.594 -6.384,-0.594 -8.983,-0.074 -14.402,4.083 -14.402,14.551 V 0.075 h -5.27 v 10.17 h 5.27 v 7.647 l 11.656,1.039 v -8.686 h 11.726 c -0.817,12.472 10.616,14.922 20.414,12.843 l -0.371,-8.76 c -3.489,0.891 -8.611,0.891 -8.388,-4.083 h 8.315 V 1.857 c 3.02,5.632 8.586,9.326 16.626,9.279 3.86,0 7.795,-1.04 10.468,-4.454 v 4.009 h 11.654 z m -43.686,84.253 c -36.892,0 -66.799,-29.909 -66.799,-66.803 0,-36.893 29.907,-66.801 66.799,-66.801 36.893,0 66.801,29.908 66.801,66.801 0,36.894 -29.908,66.803 -66.801,66.803" /></g></g></g></g></svg>