<?xml version="1.0" encoding="UTF-8" standalone="no"?>
<!-- Created with Inkscape (http://www.inkscape.org/) -->

<svg
   xmlns:dc="http://purl.org/dc/elements/1.1/"
   xmlns:cc="http://creativecommons.org/ns#"
   xmlns:rdf="http://www.w3.org/1999/02/22-rdf-syntax-ns#"
   xmlns:svg="http://www.w3.org/2000/svg"
   xmlns="http://www.w3.org/2000/svg"
   xmlns:sodipodi="http://sodipodi.sourceforge.net/DTD/sodipodi-0.dtd"
   xmlns:inkscape="http://www.inkscape.org/namespaces/inkscape"
   width="800mm"
   height="470.60599mm"
   viewBox="0 0 800 470.60599"
   version="1.1"
   id="svg1142"
   inkscape:version="0.92.2 2405546, 2018-03-11"
   sodipodi:docname="udacity.svg">
  <defs
     id="defs1136" />
  <sodipodi:namedview
     id="base"
     pagecolor="#ffffff"
     bordercolor="#666666"
     borderopacity="1.0"
     inkscape:pageopacity="0.0"
     inkscape:pageshadow="2"
     inkscape:zoom="0.24748737"
     inkscape:cx="-96.776847"
     inkscape:cy="548.216"
     inkscape:document-units="mm"
     inkscape:current-layer="g1708"
     showgrid="false"
     units="mm"
     inkscape:window-width="1916"
     inkscape:window-height="1041"
     inkscape:window-x="0"
     inkscape:window-y="18"
     inkscape:window-maximized="0" />
  <metadata
     id="metadata1139">
    <rdf:RDF>
      <cc:Work
         rdf:about="">
        <dc:format>image/svg+xml</dc:format>
        <dc:type
           rdf:resource="http://purl.org/dc/dcmitype/StillImage" />
        <dc:title />
      </cc:Work>
    </rdf:RDF>
  </metadata>
  <g
     inkscape:label="Camada 1"
     inkscape:groupmode="layer"
     id="layer1"
     transform="translate(0,173.60601)">
    <g
       transform="matrix(0.03527778,0,0,-0.03527778,-5.2916749,785.59787)"
       id="g1708">
      <g
         id="g823"
         transform="matrix(1.527991,0,0,1.527991,-6079.4028,-10839.795)">
        <g
           transform="translate(5247.9802)"
           id="g1121">
          <g
             transform="scale(1.06568)"
             id="g232">
            <path
               inkscape:connector-curvature="0"
               id="path234"
               style="fill:#2b3745;fill-opacity:1;fill-rule:nonzero;stroke:none"
               d="m 5003.66,15834.3 144.58,354.6 h 2.02 l 122.11,-299.5 z m 106.44,456.3 -296.01,-731.8 h 78.29 l 78.37,195.1 329.46,67.5 105.9,-262.6 h 78.29 l -296.01,731.8 z m 3901.73,0 h -80.57 l -232.87,-337 h -2.06 l -235.15,337 h -81.63 l 280.42,-417.1 -0.02,-314.8 h 75.07 l -0.23,314.8 z m -1552.99,-65.7 h 262.75 v -666.2 h 74.98 l 0.09,666.2 h 262.74 v 65.7 h -600.56 z m -506.74,-666.1 h 75.1 v 731.8 h -75.1 z m -752.48,56.3 c -172.51,0 -295.87,141.5 -295.87,315 0,171.3 123.36,303.6 293.81,303.6 136.38,0 221.08,-80.6 221.08,-80.6 l 38.23,52.7 c 0,0 -87.82,94.2 -261.38,94.2 -207.65,0 -366.13,-160.4 -366.13,-370.9 0,-211.7 154.35,-380.4 369.25,-380.4 178.73,0 277.9,112.8 277.9,112.8 l -41.34,50.7 c 0,0 -88.83,-97.1 -235.55,-97.1 z m -2096.48,8.9 -153.79,0.4 v 600.5 l 153.79,-0.2 c 177.69,0 297.54,-106.7 297.54,-299.8 0,-194.1 -118.81,-300.9 -297.54,-300.9 z m 7.24,666.2 -236.1,0.4 v -731.9 h 234.59 c 218.01,0 366.19,134.9 366.19,366.2 0,229.3 -146.68,365.3 -364.68,365.3 z M 3310.99,15842 c 0,-125 -104.25,-227.2 -245.21,-227.2 -140.96,0 -242.57,102.2 -242.57,227.2 v 448.3 h -74.97 v -449.4 c 0,-161.1 124.15,-291.9 317.54,-291.9 193.39,0 320.47,130.8 320.47,291.9 l 0.08,449.7 h -75.07 l -0.27,-448.6" />
          </g>
        </g>
        <g
           id="g236"
           transform="matrix(1.50249,0,0,1.50249,5249.366,0)">
          <path
             d="m 5769.97,14228.7 c -13.1,-64 -32.66,-127 -58.12,-187.2 -25.02,-59.2 -56,-116.2 -92.08,-169.7 -35.79,-52.9 -76.89,-102.7 -122.17,-148 -45.28,-45.3 -91.98,-86.4 -144.94,-122.2 -53.41,-36.1 -113.61,-67.1 -172.76,-92 -60.2,-25.5 -123.19,-45.1 -187.23,-58.2 -12.92,-2.6 -25.49,-5 -38.55,-7.1 56.3,150 90.23,312.5 90.27,482.2 v 0 1652.4 h 0.02 l 745.87,432.6 v -1581.1 c 0,-68 -6.84,-135.9 -20.31,-201.7 z M 4107.52,12890.9 c -67.73,-28.6 -138.61,-50.6 -210.67,-65.3 -74.07,-15.2 -150.38,-22.9 -226.82,-22.9 -76.43,0 -150.04,7.7 -224.11,22.9 -72.06,14.7 -142.94,36.7 -210.67,65.3 -66.56,28.2 -130.77,63.1 -190.85,103.7 -59.58,40.2 -115.62,86.4 -166.55,137.4 -50.93,50.9 -97.16,106.9 -137.41,166.5 -40.6,60.1 -75.45,124.3 -103.6,190.8 -28.65,67.8 -50.65,138.7 -65.4,210.7 -15.15,74.1 -22.84,150.4 -22.84,226.9 v 1507.9 l 998.61,576.8 v -1581.2 h -0.05 c 0,-600.8 422.14,-1102.6 987.39,-1222.1 -22.05,-26.5 -45.3,-52 -69.64,-76.3 -50.93,-51 -106.96,-97.2 -166.54,-137.4 -60.08,-40.6 -124.29,-75.5 -190.85,-103.7 z m 1685.87,3409.1 -1001.26,-576.9 0.07,-0.1 h -0.01 v -1796.1 c 0,-76.5 -5.71,-152.8 -20.87,-226.9 -14.74,-72 -38.73,-142.9 -67.37,-210.7 -7.42,-17.5 -15.3,-34.8 -23.63,-52 -30.23,3.4 -58.24,8 -87.83,14.1 -64.04,13.1 -128.49,32.7 -188.68,58.2 -59.16,24.9 -116.24,55.9 -169.64,92 -52.97,35.8 -102.78,76.9 -148.07,122.2 -45.28,45.3 -86.37,95.1 -122.16,148 -36.08,53.5 -67.06,110.5 -92.09,169.7 -25.46,60.2 -45.01,123.2 -58.12,187.2 -13.47,65.8 -20.3,133.7 -20.3,201.7 h 0.05 v 1725.4 l -248.35,144.2 m 0,0 -1249.04,-721.1 v -1652.1 c 0.02,-758.8 615.15,-1373.9 1373.94,-1373.9 250.9,0 486.08,67.3 688.53,184.7 v 0 l 1013.39,585.1 c 398.96,208.6 671.25,626.3 671.25,1107.7 v 1725.4 0 0 l -249.81,144.2"
             style="fill:#4cb8e8;fill-opacity:1;fill-rule:nonzero;stroke:none"
             id="path238"
             inkscape:connector-curvature="0" />
        </g>
      </g>
    </g>
  </g>
</svg>
