<svg xmlns="http://www.w3.org/2000/svg" width="800mm" height="1778.668" viewBox="0 0 800 470.60599"><path d="M350.561 432.013l8.306-20.37h.116l7.014 17.205zm6.115-26.211l-17.004 42.037h4.497l4.502-11.207 18.925-3.877 6.084 15.084h4.497l-17.004-42.037zm224.133 0h-4.628l-13.378 19.358h-.118l-13.508-19.358h-4.69l16.11 23.96-.002 18.083h4.313l-.014-18.083zm-89.211 3.774h15.094v38.27h4.307l.005-38.27h15.093v-3.774h-34.499zm-29.11 38.263h4.315v-42.037h-4.314zm-43.225-3.234c-9.91 0-16.996-8.128-16.996-18.095 0-9.84 7.086-17.44 16.877-17.44 7.835 0 12.7 4.63 12.7 4.63l2.196-3.027s-5.044-5.411-15.015-5.411c-11.928 0-21.032 9.214-21.032 21.306 0 12.16 8.867 21.852 21.212 21.852 10.267 0 15.964-6.48 15.964-6.48l-2.375-2.913s-5.103 5.578-13.531 5.578zm-120.432-.51l-8.834-.024v-34.495l8.834.011c10.208 0 17.092 6.13 17.092 17.222 0 11.15-6.825 17.285-17.092 17.285zm.416-38.27l-13.562-.023v42.043h13.476c12.523 0 21.035-7.75 21.035-21.036 0-13.172-8.426-20.984-20.949-20.984zm-45.92 25.746c0 7.18-5.989 13.052-14.086 13.052-8.098 0-13.935-5.871-13.935-13.052V405.82H221v25.815c0 9.255 7.131 16.768 18.24 16.768 11.11 0 18.41-7.513 18.41-16.768l.005-25.832h-4.313l-.015 25.77" fill="#2b3745"/><path d="M530.515 189.22a80.412 80.412 0 0 1-12.164 28.905 81.973 81.973 0 0 1-9.895 11.987c-3.667 3.668-7.45 6.997-11.739 9.897-4.326 2.923-9.201 5.434-13.992 7.45a80.146 80.146 0 0 1-18.286 5.29c4.56-12.15 7.308-25.31 7.311-39.054V79.866h.002L532.16 44.83v128.054c0 5.507-.554 11.006-1.645 16.335zM395.873 297.567a90.427 90.427 0 0 1-17.062 5.29 91.571 91.571 0 0 1-18.37 1.854c-6.19 0-12.153-.624-18.152-1.855a90.427 90.427 0 0 1-17.062-5.289 91.257 91.257 0 0 1-15.457-8.398 91.173 91.173 0 0 1-13.489-11.128 91.547 91.547 0 0 1-11.129-13.485 91.142 91.142 0 0 1-8.39-15.453 90.713 90.713 0 0 1-5.297-17.065 91.91 91.91 0 0 1-1.85-18.377V91.537l80.878-46.715v128.062h-.004c0 48.659 34.19 89.3 79.97 98.978a90.8 90.8 0 0 1-5.641 6.18 91.167 91.167 0 0 1-13.488 11.128 91.257 91.257 0 0 1-15.457 8.398zm136.54-276.104L451.32 68.187l.005.008v145.467c0 6.196-.463 12.376-1.69 18.377-1.195 5.831-3.138 11.574-5.457 17.065a92.472 92.472 0 0 1-1.914 4.211 77.237 77.237 0 0 1-7.113-1.142c-5.187-1.06-10.407-2.648-15.282-4.713a80.04 80.04 0 0 1-13.739-7.451 81.643 81.643 0 0 1-21.886-21.884 81.15 81.15 0 0 1-7.458-13.744 80.471 80.471 0 0 1-4.707-15.162 81.647 81.647 0 0 1-1.645-16.335h.005V33.143l-20.114-11.679m0 0l-101.16 58.402V213.67c0 61.456 49.82 111.273 111.275 111.273 20.32 0 39.368-5.45 55.765-14.959l82.074-47.387c32.312-16.895 54.365-50.725 54.365-89.713V33.143l-20.232-11.679" fill="#4cb8e8"/></svg>