<?xml version="1.0" encoding="UTF-8" standalone="no"?>
<!DOCTYPE svg PUBLIC "-//W3C//DTD SVG 1.1//EN"
"http://www.w3.org/Graphics/SVG/1.1/DTD/svg11.dtd">


<!-- Page 1 -->
<svg x="0" y="0" width="866" height="649" viewBox="0 0 866 649" version="1.1" xmlns="http://www.w3.org/2000/svg" xmlns:xlink="http://www.w3.org/1999/xlink"
style="display: block;margin-left: auto;margin-right: auto;">
<defs>

<style type="text/css"><![CDATA[

.g0_1{
fill: #635954;
}
.g1_1{
fill: #ED5252;
}

]]></style>

</defs>
<path d="M747,309.5v1.2h2.1V317h1.3v-6.3h2.2v-1.2Z" class="g0_1" />
<path d="M761.1,309.5l-2.8,5.3l-2.9,-5.3h-1.1V317h1.2v-4.8l2.6,4.8h.2l2.6,-4.8V317h1.2v-7.5Z" class="g0_1" />
<path d="M321.8,337.5c-.8,-.7,-1.6,-1.1,-2.6,-1.3c-5.6,5.6,-12.5,11.5,-18.6,15.5c-2.8,1.9,-6.3,2.8,-8.6,2.8c-5.4,0,-7.8,-5.1,-8.5,-13.3c-.9,-11,-1.5,-24.1,-1.5,-44.4c0,-20.8,-4.8,-35,-17.4,-36.1c-.5,0,-1,-.1,-1.6,-.1c-7.7,0,-11.5,4,-16.4,14c-4.2,8.7,-10.8,21.3,-22.9,45.1c-10.6,20.5,-22.3,38.7,-32.4,51.3c-2.8,3.5,-5,5.9,-7.1,7.3c-1.4,.9,-2.7,1.3,-4.1,1.3c-4,0,-6.9,-3.3,-7.8,-11.1c-.3,-1.9,-.4,-4,-.4,-6.4c0,-16.1,6.1,-42.2,16.6,-80.7c7.8,-28,4.5,-47.1,-12.4,-47.1h-.2c-3.8,0,-7,1.4,-10,3.8c-3,2.3,-6,7.5,-8.8,14.3c-3.2,7.8,-22.4,46.3,-53,66.2c-.4,7.6,3.9,15.1,12.6,15.9c7.8,.8,13.4,-2.5,20.7,-7.4c-.6,2.4,-1.1,4.7,-1.5,6.7c-.6,2.5,-1,4.6,-1.4,6.2c-.6,2.6,-.9,4.2,-1,4.6c-1,4.6,-1.7,9,-2.2,13.2c-4.3,38.5,13.6,57.6,34.5,57.6c3.5,0,7,-.5,10.4,-1.3c23.1,-5.9,45.3,-32.3,71.6,-93.3c-.4,6.7,-.5,12.9,-.2,18.6c1.8,34.9,15.6,45.4,35.1,45.4c14.7,0,28.6,-7.7,35.6,-17.3c5.1,-6.8,7.2,-14.2,7.2,-20.1c0,-4.5,-1.4,-8.1,-3.7,-9.9Z" class="g1_1" />
<path d="M372,334.1V289.5h19.2v44.2c0,15.9,7.1,19.2,16.9,19.2c10.6,0,16.1,-4.7,16.1,-19.2V289.5h19.3v44.6c0,26.3,-11.5,37.2,-36.3,37.2C384,371.3,372,361.9,372,334.1m124.7,31.2c-4.8,3.6,-10.3,5.8,-18.1,5.8c-16.5,0,-28.4,-10.2,-28.4,-31.1c0,-20.8,13.7,-32,31.2,-32c4.1,0,8,.6,11.7,2V284.5h18.4v85.2H499.8Zm-14.3,-10c4.2,0,7.4,-.7,10.7,-3.1V326c-3,-1.7,-5.9,-2.6,-10.1,-2.6c-9,0,-14.1,6.1,-14.1,16.3c0,9.9,5.2,15.6,13.5,15.6m68.7,15.6c-17.7,0,-32,-8.8,-32,-31.9c0,-21.6,13.8,-31,29.7,-31c19.2,0,27.7,13.5,27.7,34.6H537.8c1.3,10.4,7.7,13.4,16.3,13.4c8.2,0,14.7,-2,19.6,-5.4l-2.5,14.7c-4.7,3.7,-10.4,5.6,-20.1,5.6M537.9,333.7h23.7c-1.2,-7.8,-5.4,-11.5,-11.7,-11.5c-5.4,0,-10.6,3.1,-12,11.5m64.4,-5.1v41.1H583.8V309.6h13l3.9,5.2c5,-4.2,10.4,-6.6,16.5,-6.6c8.3,0,14.6,2.4,18.5,8.5c5.6,-5.2,11.6,-8.5,19.1,-8.5c14.3,0,22.6,7.3,22.6,27.3v34.2H658.9V337.6c0,-9.2,-3.7,-11.9,-9.7,-11.9c-3.5,0,-6.4,.9,-9.7,3c.3,2.1,.4,4.3,.4,6.8v34.2H621.4V337.6c0,-9.2,-3.7,-11.9,-9.8,-11.9c-3.3,0,-6.1,.8,-9.3,2.9m90.8,61.1h18.3L743,309.6H724.9l-13.1,39.9L698,309.6H677.8l24.1,57.9Z" class="g0_1" />

</svg>
