<svg xmlns="http://www.w3.org/2000/svg" width="400" height="150" viewBox="0 0 400 150"><title>Artboard</title><g fill="#f36" fill-rule="nonzero"><path d="M268.35 59.925h-10.92v37.38a1.29 1.29 0 0 1-1.28 1.28h-8.41a1.29 1.29 0 0 1-1.28-1.28v-37.38h-11a1.23 1.23 0 0 1-1.28-1.22v-6.62a1.228 1.228 0 0 1 1.28-1.22h32.87a1.29 1.29 0 0 1 1.35 1.22v6.62a1.29 1.29 0 0 1-1.33 1.22zM303.37 98.335a84.08 84.08 0 0 1-13 .84c-8.29 0-15.61-2.12-15.61-13.81v-21.33c0-11.69 7.39-13.74 15.67-13.74a83 83 0 0 1 12.9.83c.9.13 1.28.45 1.28 1.28v6a1.29 1.29 0 0 1-1.28 1.28h-13.5c-3 0-4.11 1-4.11 4.37v5.84h17.14a1.29 1.29 0 0 1 1.28 1.28v6.1a1.29 1.29 0 0 1-1.28 1.28h-17.14v6.81c0 3.34 1.09 4.37 4.11 4.37h13.54a1.29 1.29 0 0 1 1.28 1.28v6c.01.8-.38 1.19-1.28 1.32zM351.83 98.585h-10.21a1.69 1.69 0 0 1-1.67-1l-8.86-14-8 13.74c-.45.77-.9 1.28-1.61 1.28H312a.85.85 0 0 1-1-.84 1.19 1.19 0 0 1 .13-.45l13.93-23.19L311 52.085a.91.91 0 0 1-.13-.39.93.93 0 0 1 1-.84h10.34c.71 0 1.22.64 1.61 1.22l8.22 13 8-13a2.08 2.08 0 0 1 1.61-1.22h9.51a.93.93 0 0 1 1 .84.91.91 0 0 1-.13.39l-14 22.17 14.57 23c.113.196.178.415.19.64-.12.44-.45.69-.96.69zM218.8 50.995a1 1 0 0 0-1 .79l-9.33 34.52c-.13.71-.32 1-.9 1-.58 0-.77-.26-.9-1l-9.3-34.52a1 1 0 0 0-1-.79h-9.18a1 1 0 0 0-1 1.22s11.39 39.57 11.51 40c1.52 4.72 5.21 7 9.9 7a10 10 0 0 0 9.9-7c.18-.54 11.32-40 11.32-40a1 1 0 0 0-1-1.21zM166.77 18.905H71.05a9.94 9.94 0 0 0-8.71 14.56l9.58 18.24H54.56a6.26 6.26 0 0 0-5.64 9.2l30.8 58.2a6.38 6.38 0 0 0 11.28 0l8.36-15.77 10.5 19.86a9.85 9.85 0 0 0 17.41 0l48-90.25a9.54 9.54 0 0 0-8.5-14.04zM124 57.035l-21 39.38a4.16 4.16 0 0 1-7.35 0l-20.73-39a3.87 3.87 0 0 1 3.42-5.69h42.42a3.61 3.61 0 0 1 3.24 5.31z"/></g></svg>